<svg width="13" height="20" viewBox="0 0 13 20" fill="none" xmlns="http://www.w3.org/2000/svg">
<path fill-rule="evenodd" clip-rule="evenodd" d="M6.36364 1.36364C7.68972 1.36364 8.96149 1.89042 9.89917 2.8281C10.8369 3.76578 11.3636 5.03755 11.3636 6.36364L11.3636 15.4545C11.3636 16.2984 11.0284 17.1077 10.4317 17.7044C9.835 18.3011 9.02569 18.6364 8.18182 18.6364C7.33795 18.6364 6.52864 18.3011 5.93193 17.7044C5.33523 17.1077 5 16.2984 5 15.4545V7.27273C5 6.91107 5.14367 6.56422 5.3994 6.30849C5.65513 6.05276 6.00198 5.90909 6.36364 5.90909C6.7253 5.90909 7.07214 6.05276 7.32787 6.30849C7.5836 6.56422 7.72727 6.91107 7.72727 7.27273L7.72727 15.4545H9.09091V7.27273C9.09091 6.54941 8.80357 5.85572 8.29211 5.34425C7.78065 4.83279 7.08695 4.54545 6.36364 4.54545C5.64032 4.54545 4.94663 4.83279 4.43516 5.34425C3.9237 5.85572 3.63636 6.54941 3.63636 7.27273V15.4545C3.63636 16.6601 4.11526 17.8162 4.9677 18.6687C5.82013 19.5211 6.97629 20 8.18182 20C9.38735 20 10.5435 19.5211 11.3959 18.6687C12.2484 17.8162 12.7273 16.6601 12.7273 15.4545L12.7273 6.36364C12.7273 4.6759 12.0568 3.05728 10.8634 1.86387C9.66999 0.670453 8.05138 0 6.36364 0C4.6759 0 3.05728 0.670453 1.86387 1.86387C0.670453 3.05728 0 4.6759 0 6.36364V15.4545H1.36364V6.36364C1.36364 5.03755 1.89042 3.76578 2.8281 2.8281C3.76578 1.89042 5.03755 1.36364 6.36364 1.36364Z" fill="white"/>
</svg>
