<svg width="20" height="20" viewBox="0 0 20 20" fill="none" xmlns="http://www.w3.org/2000/svg">
<path fill-rule="evenodd" clip-rule="evenodd" d="M0.287945 18.496C-0.0479199 18.8319 -0.0479201 19.3764 0.287945 19.7123C0.62381 20.0482 1.16835 20.0482 1.50422 19.7123L10.0001 11.2164L18.496 19.7123C18.8319 20.0482 19.3764 20.0482 19.7123 19.7123C20.0482 19.3764 20.0482 18.8319 19.7123 18.496L11.2164 10.0001L19.7483 1.46817C20.0842 1.13231 20.0842 0.587764 19.7483 0.251899C19.4125 -0.0839663 18.8679 -0.0839663 18.5321 0.251899L10.0001 8.78385L1.46817 0.2519C1.13231 -0.083965 0.587764 -0.083965 0.251899 0.2519C-0.0839664 0.587765 -0.0839662 1.13231 0.251899 1.46818L8.78385 10.0001L0.287945 18.496Z" fill="#EB5757"/>
</svg>
