<svg width="185" height="23" viewBox="0 0 185 23" fill="none" xmlns="http://www.w3.org/2000/svg">
<path d="M6.54492 13.4336C6.49414 13.8281 6.39258 14.1914 6.24023 14.5234C6.08789 14.8516 5.88867 15.1348 5.64258 15.373C5.40039 15.6074 5.11133 15.791 4.77539 15.9238C4.44336 16.0527 4.07227 16.1172 3.66211 16.1172C3.31055 16.1172 2.99023 16.0684 2.70117 15.9707C2.41602 15.8691 2.16016 15.7305 1.93359 15.5547C1.71094 15.3789 1.51758 15.1719 1.35352 14.9336C1.19336 14.6953 1.05859 14.4355 0.949219 14.1543C0.84375 13.873 0.763672 13.5781 0.708984 13.2695C0.658203 12.9609 0.630859 12.6484 0.626953 12.332V11.1426C0.630859 10.8262 0.658203 10.5137 0.708984 10.2051C0.763672 9.89648 0.84375 9.60156 0.949219 9.32031C1.05859 9.03906 1.19336 8.7793 1.35352 8.54102C1.51758 8.29883 1.71094 8.08984 1.93359 7.91406C2.16016 7.73828 2.41602 7.60156 2.70117 7.50391C2.98633 7.40234 3.30664 7.35156 3.66211 7.35156C4.08789 7.35156 4.46875 7.41797 4.80469 7.55078C5.14062 7.67969 5.42969 7.86523 5.67188 8.10742C5.91406 8.3457 6.10742 8.63281 6.25195 8.96875C6.40039 9.30469 6.49805 9.67578 6.54492 10.082H5.46094C5.42578 9.82422 5.36523 9.58398 5.2793 9.36133C5.19336 9.13867 5.07812 8.94336 4.93359 8.77539C4.78906 8.60742 4.61133 8.47656 4.40039 8.38281C4.19336 8.28516 3.94727 8.23633 3.66211 8.23633C3.4043 8.23633 3.17578 8.2793 2.97656 8.36523C2.78125 8.44727 2.61133 8.56055 2.4668 8.70508C2.32617 8.84961 2.20703 9.01758 2.10938 9.20898C2.01562 9.40039 1.93945 9.60352 1.88086 9.81836C1.82227 10.0332 1.7793 10.2539 1.75195 10.4805C1.72852 10.7031 1.7168 10.9199 1.7168 11.1309V12.332C1.7168 12.543 1.72852 12.7617 1.75195 12.9883C1.7793 13.2109 1.82227 13.4316 1.88086 13.6504C1.93945 13.8652 2.01562 14.0684 2.10938 14.2598C2.20312 14.4512 2.32227 14.6211 2.4668 14.7695C2.61133 14.9141 2.78125 15.0293 2.97656 15.1152C3.17188 15.1973 3.40039 15.2383 3.66211 15.2383C3.94727 15.2383 4.19336 15.1934 4.40039 15.1035C4.61133 15.0137 4.78906 14.8887 4.93359 14.7285C5.07812 14.5645 5.19336 14.373 5.2793 14.1543C5.36523 13.9316 5.42578 13.6914 5.46094 13.4336H6.54492ZM8.12109 15.1152C8.28906 15.0918 8.42969 15.0039 8.54297 14.8516C8.66016 14.6953 8.75586 14.4844 8.83008 14.2188C8.9043 13.9531 8.96289 13.6367 9.00586 13.2695C9.05273 12.9023 9.08984 12.4922 9.11719 12.0391L9.21094 9.66016H13.2949V15.1152H14.1094L14.0039 17.8633H13.0254V16H8.60156V17.8633H7.62891L7.52344 15.1152H8.12109ZM10.2012 12.0391C10.1816 12.3672 10.1562 12.6797 10.125 12.9766C10.0977 13.2734 10.0625 13.5527 10.0195 13.8145C9.97656 14.0723 9.92188 14.3105 9.85547 14.5293C9.79297 14.748 9.71484 14.9434 9.62109 15.1152H12.2109V10.6621H10.2539L10.2012 12.0391ZM18.2344 16.1172C17.7891 16.1172 17.3789 16.041 17.0039 15.8887C16.6328 15.7363 16.3145 15.5234 16.0488 15.25C15.7832 14.9766 15.5762 14.6523 15.4277 14.2773C15.2793 13.9023 15.2051 13.4941 15.2051 13.0527V12.8066C15.2051 12.2949 15.2871 11.8379 15.4512 11.4355C15.6152 11.0293 15.832 10.6875 16.1016 10.4102C16.375 10.1289 16.6836 9.91406 17.0273 9.76562C17.375 9.61719 17.7305 9.54297 18.0938 9.54297C18.5508 9.54297 18.9492 9.62305 19.2891 9.7832C19.6328 9.93945 19.918 10.1582 20.1445 10.4395C20.3711 10.7168 20.5391 11.0449 20.6484 11.4238C20.7617 11.8027 20.8184 12.2129 20.8184 12.6543V13.1406H16.2891C16.3008 13.4297 16.3555 13.7012 16.4531 13.9551C16.5547 14.209 16.6914 14.4316 16.8633 14.623C17.0391 14.8105 17.248 14.959 17.4902 15.0684C17.7324 15.1777 18 15.2324 18.293 15.2324C18.6797 15.2324 19.0234 15.1543 19.3242 14.998C19.625 14.8418 19.875 14.6348 20.0742 14.377L20.7363 14.8926C20.6309 15.0527 20.498 15.207 20.3379 15.3555C20.1816 15.5 20 15.6289 19.793 15.7422C19.5859 15.8555 19.3516 15.9453 19.0898 16.0117C18.8281 16.082 18.543 16.1172 18.2344 16.1172ZM18.0938 10.4336C17.875 10.4336 17.668 10.4746 17.4727 10.5566C17.2773 10.6348 17.1016 10.752 16.9453 10.9082C16.7891 11.0605 16.6562 11.25 16.5469 11.4766C16.4414 11.6992 16.3672 11.957 16.3242 12.25H19.7344V12.168C19.7227 11.957 19.6816 11.748 19.6113 11.541C19.5449 11.334 19.4453 11.1484 19.3125 10.9844C19.1797 10.8203 19.0117 10.6875 18.8086 10.5859C18.6094 10.4844 18.3711 10.4336 18.0938 10.4336ZM27.8438 9.66016V16H26.7539V10.5566H24.4219L24.416 12.373C24.416 12.9512 24.3809 13.4648 24.3105 13.9141C24.2402 14.3633 24.123 14.7422 23.959 15.0508C23.7949 15.3594 23.5742 15.5957 23.2969 15.7598C23.0195 15.9199 22.6738 16 22.2598 16H21.9434L21.9609 15.0332L22.2012 15.0273C22.4238 15.0273 22.6074 14.9727 22.752 14.8633C22.9004 14.75 23.0156 14.584 23.0977 14.3652C23.1836 14.1426 23.2422 13.8652 23.2734 13.5332C23.3086 13.2012 23.3262 12.8145 23.3262 12.373L23.3379 9.66016H27.8438ZM34.0137 16C33.9707 15.918 33.9355 15.8164 33.9082 15.6953C33.8848 15.5703 33.8672 15.4414 33.8555 15.3086C33.7461 15.418 33.623 15.5215 33.4863 15.6191C33.3535 15.7168 33.2051 15.8027 33.041 15.877C32.8809 15.9512 32.709 16.0098 32.5254 16.0527C32.3418 16.0957 32.1465 16.1172 31.9395 16.1172C31.6035 16.1172 31.2988 16.0684 31.0254 15.9707C30.7559 15.873 30.5254 15.7422 30.334 15.5781C30.1465 15.4102 30 15.2129 29.8945 14.9863C29.793 14.7559 29.7422 14.5078 29.7422 14.2422C29.7422 13.8945 29.8105 13.5898 29.9473 13.3281C30.0879 13.0664 30.2852 12.8496 30.5391 12.6777C30.793 12.502 31.0977 12.3711 31.4531 12.2852C31.8125 12.1992 32.2129 12.1562 32.6543 12.1562H33.8379V11.6582C33.8379 11.4668 33.8027 11.2949 33.7324 11.1426C33.6621 10.9902 33.5625 10.8613 33.4336 10.7559C33.3047 10.6465 33.1465 10.5625 32.959 10.5039C32.7754 10.4453 32.5684 10.416 32.3379 10.416C32.123 10.416 31.9297 10.4434 31.7578 10.498C31.5898 10.5527 31.4473 10.625 31.3301 10.7148C31.2129 10.8047 31.1211 10.9121 31.0547 11.0371C30.9922 11.1582 30.9609 11.2852 30.9609 11.418H29.8711C29.875 11.1875 29.9336 10.9609 30.0469 10.7383C30.1641 10.5156 30.3301 10.3164 30.5449 10.1406C30.7637 9.96094 31.0273 9.81641 31.3359 9.70703C31.6484 9.59766 32.002 9.54297 32.3965 9.54297C32.7559 9.54297 33.0898 9.58789 33.3984 9.67773C33.707 9.76367 33.9727 9.89648 34.1953 10.0762C34.4219 10.252 34.5996 10.4727 34.7285 10.7383C34.8574 11.0039 34.9219 11.3145 34.9219 11.6699V14.6172C34.9219 14.8281 34.9414 15.0527 34.9805 15.291C35.0195 15.5254 35.0742 15.7305 35.1445 15.9062V16H34.0137ZM32.0977 15.1738C32.3086 15.1738 32.5059 15.1465 32.6895 15.0918C32.873 15.0371 33.0391 14.9648 33.1875 14.875C33.3398 14.7852 33.4707 14.6836 33.5801 14.5703C33.6895 14.4531 33.7754 14.332 33.8379 14.207V12.9238H32.8301C32.1973 12.9238 31.7051 13.0176 31.3535 13.2051C31.002 13.3926 30.8262 13.6875 30.8262 14.0898C30.8262 14.2461 30.8516 14.3906 30.9023 14.5234C30.957 14.6562 31.0371 14.7715 31.1426 14.8691C31.248 14.9629 31.3809 15.0371 31.541 15.0918C31.7012 15.1465 31.8867 15.1738 32.0977 15.1738ZM42.2637 16H41.1797V13.293H38.0859V16H37.002V9.66016H38.0859V12.4082H41.1797V9.66016H42.2637V16ZM43.957 12.7715C43.957 12.3145 44.0234 11.8906 44.1562 11.5C44.2891 11.1055 44.4785 10.7637 44.7246 10.4746C44.9746 10.1855 45.2773 9.95898 45.6328 9.79492C45.9883 9.62695 46.3887 9.54297 46.834 9.54297C47.2832 9.54297 47.6855 9.62695 48.041 9.79492C48.4004 9.95898 48.7031 10.1855 48.9492 10.4746C49.1992 10.7637 49.3906 11.1055 49.5234 11.5C49.6562 11.8906 49.7227 12.3145 49.7227 12.7715V12.9004C49.7227 13.3574 49.6562 13.7812 49.5234 14.1719C49.3906 14.5625 49.1992 14.9023 48.9492 15.1914C48.7031 15.4805 48.4023 15.707 48.0469 15.8711C47.6914 16.0352 47.291 16.1172 46.8457 16.1172C46.3965 16.1172 45.9922 16.0352 45.6328 15.8711C45.2773 15.707 44.9746 15.4805 44.7246 15.1914C44.4785 14.9023 44.2891 14.5625 44.1562 14.1719C44.0234 13.7812 43.957 13.3574 43.957 12.9004V12.7715ZM45.041 12.9004C45.041 13.2129 45.0781 13.5117 45.1523 13.7969C45.2266 14.0781 45.3379 14.3262 45.4863 14.541C45.6387 14.7559 45.8281 14.9258 46.0547 15.0508C46.2812 15.1758 46.5449 15.2383 46.8457 15.2383C47.1426 15.2383 47.4023 15.1758 47.625 15.0508C47.8516 14.9258 48.0391 14.7559 48.1875 14.541C48.3398 14.3262 48.4531 14.0781 48.5273 13.7969C48.6016 13.5117 48.6387 13.2129 48.6387 12.9004V12.7715C48.6387 12.4629 48.5996 12.168 48.5215 11.8867C48.4473 11.6016 48.334 11.3516 48.1816 11.1367C48.0332 10.9219 47.8457 10.752 47.6191 10.627C47.3965 10.498 47.1348 10.4336 46.834 10.4336C46.5332 10.4336 46.2715 10.498 46.0488 10.627C45.8262 10.752 45.6387 10.9219 45.4863 11.1367C45.3379 11.3516 45.2266 11.6016 45.1523 11.8867C45.0781 12.168 45.041 12.4629 45.041 12.7715V12.9004ZM58.6172 16V9.66016H61.1074C61.498 9.66016 61.8535 9.69531 62.1738 9.76562C62.4941 9.83594 62.7676 9.94141 62.9941 10.082C63.2246 10.2227 63.4004 10.4023 63.5215 10.6211C63.6465 10.8398 63.709 11.0996 63.709 11.4004C63.709 11.7012 63.6211 11.9668 63.4453 12.1973C63.2695 12.4277 63.0137 12.6055 62.6777 12.7305C62.8809 12.7773 63.0605 12.8496 63.2168 12.9473C63.373 13.041 63.5039 13.1523 63.6094 13.2812C63.7188 13.4102 63.8008 13.5527 63.8555 13.709C63.9102 13.8652 63.9375 14.0293 63.9375 14.2012C63.9375 14.502 63.8809 14.7656 63.7676 14.9922C63.6543 15.2148 63.4922 15.4023 63.2812 15.5547C63.0703 15.7031 62.8145 15.8145 62.5137 15.8887C62.2168 15.9629 61.8828 16 61.5117 16H58.6172ZM59.707 13.2168V15.127H61.5117C61.9492 15.127 62.2812 15.0449 62.5078 14.8809C62.7344 14.7168 62.8477 14.4785 62.8477 14.166C62.8477 13.8613 62.7324 13.627 62.502 13.4629C62.2754 13.2988 61.9453 13.2168 61.5117 13.2168H59.707ZM59.707 12.3496H61.1191C61.6035 12.3496 61.9746 12.2773 62.2324 12.1328C62.4941 11.9883 62.625 11.7637 62.625 11.459C62.625 11.1426 62.4922 10.9102 62.2266 10.7617C61.9648 10.6133 61.5918 10.5391 61.1074 10.5391H59.707V12.3496Z" fill="#898989"/>
<g clip-path="url(#clip0)">
<path d="M89.2002 22.8455L89.9479 21.4727V22.8455H89.2002Z" fill="#0029FF"/>
<path d="M89.9479 13.627V14.9998L89.2002 13.627H89.9479Z" fill="#0029FF"/>
<path d="M83.9066 20.5353C84.1471 20.2949 84.3707 20.0545 84.5774 19.814C84.9768 19.3248 85.3256 18.7964 85.6185 18.2368C85.3191 17.7164 85.0773 17.165 84.8972 16.5923C84.8139 16.3136 84.7473 16.0302 84.6976 15.7436C84.646 15.4657 84.6138 15.1845 84.6015 14.9021C84.5768 14.4325 84.6042 13.9616 84.6832 13.498C84.7612 13.5276 84.8417 13.5502 84.9236 13.5654C84.9496 13.5765 84.9772 13.583 85.0054 13.5846C85.0006 13.9792 85.0311 14.3735 85.0968 14.7627C85.1669 15.16 85.2698 15.5508 85.4045 15.9312C85.8036 16.7029 86.2364 17.4675 86.6499 18.2368C86.2268 19.0038 85.8228 19.7756 85.3829 20.5401C85.0842 20.9257 84.7623 21.2926 84.4188 21.6389C84.0558 21.9951 83.6703 22.3275 83.2647 22.6342C83.118 22.6126 82.9738 22.5741 82.8271 22.5381C82.4198 22.4451 82.0184 22.3279 81.625 22.187C82.1569 21.906 82.663 21.5786 83.1373 21.2085C83.408 21.0009 83.665 20.7761 83.9066 20.5353Z" fill="#0029FF"/>
<path d="M85.3484 22.412C85.3706 22.3891 85.3915 22.365 85.4109 22.3398L85.4494 22.2701L85.7643 21.6931L86.3918 20.5414L87.6493 18.2358L86.3918 15.9301L85.7643 14.7784L85.4494 14.2014L85.4109 14.1317C85.4109 14.1053 85.3989 14.0812 85.3917 14.0572L85.3628 13.9081C85.346 13.8119 85.3292 13.7134 85.3171 13.6172H85.4013H86.1514L88.6663 18.2358L86.1514 22.8399H85.3773H84.9541L85.221 22.5634L85.3484 22.412Z" fill="#0029FF"/>
<path d="M87.168 22.8449L89.6804 18.2359L87.168 13.627H88.1826L89.9473 16.8631V19.6088L88.1826 22.8449H87.168Z" fill="#0029FF"/>
<path d="M81.7549 17.1696C81.8453 15.5149 82.5103 13.9436 83.635 12.7266C83.7032 12.817 83.777 12.9029 83.8562 12.9838C82.9226 14.353 82.4973 16.0056 82.6541 17.6553C81.1079 18.7992 79.2487 19.4427 77.3262 19.4994C76.9283 19.0948 76.5595 18.6625 76.2227 18.2059C78.1293 18.4331 80.0597 18.0715 81.7549 17.1696Z" fill="#0029FF"/>
<path d="M84.098 13.1924C84.1387 13.2292 84.1839 13.2608 84.2326 13.2861C84.2831 13.3102 84.324 13.3487 84.3721 13.3703C84.2035 13.8983 84.1001 14.4449 84.0643 14.998C84.0475 15.2838 84.0475 15.5704 84.0643 15.8563C84.0846 16.145 84.1207 16.4323 84.1725 16.717C84.216 16.9656 84.2746 17.2113 84.348 17.4527C84.4202 17.6932 84.5043 17.9336 84.6005 18.174C84.449 18.3808 84.2879 18.5876 84.1196 18.7919C83.9455 18.9991 83.7593 19.1958 83.5619 19.381C83.3214 19.5997 83.081 19.8137 82.8141 20.0229C82.5464 20.226 82.2679 20.4147 81.9798 20.5879C81.3719 20.9579 80.7274 21.2641 80.0564 21.5015C79.804 21.3693 79.5756 21.2178 79.3207 21.0712C79.078 20.9253 78.8443 20.7647 78.6211 20.5903C80.5137 20.2557 82.2578 19.3476 83.6171 17.9889C83.2105 16.3831 83.3806 14.6855 84.098 13.1924Z" fill="#0029FF"/>
<path d="M76.3533 15.7692C77.623 16.0798 78.9458 16.1053 80.2266 15.8437C80.6362 14.7374 81.3087 13.7473 82.186 12.9586C82.361 12.8025 82.544 12.6557 82.7342 12.5186C82.9313 12.3816 83.1309 12.2566 83.3305 12.1436C83.3484 12.1817 83.3637 12.2211 83.3761 12.2614C83.3882 12.2998 83.4146 12.3311 83.429 12.3672C83.4435 12.4032 83.4531 12.42 83.4651 12.4465C82.1684 13.4809 81.2758 14.9376 80.943 16.5626C79.1314 17.2064 77.1657 17.2777 75.3122 16.7669L75.1151 16.3654C75.0261 16.1755 74.93 15.988 74.853 15.7932L74.6318 15.2042C74.9203 15.3244 75.2041 15.4446 75.4878 15.5312C75.7715 15.6177 76.0672 15.7019 76.3533 15.7692Z" fill="#0029FF"/>
<path d="M78.7158 10.1487C79.8334 9.7792 81.024 9.68679 82.1852 9.87938C82.4256 9.92025 82.6444 9.97074 82.8704 10.0333C83.0964 10.0958 83.3224 10.1775 83.5388 10.2737C83.5183 10.3086 83.4958 10.3423 83.4714 10.3747C83.4522 10.4107 83.4402 10.4492 83.421 10.4853C83.4017 10.5213 83.3969 10.5357 83.3825 10.5598C81.7695 10.1897 80.0777 10.4008 78.6052 11.156C76.9663 10.1468 75.6798 8.6553 74.9219 6.88608L75.1142 6.49178C75.2056 6.30424 75.2945 6.11431 75.3955 5.93158L75.7201 5.39062C75.8042 5.69116 75.8956 5.98207 75.9966 6.26097C76.0976 6.53986 76.237 6.82356 76.3524 7.08803C76.9063 8.2692 77.7131 9.31409 78.7158 10.1487Z" fill="#0029FF"/>
<path d="M78.6372 12.1707C79.9849 11.2026 81.6296 10.738 83.2847 10.858C83.2568 10.9624 83.2351 11.0684 83.2197 11.1753C81.5691 11.3119 80.0169 12.0162 78.8271 13.1685C76.9698 12.6774 75.3054 11.6335 74.0547 10.1752C74.1206 9.60739 74.2267 9.04499 74.3721 8.49219C75.3842 10.1257 76.8728 11.4095 78.6372 12.1707Z" fill="#0029FF"/>
<path d="M83.2107 11.5117C83.2107 11.567 83.2107 11.6247 83.2107 11.6776C83.2223 11.7315 83.2303 11.7861 83.2348 11.8411C82.1751 12.2425 81.2335 12.9039 80.4963 13.7645C80.3297 13.9557 80.1732 14.1556 80.0275 14.3632C79.8856 14.5699 79.7486 14.7863 79.6212 15.0147C79.3615 15.0292 79.0946 15.034 78.823 15.0147C78.5513 14.9955 78.294 14.9763 78.0223 14.9426C76.6551 14.7509 75.344 14.2715 74.1755 13.5361C74.1274 13.2548 74.0866 12.9735 74.0481 12.6922C74.0096 12.4109 74.0168 12.1513 74 11.8675C75.4456 13.1305 77.244 13.9194 79.1523 14.1276C80.1584 12.8087 81.5941 11.8833 83.2107 11.5117Z" fill="#0029FF"/>
<path d="M80.588 6.60742C82.1858 7.05222 83.5769 8.04343 84.519 9.40839C84.4717 9.43644 84.4218 9.45979 84.3699 9.47811C84.3242 9.50455 84.281 9.54062 84.2305 9.56466C83.0954 8.35731 81.5738 7.58502 79.9293 7.38159C79.1512 5.62536 78.9281 3.67339 79.2897 1.78687C79.5302 1.64021 79.7706 1.48874 80.023 1.35411C80.2755 1.21947 80.5327 1.11368 80.79 0.981445C80.1471 2.79164 80.0766 4.75579 80.588 6.60742Z" fill="#0029FF"/>
<path d="M83.9643 9.76203C83.9258 9.8029 83.8825 9.83656 83.8417 9.87262C83.8008 9.90869 83.7695 9.95918 83.7311 9.99765C82.7487 9.42693 81.6401 9.10888 80.5046 9.072C80.2641 9.072 79.9949 9.072 79.7448 9.072C79.4948 9.072 79.2399 9.12009 78.9803 9.16096C78.8072 8.96862 78.6389 8.76426 78.4754 8.54787C78.3143 8.33149 78.1724 8.1103 78.0306 7.87468C77.3266 6.69014 76.8809 5.37022 76.7227 4.00141C76.9102 3.78984 77.1001 3.58067 77.2949 3.3739C77.4896 3.16713 77.7084 2.98681 77.9176 2.79688C77.8419 4.71515 78.3536 6.61082 79.3842 8.23051C81.0428 8.19115 82.663 8.73291 83.9643 9.76203Z" fill="#0029FF"/>
<path d="M89.9479 3.23535V5.98102L89.2002 4.60819L89.9479 3.23535Z" fill="#0029FF"/>
<path d="M83.1359 1.63714C82.9844 1.9521 82.8522 2.26705 82.7368 2.5772C82.6263 2.89263 82.5324 3.21364 82.4555 3.53891C82.3057 4.15229 82.2251 4.78051 82.2151 5.41183C82.7169 5.74149 83.1778 6.1297 83.5879 6.56828C83.7848 6.77805 83.9686 6.99966 84.1385 7.23186C84.3043 7.46341 84.4569 7.70423 84.5953 7.95314C84.7108 8.15985 84.8136 8.37343 84.903 8.59267C84.9948 8.80702 85.0751 9.02612 85.1435 9.24903L85.0233 9.26827C84.9836 9.26883 84.9444 9.27699 84.9079 9.29231L84.8189 9.30433C84.0995 7.80803 82.8727 6.61535 81.3568 5.93836C81.1245 4.03291 81.4846 2.10215 82.3882 0.40856L82.8234 0.297964C83.0268 0.245265 83.2331 0.204325 83.4413 0.175346L84.064 0.0839844C83.8836 0.338836 83.7153 0.596092 83.5591 0.853348C83.4039 1.10673 83.2626 1.36838 83.1359 1.63714Z" fill="#0029FF"/>
<path d="M87.168 4.60897L89.6804 0H89.9473V1.37283L88.1826 4.60897L89.9473 7.8451V9.21794H89.6804L87.168 4.60897Z" fill="#0029FF"/>
<path d="M88.6647 9.21794H87.6477L85.1328 4.62339C85.9719 3.05822 86.8086 1.54354 87.6477 0H88.6647L86.1498 4.60897L88.6647 9.21794Z" fill="#0029FF"/>
<path d="M84.6385 3.4958C84.4372 3.89521 84.266 4.30909 84.1264 4.73399C84.3933 5.06697 84.6344 5.41981 84.8477 5.78946C85.0518 6.15079 85.2286 6.52691 85.3766 6.91465C85.7805 7.69363 86.2181 8.45098 86.6316 9.21794H85.617C85.5449 9.0833 85.4631 8.94866 85.4006 8.81402C85.3381 8.67938 85.3405 8.55196 85.2997 8.41491C85.1484 7.87042 84.9295 7.34702 84.6481 6.85695C84.5045 6.60196 84.3439 6.35697 84.1672 6.12365C83.864 5.71408 83.52 5.33628 83.1406 4.99605C83.2251 4.46764 83.362 3.94896 83.5494 3.44771C83.6588 3.13954 83.7889 2.83912 83.9388 2.54852C84.0895 2.24449 84.2556 1.94838 84.4365 1.66134C84.6241 1.38405 84.8316 1.10436 85.0592 0.822257C85.1698 0.68281 85.2828 0.543363 85.4006 0.403916C85.5184 0.264469 85.5401 0.134639 85.617 0H86.6316C86.2085 0.769364 85.8046 1.53392 85.3646 2.30569C85.0974 2.68648 84.8548 3.08399 84.6385 3.4958Z" fill="#0029FF"/>
<path d="M136.211 12.9503C136.208 13.27 136.078 13.5754 135.851 13.8004C135.624 14.0253 135.317 14.1518 134.997 14.1524H132.937C132.617 14.1524 132.309 14.0263 132.082 13.8012C131.854 13.5762 131.724 13.2704 131.72 12.9503V7.61523H130.484V12.9503C130.485 13.5539 130.725 14.1327 131.152 14.5596C131.579 14.9864 132.158 15.2265 132.761 15.2271H135.165C135.769 15.2265 136.348 14.9865 136.776 14.5597C137.203 14.1329 137.443 13.5542 137.445 12.9503V7.61523H136.207L136.211 12.9503Z" fill="#0029FF"/>
<path d="M112.324 12.9493V7.61426H111.086V12.9493C111.087 13.5532 111.328 14.1319 111.755 14.5587C112.182 14.9855 112.761 15.2255 113.365 15.2261H116.796V14.1635H113.538C113.216 14.1628 112.908 14.0347 112.68 13.8071C112.453 13.5796 112.325 13.2711 112.324 12.9493Z" fill="#0029FF"/>
<path d="M172.258 12.9493V7.61426H171.02V12.9493C171.021 13.5528 171.261 14.1312 171.688 14.5579C172.115 14.9846 172.693 15.2249 173.296 15.2261H176.725V14.1635H173.472C173.15 14.1628 172.842 14.0347 172.614 13.8071C172.386 13.5796 172.258 13.2711 172.258 12.9493Z" fill="#0029FF"/>
<path d="M181.744 14.1635C181.425 14.1629 181.118 14.0364 180.891 13.8114C180.663 13.5864 180.534 13.2811 180.53 12.9613V7.61426H179.292V12.9493C179.293 13.5532 179.534 14.1319 179.961 14.5587C180.388 14.9855 180.967 15.2255 181.571 15.2261H185V14.1635H181.744Z" fill="#0029FF"/>
<path d="M160.505 7.41012C160.235 7.39986 159.968 7.47363 159.741 7.6213C159.514 7.76897 159.339 7.98328 159.238 8.23478V8.24921L158.402 10.7713L157.635 13.0986C157.63 13.1123 157.621 13.124 157.609 13.1318C157.596 13.1397 157.582 13.1432 157.568 13.1419C157.553 13.1431 157.539 13.1395 157.527 13.1316C157.516 13.1237 157.507 13.1121 157.503 13.0986L156.733 10.7713L155.901 8.24921V8.23478C155.802 7.98347 155.627 7.76924 155.4 7.62156C155.174 7.47388 154.907 7.40001 154.637 7.41012C153.952 7.41012 153.216 7.81885 153.216 8.72285V15.2264H154.452V8.73487C154.452 8.56898 154.507 8.49444 154.61 8.49444H154.649H154.673L154.687 8.50647C154.694 8.51271 154.7 8.52002 154.704 8.5281C154.712 8.53947 154.72 8.55154 154.726 8.56417C154.733 8.57649 154.739 8.58935 154.745 8.60263L154.759 8.63149L154.812 8.79498L156.526 13.8656C156.624 14.0569 156.774 14.2164 156.96 14.325C157.145 14.4336 157.358 14.487 157.572 14.4786C157.787 14.4868 158 14.4335 158.186 14.3249C158.371 14.2163 158.522 14.0569 158.621 13.8656L160.335 8.79498L160.388 8.63149C160.389 8.62189 160.389 8.61223 160.388 8.60263L160.407 8.56417C160.413 8.55154 160.42 8.53947 160.429 8.5281L160.445 8.50647L160.46 8.49444H160.486H160.522C160.628 8.49444 160.681 8.57859 160.681 8.73487V15.2264H161.919V8.73487C161.926 7.81885 161.188 7.41012 160.505 7.41012Z" fill="#0029FF"/>
<path d="M167.09 7.61523H165.852V15.2295H167.09V7.61523Z" fill="#0029FF"/>
<path d="M126.62 10.1676V10.0522C126.629 9.77818 126.597 9.50439 126.526 9.23954C126.387 8.76926 126.099 8.35681 125.705 8.06386C125.312 7.7709 124.834 7.61318 124.343 7.61426H121.699C121.388 7.61617 121.08 7.68106 120.795 7.80503C120.51 7.929 120.253 8.10947 120.04 8.33554C119.419 8.99431 119.419 9.7781 119.419 10.5475V12.8387C119.401 13.3714 119.567 13.894 119.89 14.3185C120.212 14.7429 120.671 15.0431 121.189 15.1684C121.449 15.219 121.715 15.2383 121.98 15.2261H123.624H123.959C124.544 15.2664 125.128 15.1244 125.63 14.8198C125.897 14.634 126.122 14.3938 126.29 14.1149C126.457 13.8361 126.564 13.5249 126.603 13.2018C126.621 13.018 126.626 12.8333 126.62 12.6488V10.1676ZM120.658 11.0379C120.658 10.6869 120.658 10.2902 120.658 9.90312C120.662 9.57991 120.792 9.27116 121.021 9.0426C121.249 8.81404 121.558 8.68371 121.881 8.67935C122.083 8.67935 122.288 8.67935 122.492 8.67935H123.112H123.733H123.872C124.098 8.66376 124.324 8.68487 124.543 8.74186C124.651 8.77863 124.754 8.82957 124.848 8.89333L120.672 13.0695C120.662 12.952 120.658 12.834 120.66 12.7161V11.6101C120.662 11.4202 120.66 11.2279 120.658 11.0379ZM125.394 12.192C125.413 12.757 125.435 13.3941 125.072 13.7595C124.694 14.1707 124.201 14.1683 123.629 14.1635H122.115C121.927 14.1747 121.738 14.1602 121.554 14.1202C121.45 14.0891 121.349 14.0447 121.256 13.988L125.384 9.85744V11.8193C125.384 11.9395 125.389 12.0645 125.394 12.192Z" fill="#0029FF"/>
<path d="M105.275 7.61719H102.828C102.224 7.61782 101.645 7.85791 101.218 8.28476C100.792 8.71161 100.551 9.29037 100.551 9.89403V12.9498C100.551 13.5541 100.791 14.1338 101.217 14.5615C101.644 14.9893 102.223 15.2302 102.828 15.2315H107.552V14.164H103.003C102.683 14.164 102.376 14.0378 102.148 13.8128C101.92 13.5878 101.79 13.282 101.787 12.9619V9.89403C101.79 9.57388 101.92 9.26814 102.148 9.0431C102.376 8.81806 102.683 8.69187 103.003 8.69189H105.1C105.42 8.69187 105.727 8.81806 105.955 9.0431C106.183 9.26814 106.312 9.57388 106.316 9.89403V10.6634H107.552V9.89403C107.551 9.29037 107.311 8.71161 106.884 8.28476C106.458 7.85791 105.879 7.61782 105.275 7.61719Z" fill="#0029FF"/>
<path d="M148.635 9.88891C148.635 9.80476 148.635 9.72302 148.623 9.64849C148.622 9.63811 148.622 9.62761 148.623 9.61723C148.614 9.54449 148.601 9.47227 148.585 9.40085C148.586 9.39451 148.586 9.38795 148.585 9.38161C148.569 9.30732 148.548 9.23421 148.522 9.16282C148.522 9.16282 148.522 9.14119 148.522 9.13157L148.474 9.00414L148.462 8.97529L148.44 8.93442V8.91759C148.407 8.84787 148.371 8.78295 148.332 8.71804L148.277 8.63629C148.233 8.56791 148.184 8.50209 148.133 8.43914L148.094 8.39587C148.059 8.35273 148.021 8.31178 147.981 8.27325L147.911 8.21074L147.861 8.16746C147.711 8.03901 147.546 7.9307 147.368 7.84529L147.32 7.82365C147.137 7.74182 146.943 7.68365 146.745 7.65054H146.69C146.589 7.63727 146.487 7.63005 146.385 7.62891H140.624V8.69159H141.559V15.2264H146.368C146.47 15.2256 146.572 15.2176 146.673 15.2023H146.728C146.927 15.1716 147.121 15.1133 147.303 15.0292L147.351 15.0076C147.528 14.9221 147.694 14.8147 147.844 14.6878L147.895 14.6421C147.919 14.6205 147.943 14.6037 147.964 14.582C147.986 14.5604 148.041 14.5003 148.077 14.4594C148.113 14.4185 148.104 14.4282 148.116 14.4137C148.168 14.352 148.216 14.287 148.26 14.219L148.315 14.1348C148.354 14.0699 148.39 14.005 148.424 13.9377V13.9185L148.445 13.8776L148.457 13.8487C148.474 13.8079 148.488 13.7646 148.505 13.7237C148.522 13.6828 148.505 13.7021 148.505 13.6925C148.531 13.621 148.552 13.5479 148.568 13.4737C148.569 13.4673 148.569 13.4608 148.568 13.4544C148.584 13.3822 148.597 13.3092 148.606 13.2356C148.605 13.2252 148.605 13.2148 148.606 13.2044C148.606 13.1226 148.618 13.0409 148.618 12.964V9.89132L148.635 9.88891ZM147.404 11.4974C147.404 11.8292 147.404 12.1706 147.404 12.4831V12.9495C147.403 13.2275 147.307 13.4968 147.132 13.7128C146.958 13.9288 146.714 14.0786 146.442 14.1372H146.421C146.347 14.1513 146.272 14.1594 146.197 14.1613H142.793V8.67716H146.19C146.265 8.6771 146.34 8.68435 146.414 8.6988H146.435C146.707 8.75664 146.951 8.90617 147.126 9.12237C147.301 9.33857 147.397 9.60832 147.397 9.88651V10.3529C147.397 10.6631 147.397 11.0069 147.397 11.3387L147.404 11.4974Z" fill="#0029FF"/>
</g>
<defs>
<clipPath id="clip0">
<rect x="74" width="111" height="22.8453" fill="white"/>
</clipPath>
</defs>
</svg>
