<svg width="240" height="240" viewBox="0 0 240 240" fill="none" xmlns="http://www.w3.org/2000/svg">
<circle r="119.5" transform="matrix(-1 0 0 1 120 120)" stroke="#0029FF"/>
<path d="M144.204 214.024L134.258 216.04L133.795 213.755L137.412 213.021L134.947 200.859L131.329 201.592L130.868 199.318L140.814 197.302L141.275 199.576L137.738 200.293L140.203 212.456L143.741 211.739L144.204 214.024Z" fill="#0029FF"/>
<path d="M117.226 203.592C117.207 203.997 117.276 204.357 117.433 204.669C117.582 204.989 117.807 205.273 118.108 205.522C118.401 205.771 118.758 205.991 119.18 206.183C119.592 206.383 120.045 206.569 120.537 206.741C121.199 206.968 121.851 207.241 122.493 207.561C123.127 207.881 123.691 208.26 124.187 208.698C124.674 209.143 125.064 209.651 125.358 210.22C125.643 210.797 125.769 211.452 125.734 212.185C125.699 212.919 125.512 213.567 125.172 214.13C124.824 214.7 124.375 215.175 123.825 215.555C123.275 215.936 122.644 216.219 121.931 216.404C121.219 216.589 120.48 216.663 119.715 216.627C118.896 216.588 118.137 216.423 117.439 216.132C116.733 215.848 116.126 215.463 115.617 214.977C115.1 214.499 114.701 213.933 114.419 213.278C114.137 212.631 114.01 211.921 114.039 211.148L116.849 211.282C116.867 211.713 116.942 212.107 117.074 212.465C117.197 212.831 117.386 213.149 117.639 213.419C117.884 213.689 118.191 213.903 118.558 214.061C118.926 214.22 119.356 214.31 119.848 214.334C120.269 214.354 120.662 214.318 121.026 214.226C121.39 214.133 121.71 213.988 121.985 213.79C122.253 213.592 122.468 213.348 122.63 213.058C122.793 212.769 122.883 212.437 122.9 212.062C122.919 211.664 122.835 211.312 122.646 211.006C122.457 210.708 122.203 210.441 121.886 210.207C121.569 209.973 121.203 209.764 120.789 209.58C120.368 209.404 119.93 209.238 119.476 209.084C118.776 208.839 118.109 208.545 117.476 208.202C116.843 207.867 116.291 207.47 115.82 207.009C115.349 206.557 114.982 206.039 114.721 205.455C114.459 204.872 114.346 204.213 114.381 203.48C114.417 202.723 114.608 202.063 114.956 201.501C115.303 200.939 115.755 200.475 116.312 200.111C116.87 199.746 117.508 199.479 118.228 199.31C118.947 199.149 119.693 199.087 120.466 199.123C120.989 199.148 121.505 199.224 122.015 199.35C122.525 199.475 123.014 199.651 123.48 199.877C123.939 200.102 124.364 200.372 124.756 200.688C125.147 201.012 125.485 201.376 125.771 201.781C126.049 202.193 126.262 202.645 126.411 203.137C126.559 203.637 126.623 204.179 126.603 204.765L123.782 204.631C123.767 204.114 123.676 203.66 123.507 203.269C123.337 202.877 123.103 202.545 122.803 202.273C122.503 202.009 122.149 201.8 121.742 201.648C121.326 201.503 120.865 201.418 120.358 201.394C119.936 201.374 119.54 201.406 119.168 201.49C118.797 201.574 118.47 201.707 118.187 201.889C117.904 202.079 117.678 202.315 117.508 202.596C117.338 202.885 117.244 203.217 117.226 203.592Z" fill="#0029FF"/>
<path d="M40.1345 172.71L34.9765 163.97L36.9848 162.785L38.861 165.964L49.5487 159.656L47.6725 156.477L49.6708 155.298L54.8288 164.038L52.8306 165.217L50.9961 162.109L40.3084 168.416L42.1429 171.525L40.1345 172.71Z" fill="#0029FF"/>
<path d="M39.2978 139.907C38.908 140.022 38.5912 140.204 38.3473 140.455C38.0937 140.701 37.8984 141.006 37.7616 141.372C37.6226 141.731 37.5312 142.14 37.4873 142.601C37.4338 143.056 37.4062 143.545 37.4047 144.066C37.4066 144.766 37.3614 145.471 37.2689 146.183C37.1743 146.886 37.001 147.544 36.749 148.155C36.4873 148.761 36.1355 149.296 35.6935 149.76C35.2418 150.218 34.6637 150.551 33.9591 150.758C33.2545 150.965 32.5808 150.999 31.938 150.863C31.2856 150.72 30.6896 150.452 30.1501 150.056C29.6106 149.661 29.1369 149.157 28.7289 148.544C28.3209 147.931 28.009 147.257 27.7933 146.523C27.5622 145.735 27.4701 144.965 27.5171 144.21C27.5545 143.45 27.7195 142.75 28.012 142.11C28.2949 141.465 28.6996 140.903 29.2263 140.422C29.7454 139.944 30.3749 139.592 31.1148 139.367L31.9073 142.066C31.506 142.224 31.1576 142.424 30.8621 142.666C30.5569 142.902 30.3181 143.184 30.1456 143.511C29.9708 143.831 29.8688 144.191 29.8396 144.59C29.8103 144.99 29.865 145.426 30.0037 145.898C30.1226 146.303 30.2851 146.662 30.4913 146.976C30.6975 147.29 30.9392 147.545 31.2165 147.74C31.4915 147.928 31.7924 148.051 32.119 148.11C32.4457 148.169 32.7889 148.146 33.1488 148.04C33.531 147.928 33.836 147.732 34.0636 147.454C34.2837 147.177 34.4525 146.851 34.5699 146.474C34.6874 146.098 34.7653 145.684 34.8039 145.233C34.8327 144.777 34.8459 144.309 34.8435 143.829C34.8456 143.088 34.9052 142.362 35.0223 141.652C35.1319 140.944 35.3273 140.292 35.6084 139.696C35.882 139.103 36.2516 138.587 36.7174 138.149C37.1831 137.711 37.7683 137.389 38.4729 137.182C39.2001 136.968 39.8861 136.934 40.531 137.078C41.176 137.223 41.7618 137.498 42.2885 137.905C42.8152 138.313 43.2762 138.829 43.6714 139.454C44.0591 140.081 44.3619 140.765 44.5798 141.507C44.7273 142.01 44.825 142.522 44.8728 143.046C44.9207 143.569 44.9143 144.088 44.8537 144.602C44.7909 145.109 44.6743 145.6 44.5039 146.073C44.326 146.549 44.0926 146.988 43.8037 147.39C43.505 147.787 43.1475 148.137 42.7312 148.438C42.3074 148.742 41.8155 148.98 41.2555 149.152L40.4597 146.442C40.9435 146.26 41.3426 146.024 41.657 145.737C41.9715 145.449 42.2084 145.119 42.3677 144.746C42.5195 144.376 42.6008 143.973 42.6116 143.539C42.6126 143.099 42.5416 142.635 42.3985 142.148C42.2797 141.743 42.1198 141.379 41.9189 141.055C41.7179 140.732 41.4853 140.466 41.2208 140.259C40.9489 140.054 40.6522 139.917 40.3308 139.848C40.002 139.782 39.6576 139.802 39.2978 139.907Z" fill="#0029FF"/>
<path d="M33.6242 117.02C34.6313 116.982 35.6042 117.074 36.5431 117.296C37.4741 117.518 38.3047 117.874 39.0347 118.362C39.7567 118.843 40.3432 119.461 40.7942 120.218C41.2372 120.967 41.4783 121.857 41.5176 122.888C41.5566 123.91 41.3797 124.808 40.987 125.582C40.5943 126.355 40.0564 127.009 39.3731 127.543C38.6817 128.07 37.8804 128.48 36.969 128.772C36.0573 129.057 35.0979 129.219 34.0908 129.257L31.9127 129.34C31.2413 129.366 30.5835 129.336 29.9392 129.252C29.2945 129.159 28.687 129.014 28.1166 128.817C27.5381 128.612 27.0044 128.355 26.5157 128.045C26.0189 127.728 25.5902 127.353 25.2298 126.922C24.869 126.482 24.5803 125.985 24.3637 125.43C24.1468 124.868 24.0254 124.247 23.9995 123.568C23.9602 122.537 24.1368 121.631 24.5292 120.85C24.9212 120.061 25.4627 119.395 26.1535 118.853C26.8364 118.311 27.6375 117.894 28.5567 117.6C29.4759 117.307 30.439 117.142 31.4461 117.103L33.6242 117.02ZM31.5303 119.926C30.8904 119.959 30.2564 120.041 29.6282 120.175C29 120.308 28.4449 120.513 27.9629 120.789C27.4731 121.066 27.0842 121.425 26.7961 121.866C26.4999 122.299 26.364 122.836 26.3884 123.476C26.4125 124.109 26.5887 124.63 26.9171 125.039C27.2373 125.442 27.652 125.758 28.1612 125.989C28.6701 126.212 29.2426 126.362 29.8788 126.439C30.507 126.509 31.1412 126.536 31.7817 126.519L33.9832 126.435C34.6231 126.403 35.2573 126.324 35.8857 126.199C36.5064 126.073 37.0659 125.88 37.5641 125.619C38.0542 125.35 38.4475 125.002 38.744 124.577C39.0402 124.143 39.1762 123.61 39.1521 122.978C39.1277 122.338 38.9513 121.813 38.623 121.403C38.2943 120.986 37.8753 120.658 37.3658 120.419C36.8563 120.181 36.2835 120.023 35.6473 119.945C35.0108 119.86 34.3723 119.826 33.7318 119.842L31.5303 119.926Z" fill="#0029FF"/>
<path d="M43.3902 61.8328L49.9626 54.1001L51.7395 55.6104L49.3489 58.4231L58.8049 66.4602L61.1955 63.6475L62.9635 65.1502L56.3912 72.8829L54.6232 71.3802L56.9607 68.63L47.5046 60.5929L45.1671 63.3431L43.3902 61.8328Z" fill="#0029FF"/>
<path d="M74.1163 50.3148C73.8807 49.9839 73.6045 49.7442 73.2878 49.5957C72.9728 49.4363 72.6201 49.3518 72.2296 49.3421C71.8455 49.328 71.4286 49.3755 70.9788 49.4847C70.531 49.5831 70.0603 49.7168 69.567 49.8859C68.9064 50.1166 68.225 50.3045 67.5227 50.4497C66.8269 50.5904 66.1488 50.6416 65.4886 50.6035C64.8303 50.5544 64.2097 50.3968 63.6271 50.1308C63.0462 49.8539 62.5428 49.4163 62.1168 48.8181C61.6908 48.2199 61.4374 47.5947 61.3566 46.9425C61.2777 46.2794 61.3367 45.6283 61.5338 44.9893C61.7309 44.3502 62.0524 43.7376 62.4982 43.1516C62.9441 42.5655 63.4788 42.0505 64.1025 41.6063C64.7707 41.1305 65.4691 40.7914 66.1978 40.589C66.9283 40.3757 67.6436 40.3027 68.3437 40.37C69.0456 40.4264 69.7097 40.6249 70.3358 40.9655C70.9575 41.2997 71.4958 41.7795 71.9508 42.405L69.6598 44.0365C69.3788 43.7091 69.0758 43.4453 68.751 43.245C68.4279 43.0339 68.0835 42.9003 67.7176 42.8444C67.358 42.7839 66.9847 42.8052 66.5977 42.9082C66.2106 43.0112 65.8167 43.2054 65.4157 43.4909C65.0721 43.7356 64.7856 44.0067 64.5563 44.3043C64.3271 44.6019 64.1654 44.9136 64.0714 45.2395C63.9837 45.5609 63.9656 45.8855 64.0169 46.2134C64.0682 46.5414 64.2026 46.8581 64.4201 47.1635C64.6512 47.4881 64.9356 47.7124 65.2733 47.8364C65.6064 47.954 65.9701 48.0067 66.3642 47.9946C66.7584 47.9824 67.1749 47.9208 67.6137 47.8098C68.0544 47.6878 68.5009 47.5472 68.9534 47.388C69.6549 47.1474 70.3604 46.9664 71.0698 46.8448C71.7748 46.7168 72.4546 46.6883 73.1093 46.7592C73.7595 46.8237 74.3677 47.0044 74.934 47.3012C75.5002 47.5981 75.9964 48.0457 76.4224 48.6439C76.8619 49.2612 77.1189 49.8982 77.1934 50.5549C77.2678 51.2116 77.1988 51.8554 76.9863 52.4863C76.7738 53.1172 76.4369 53.7216 75.9756 54.2994C75.5098 54.8709 74.9618 55.381 74.3318 55.8296C73.9055 56.1332 73.4528 56.3932 72.9739 56.6096C72.495 56.826 72.0025 56.9896 71.4965 57.1006C70.9968 57.2071 70.4954 57.2572 69.9923 57.251C69.4846 57.2385 68.9934 57.1615 68.5186 57.0201C68.0457 56.8677 67.5987 56.6441 67.1778 56.3492C66.7523 56.048 66.3664 55.661 66.0201 55.1883L68.3206 53.55C68.6516 53.9474 69.0044 54.2476 69.3792 54.4507C69.754 54.6537 70.1434 54.7696 70.5475 54.7984C70.9471 54.8207 71.3541 54.7659 71.7684 54.6339C72.1845 54.491 72.5994 54.2723 73.0131 53.9777C73.3567 53.733 73.6486 53.4628 73.8888 53.1671C74.129 52.8714 74.3038 52.5646 74.4133 52.2469C74.5182 51.9229 74.5504 51.5978 74.51 51.2717C74.4651 50.9392 74.3339 50.6203 74.1163 50.3148Z" fill="#0029FF"/>
<path d="M93.8885 37.4677C94.2541 38.4069 94.4855 39.3564 94.5825 40.3162C94.6768 41.2688 94.6126 42.1699 94.39 43.0195C94.1719 43.859 93.7791 44.6156 93.2114 45.2893C92.6482 45.9529 91.886 46.4718 90.9251 46.846C89.9714 47.2173 89.0649 47.3439 88.2057 47.2257C87.3464 47.1075 86.5526 46.8129 85.8243 46.3419C85.1005 45.8609 84.4512 45.2376 83.8764 44.472C83.309 43.7037 82.8425 42.8499 82.4768 41.9108L81.686 39.8796C81.4422 39.2535 81.2551 38.6222 81.1246 37.9855C81.0014 37.346 80.9396 36.7245 80.9394 36.121C80.9436 35.5073 81.0121 34.9189 81.145 34.3558C81.2823 33.7825 81.4961 33.2549 81.7863 32.773C82.0839 32.2883 82.4593 31.8529 82.9126 31.4668C83.3732 31.0779 83.9202 30.7601 84.5535 30.5135C85.5145 30.1394 86.4283 30.01 87.2948 30.1253C88.1686 30.2378 88.9747 30.5318 89.7131 31.0072C90.4487 31.4754 91.1053 32.0958 91.6829 32.8686C92.2604 33.6414 92.732 34.4974 93.0976 35.4366L93.8885 37.4677ZM90.4574 36.4394C90.2177 35.8452 89.9321 35.2732 89.6005 34.7232C89.269 34.1731 88.8938 33.7156 88.475 33.3505C88.0534 32.9781 87.5871 32.7279 87.0761 32.5998C86.5696 32.4617 86.0179 32.5088 85.4209 32.7413C84.8312 32.9709 84.3965 33.3078 84.1167 33.7521C83.8414 34.1862 83.678 34.6816 83.6264 35.2382C83.5822 35.792 83.6275 36.3822 83.7625 37.0088C83.9018 37.6252 84.0841 38.2333 84.3093 38.8331L85.1086 40.8861C85.3483 41.4803 85.6303 42.0538 85.9545 42.6066C86.2759 43.1522 86.6416 43.6176 87.0515 44.003C87.4659 44.3782 87.9227 44.6363 88.4219 44.7773C88.9284 44.9154 89.4765 44.8697 90.0662 44.6401C90.6632 44.4077 91.1015 44.0693 91.3813 43.625C91.6683 43.1779 91.8413 42.6747 91.9001 42.1152C91.9589 41.5557 91.9209 40.9627 91.7859 40.3362C91.6583 39.7068 91.4818 39.0922 91.2567 38.4924L90.4574 36.4394Z" fill="#0029FF"/>
<path d="M149.235 28.6486L158.692 32.3306L157.846 34.5038L154.406 33.1645L149.904 44.729L153.344 46.0683L152.502 48.2305L143.045 44.5485L143.887 42.3863L147.25 43.6958L151.753 32.1313L148.389 30.8217L149.235 28.6486Z" fill="#0029FF"/>
<path d="M170.169 53.9175C170.405 53.5866 170.541 53.2472 170.578 52.8993C170.625 52.5496 170.59 52.1886 170.471 51.8165C170.359 51.4488 170.178 51.0704 169.927 50.6811C169.688 50.29 169.408 49.889 169.087 49.4781C168.653 48.9292 168.252 48.3467 167.885 47.7306C167.525 47.119 167.255 46.495 167.075 45.8586C166.906 45.2204 166.852 44.5825 166.913 43.9449C166.984 43.3054 167.233 42.6866 167.659 42.0884C168.085 41.4902 168.593 41.0463 169.183 40.7566C169.784 40.4651 170.418 40.308 171.087 40.2852C171.755 40.2625 172.439 40.3659 173.139 40.5956C173.838 40.8253 174.5 41.1622 175.124 41.6063C175.792 42.0821 176.341 42.6313 176.77 43.2537C177.211 43.8742 177.514 44.5263 177.679 45.2099C177.855 45.8917 177.885 46.5842 177.768 47.2873C177.655 47.984 177.378 48.6497 176.936 49.2842L174.645 47.6528C174.862 47.2801 175.012 46.9075 175.095 46.5351C175.189 46.1608 175.203 45.7916 175.136 45.4275C175.076 45.0679 174.933 44.7221 174.71 44.39C174.486 44.058 174.173 43.7492 173.772 43.4637C173.429 43.219 173.079 43.0369 172.723 42.9175C172.366 42.7982 172.019 42.7474 171.68 42.7651C171.348 42.7874 171.035 42.8764 170.742 43.0321C170.449 43.1878 170.194 43.4184 169.976 43.7239C169.745 44.0484 169.626 44.3905 169.619 44.7502C169.617 45.1035 169.686 45.4644 169.826 45.8329C169.967 46.2014 170.161 46.5749 170.41 46.9532C170.669 47.3297 170.948 47.7058 171.247 48.0813C171.703 48.6656 172.105 49.273 172.452 49.9037C172.803 50.528 173.053 51.1611 173.2 51.803C173.352 52.4385 173.38 53.0724 173.284 53.7046C173.189 54.3369 172.928 54.9521 172.502 55.5503C172.063 56.1676 171.545 56.6188 170.949 56.9039C170.352 57.189 169.721 57.3343 169.056 57.3398C168.39 57.3453 167.709 57.2246 167.012 56.9777C166.319 56.7244 165.658 56.3734 165.028 55.9247C164.602 55.6211 164.208 55.2784 163.847 54.8966C163.486 54.5147 163.17 54.1029 162.9 53.661C162.636 53.2236 162.424 52.7662 162.266 52.2887C162.111 51.8049 162.024 51.3155 162.002 50.8205C161.991 50.3238 162.056 49.8283 162.197 49.334C162.343 48.8334 162.582 48.3422 162.916 47.8604L165.216 49.4986C164.949 49.9413 164.781 50.3729 164.711 50.7935C164.642 51.2141 164.66 51.62 164.765 52.0113C164.875 52.3962 165.059 52.7628 165.32 53.1112C165.591 53.4578 165.933 53.7783 166.347 54.0729C166.69 54.3176 167.041 54.5051 167.399 54.6353C167.757 54.7656 168.104 54.8305 168.44 54.83C168.781 54.8232 169.099 54.7473 169.394 54.6025C169.693 54.4513 169.952 54.223 170.169 53.9175Z" fill="#0029FF"/>
<path d="M188.776 68.4017C188.008 69.0544 187.186 69.5835 186.311 69.9892C185.441 70.3897 184.569 70.6238 183.693 70.6913C182.829 70.7598 181.985 70.6359 181.163 70.3198C180.352 70.0046 179.612 69.4541 178.944 68.6683C178.281 67.8885 177.865 67.0733 177.696 66.2226C177.527 65.372 177.545 64.5255 177.752 63.6832C177.97 62.8418 178.347 62.0244 178.882 61.2309C179.423 60.4434 180.077 59.7233 180.845 59.0706L182.506 57.659C183.018 57.2239 183.553 56.8405 184.112 56.509C184.676 56.1834 185.243 55.9218 185.814 55.7242C186.395 55.5275 186.973 55.3998 187.549 55.3412C188.136 55.2835 188.704 55.313 189.254 55.4297C189.81 55.5523 190.344 55.7647 190.857 56.0668C191.375 56.3749 191.854 56.7879 192.295 57.3057C192.962 58.0915 193.384 58.9127 193.558 59.7693C193.737 60.6318 193.723 61.4898 193.515 62.3431C193.314 63.1913 192.942 64.0147 192.401 64.8132C191.859 65.6118 191.205 66.3374 190.437 66.9901L188.776 68.4017ZM188.625 64.8229C189.109 64.4021 189.556 63.9451 189.967 63.4519C190.378 62.9588 190.688 62.4546 190.896 61.9394C191.11 61.4191 191.194 60.8966 191.148 60.3719C191.113 59.8481 190.888 59.3421 190.473 58.854C190.063 58.3718 189.603 58.0712 189.091 57.9521C188.591 57.8339 188.069 57.8415 187.527 57.9748C186.989 58.1141 186.446 58.3499 185.898 58.6824C185.361 59.0157 184.846 59.3868 184.353 59.7958L182.674 61.2226C182.191 61.6434 181.741 62.0974 181.325 62.5846C180.914 63.0668 180.594 63.5646 180.364 64.078C180.145 64.5923 180.05 65.1084 180.08 65.6262C180.115 66.1501 180.338 66.6531 180.748 67.1353C181.163 67.6234 181.626 67.927 182.137 68.0461C182.653 68.1711 183.186 68.1699 183.734 68.0425C184.282 67.9152 184.829 67.6853 185.377 67.3528C185.93 67.0264 186.454 66.6587 186.947 66.2497L188.625 64.8229Z" fill="#0029FF"/>
<path d="M215.211 117.821L214.825 127.962L212.494 127.873L212.635 124.184L200.234 123.711L200.093 127.4L197.774 127.312L198.161 117.17L200.48 117.259L200.342 120.866L212.743 121.338L212.881 117.732L215.211 117.821Z" fill="#0029FF"/>
<path d="M198.178 145.867C198.567 145.981 198.933 145.999 199.273 145.92C199.62 145.85 199.949 145.699 200.262 145.465C200.573 145.239 200.871 144.944 201.157 144.58C201.448 144.226 201.736 143.83 202.019 143.392C202.396 142.802 202.815 142.233 203.277 141.685C203.737 141.144 204.239 140.685 204.781 140.307C205.329 139.938 205.914 139.679 206.537 139.528C207.165 139.386 207.831 139.419 208.535 139.626C209.24 139.833 209.826 140.168 210.292 140.631C210.764 141.103 211.12 141.651 211.36 142.276C211.6 142.9 211.726 143.58 211.738 144.316C211.75 145.053 211.648 145.788 211.432 146.523C211.201 147.31 210.862 148.008 210.414 148.617C209.972 149.237 209.454 149.736 208.862 150.116C208.276 150.505 207.631 150.76 206.928 150.879C206.233 151.001 205.513 150.956 204.769 150.746L205.562 148.047C205.985 148.131 206.386 148.151 206.765 148.108C207.15 148.074 207.503 147.966 207.825 147.784C208.145 147.609 208.426 147.362 208.666 147.042C208.907 146.721 209.096 146.325 209.235 145.853C209.354 145.448 209.411 145.058 209.408 144.682C209.404 144.307 209.339 143.962 209.211 143.647C209.081 143.341 208.895 143.074 208.652 142.848C208.409 142.622 208.107 142.456 207.748 142.35C207.365 142.238 207.003 142.238 206.661 142.349C206.326 142.462 206.008 142.646 205.706 142.899C205.403 143.152 205.114 143.458 204.838 143.816C204.567 144.185 204.303 144.571 204.045 144.976C203.643 145.599 203.2 146.177 202.717 146.711C202.242 147.248 201.726 147.69 201.167 148.039C200.616 148.39 200.026 148.624 199.398 148.741C198.769 148.858 198.102 148.812 197.398 148.606C196.671 148.392 196.075 148.05 195.61 147.58C195.146 147.11 194.802 146.561 194.579 145.934C194.356 145.306 194.248 144.623 194.253 143.884C194.266 143.146 194.382 142.407 194.599 141.665C194.747 141.163 194.942 140.678 195.185 140.212C195.428 139.746 195.713 139.313 196.043 138.913C196.37 138.521 196.733 138.171 197.132 137.865C197.539 137.561 197.973 137.318 198.433 137.136C198.899 136.963 199.389 136.863 199.902 136.834C200.423 136.808 200.965 136.874 201.53 137.031L200.734 139.741C200.228 139.633 199.765 139.615 199.345 139.687C198.925 139.759 198.547 139.909 198.212 140.136C197.884 140.366 197.598 140.66 197.354 141.02C197.115 141.39 196.924 141.818 196.781 142.305C196.662 142.71 196.599 143.103 196.593 143.484C196.587 143.865 196.64 144.214 196.75 144.531C196.868 144.851 197.043 145.126 197.277 145.358C197.518 145.591 197.818 145.761 198.178 145.867Z" fill="#0029FF"/>
<path d="M190.575 168.188C189.707 167.675 188.938 167.072 188.269 166.377C187.606 165.687 187.099 164.939 186.749 164.133C186.402 163.339 186.243 162.501 186.273 161.621C186.305 160.751 186.583 159.872 187.108 158.984C187.628 158.102 188.262 157.443 189.011 157.004C189.759 156.566 190.565 156.307 191.429 156.227C192.295 156.158 193.191 156.246 194.116 156.493C195.037 156.746 195.931 157.129 196.799 157.641L198.676 158.749C199.255 159.091 199.792 159.471 200.288 159.891C200.781 160.318 201.213 160.768 201.586 161.242C201.962 161.727 202.272 162.232 202.516 162.757C202.762 163.292 202.92 163.839 202.99 164.397C203.056 164.962 203.03 165.537 202.912 166.12C202.79 166.711 202.557 167.299 202.211 167.884C201.687 168.772 201.049 169.439 200.297 169.884C199.54 170.335 198.725 170.603 197.85 170.685C196.983 170.772 196.083 170.69 195.151 170.44C194.22 170.189 193.32 169.808 192.452 169.295L190.575 168.188ZM193.908 166.875C194.463 167.194 195.041 167.467 195.642 167.695C196.243 167.922 196.82 168.05 197.375 168.078C197.937 168.11 198.458 168.019 198.939 167.803C199.422 167.599 199.827 167.221 200.153 166.669C200.474 166.124 200.608 165.59 200.553 165.068C200.501 164.557 200.323 164.066 200.02 163.597C199.712 163.134 199.312 162.698 198.819 162.289C198.328 161.891 197.809 161.526 197.261 161.193L195.364 160.073C194.808 159.755 194.232 159.478 193.635 159.244C193.045 159.014 192.47 158.874 191.91 158.824C191.352 158.785 190.834 158.865 190.354 159.063C189.87 159.267 189.468 159.642 189.146 160.187C188.821 160.739 188.685 161.276 188.74 161.798C188.791 162.327 188.966 162.829 189.265 163.305C189.565 163.781 189.961 164.224 190.455 164.633C190.944 165.049 191.463 165.423 192.01 165.755L193.908 166.875Z" fill="#0029FF"/>
<path d="M96.5486 203.497C96.7488 202.51 97.0676 201.586 97.505 200.726C97.9408 199.874 98.482 199.15 99.1285 198.556C99.7659 197.968 100.506 197.544 101.347 197.284C102.18 197.03 103.102 197.006 104.112 197.211C105.115 197.414 105.946 197.798 106.605 198.362C107.264 198.926 107.773 199.603 108.131 200.393C108.479 201.189 108.689 202.064 108.758 203.019C108.82 203.972 108.751 204.942 108.551 205.93L108.118 208.066C107.984 208.725 107.8 209.357 107.566 209.963C107.324 210.568 107.039 211.124 106.713 211.632C106.378 212.146 106.002 212.604 105.586 213.006C105.16 213.414 104.695 213.742 104.191 213.99C103.678 214.237 103.127 214.4 102.537 214.48C101.939 214.558 101.307 214.53 100.641 214.395C99.6303 214.19 98.7917 213.805 98.1252 213.239C97.451 212.672 96.9318 211.989 96.5677 211.19C96.202 210.398 95.9852 209.521 95.9172 208.559C95.8492 207.596 95.9154 206.621 96.1156 205.634L96.5486 203.497ZM98.8788 206.218C98.7592 206.847 98.6902 207.483 98.6716 208.125C98.6531 208.766 98.7213 209.354 98.8762 209.888C99.0295 210.429 99.2865 210.892 99.6471 211.276C99.9985 211.666 100.488 211.924 101.116 212.052C101.736 212.177 102.284 212.129 102.76 211.907C103.226 211.69 103.631 211.362 103.976 210.921C104.312 210.48 104.593 209.959 104.819 209.359C105.035 208.765 105.21 208.155 105.345 207.528L105.783 205.369C105.902 204.74 105.975 204.105 106.001 203.464C106.026 202.832 105.97 202.242 105.834 201.697C105.688 201.157 105.443 200.693 105.099 200.304C104.748 199.914 104.262 199.656 103.642 199.531C103.014 199.403 102.463 199.451 101.987 199.673C101.504 199.894 101.086 200.224 100.734 200.663C100.382 201.102 100.094 201.621 99.8683 202.221C99.6354 202.82 99.4514 203.432 99.3165 204.058L98.8788 206.218Z" fill="#0029FF"/>
</svg>
