<svg width="159" height="36" viewBox="0 0 159 36" fill="none" xmlns="http://www.w3.org/2000/svg">
<path fill-rule="evenodd" clip-rule="evenodd" d="M71.8302 9.80099H73.2726V26.7777H71.8302C71.4272 26.7796 71.0412 26.9406 70.7563 27.2255C70.4713 27.5105 70.3104 27.8964 70.3085 28.2994V33.8093C70.3085 34.2135 70.4686 34.6013 70.7537 34.8879C71.0389 35.1744 71.4259 35.3363 71.8302 35.3382H93.6821C94.0851 35.3344 94.4703 35.1716 94.7539 34.8853C95.0375 34.599 95.1966 34.2123 95.1966 33.8093V24.167C95.1947 23.764 95.0338 23.3781 94.7488 23.0931C94.4639 22.8082 94.0779 22.6472 93.6749 22.6453H89.2901C88.8871 22.6472 88.5012 22.8082 88.2162 23.0931C87.9312 23.3781 87.7703 23.764 87.7684 24.167V26.7777H82.1071V9.80099H83.5927C83.9938 9.79719 84.3772 9.63519 84.6594 9.35023C84.9417 9.06527 85.1 8.68038 85.1 8.27929V1.52177C85.0982 1.12248 84.9403 0.739735 84.6599 0.455373C84.3796 0.171012 83.9992 0.00759803 83.5999 6.8201e-05H71.8302C71.4272 0.00196469 71.0412 0.162896 70.7563 0.44786C70.4713 0.732825 70.3104 1.11878 70.3085 1.52177V8.27929C70.3104 8.68229 70.4713 9.06824 70.7563 9.3532C71.0412 9.63817 71.4272 9.7991 71.8302 9.80099ZM141.353 35.3382C137.419 35.3443 133.598 34.0315 130.499 31.6097C127.889 33.6437 124.76 34.9039 121.468 35.2467C118.177 35.5896 114.856 35.0012 111.882 33.5488C108.909 32.0963 106.403 29.8381 104.651 27.0313C102.898 24.2244 101.969 20.9818 101.969 17.6727C101.969 14.3636 102.898 11.121 104.651 8.31422C106.403 5.5074 108.909 3.24917 111.882 1.79671C114.856 0.344244 118.177 -0.244074 121.468 0.0987528C124.76 0.44158 127.889 1.70177 130.499 3.73581C132.718 2.00522 135.318 0.829754 138.084 0.307264C140.849 -0.215225 143.699 -0.0696233 146.397 0.73195C149.094 1.53352 151.562 2.96788 153.593 4.91562C155.624 6.86336 157.161 9.26813 158.075 11.9298C158.989 14.5914 159.254 17.4329 158.848 20.2177C158.443 23.0025 157.377 25.6501 155.741 27.94C154.106 30.2299 151.946 32.096 149.444 33.3828C146.941 34.6697 144.167 35.3401 141.353 35.3382ZM132.893 6.01476C135.619 9.1375 137.285 14.7772 137.285 17.6691C137.285 20.5611 137.141 20.2726 136.867 21.5059C138.571 20.761 139.967 19.4523 140.82 17.7997C141.673 16.1471 141.931 14.2513 141.551 12.4307C141.171 10.6101 140.177 8.9757 138.734 7.80209C137.291 6.62849 135.488 5.98718 133.629 5.98592C133.383 5.98592 132.907 5.98592 132.907 5.98592L132.893 6.01476ZM127.325 13.1473C129.331 13.1456 131.267 13.8876 132.757 15.23C134.248 16.5724 135.188 18.4198 135.395 20.415C135.603 22.4101 135.063 24.4114 133.881 26.0317C132.698 27.6521 130.957 28.7765 128.994 29.1876C127.03 29.5986 124.984 29.2671 123.251 28.2571C121.518 27.2471 120.221 25.6304 119.611 23.7195C119 21.8087 119.12 19.7394 119.947 17.9119C120.774 16.0843 122.249 14.6283 124.087 13.8252C123.488 16.5358 123.534 19.3495 124.221 22.0391C124.909 24.7287 126.219 27.219 128.047 29.3091C129.934 29.1414 131.702 28.3169 133.044 26.9793C134.385 25.6416 135.215 23.8756 135.388 21.989C134.811 22.1198 134.221 22.1851 133.629 22.1838C131.481 22.1838 129.421 21.3305 127.902 19.8116C126.383 18.2928 125.53 16.2328 125.53 14.0848C125.53 13.8324 125.53 13.5872 125.566 13.3637C126.144 13.236 126.734 13.1707 127.325 13.1689V13.1473ZM33.6866 26.7849H34.9271V9.47646H33.6866C33.4852 9.47552 33.286 9.4348 33.1004 9.35664C32.9148 9.27848 32.7465 9.16442 32.6051 9.02101C32.4637 8.8776 32.352 8.70767 32.2765 8.52098C32.2009 8.33428 32.163 8.13451 32.1649 7.93312V1.52177C32.1668 1.11878 32.3277 0.732825 32.6127 0.44786C32.8977 0.162896 33.2836 0.00196469 33.6866 6.8201e-05H42.3409C42.7414 0.00573177 43.1236 0.168324 43.4055 0.452885C43.6874 0.737445 43.8463 1.12125 43.8481 1.52177V14.6041L48.1753 10.3275C48.4648 10.086 48.657 9.74781 48.7162 9.37549C48.7201 9.22729 48.6939 9.07983 48.6392 8.94203C48.5845 8.80423 48.5025 8.67896 48.398 8.57379C48.2935 8.46862 48.1687 8.38574 48.0313 8.33016C47.8938 8.27458 47.7465 8.24746 47.5983 8.25044H47.3964V1.52177C47.3973 1.32038 47.438 1.12116 47.5162 0.93555C47.5944 0.749941 47.7084 0.581603 47.8518 0.440205C47.9952 0.298806 48.1652 0.187134 48.3519 0.111602C48.5386 0.0360697 48.7383 -0.00183394 48.9397 6.8201e-05H59.4041C59.8077 6.8201e-05 60.1948 0.16039 60.4801 0.445765C60.7655 0.73114 60.9258 1.11819 60.9258 1.52177V7.44271C60.928 7.96322 60.729 8.46445 60.3705 8.84182H60.4282L54.1611 15.044L61.7985 26.7849H63.8394C64.2424 26.7868 64.6284 26.9478 64.9133 27.2327C65.1983 27.5177 65.3592 27.9036 65.3611 28.3066V33.8093C65.3611 34.2135 65.201 34.6013 64.9159 34.8879C64.6307 35.1744 64.2437 35.3363 63.8394 35.3382H54.19C53.8588 35.3383 53.5326 35.2576 53.2398 35.103C52.947 34.9484 52.6963 34.7246 52.5096 34.4512L43.8481 21.203V26.7849H44.6487C45.0497 26.7887 45.4331 26.9507 45.7154 27.2357C45.9976 27.5207 46.156 27.9055 46.1559 28.3066V33.8093C46.1579 34.2116 46.0004 34.5984 45.7179 34.8849C45.4354 35.1714 45.051 35.3344 44.6487 35.3382H33.6866C33.2836 35.3363 32.8977 35.1754 32.6127 34.8904C32.3277 34.6055 32.1668 34.2195 32.1649 33.8165V28.3066C32.1668 27.9036 32.3277 27.5177 32.6127 27.2327C32.8977 26.9478 33.2836 26.7868 33.6866 26.7849ZM1.5217 26.7849H2.96408V9.81542H1.5217C1.11871 9.81352 0.732757 9.65259 0.447792 9.36763C0.162827 9.08266 0.00189649 8.69671 0 8.29371L0 1.52177C0.00189649 1.11878 0.162827 0.732825 0.447792 0.44786C0.732757 0.162896 1.11871 0.00196469 1.5217 6.8201e-05H26.042C26.445 0.00196469 26.831 0.162896 27.116 0.44786C27.4009 0.732825 27.5619 1.11878 27.5638 1.52177V8.29371C27.5619 8.69671 27.4009 9.08266 27.116 9.36763C26.831 9.65259 26.445 9.81352 26.042 9.81542H23.2294C22.8264 9.81352 22.4405 9.65259 22.1555 9.36763C21.8705 9.08266 21.7096 8.69671 21.7077 8.29371V7.93312H11.7986V13.0896H23.5107C23.9137 13.0915 24.2996 13.2524 24.5846 13.5374C24.8696 13.8224 25.0305 14.2083 25.0324 14.6113V18.7581C25.0305 19.1611 24.8696 19.5471 24.5846 19.832C24.2996 20.117 23.9137 20.2779 23.5107 20.2798H11.7986V26.7705H13.2915C13.6951 26.7705 14.0821 26.9308 14.3675 27.2162C14.6529 27.5016 14.8132 27.8886 14.8132 28.2922V33.8021C14.8141 34.0029 14.7755 34.2019 14.6996 34.3877C14.6236 34.5736 14.5118 34.7427 14.3705 34.8853C14.2292 35.028 14.0611 35.1414 13.876 35.2191C13.6909 35.2968 13.4922 35.3373 13.2915 35.3382H1.5217C1.11746 35.3363 0.730426 35.1744 0.445256 34.8879C0.160087 34.6013 -4.49716e-06 34.2135 0 33.8093L0 28.2994C0 27.8959 0.160322 27.5088 0.445697 27.2234C0.731071 26.938 1.11812 26.7777 1.5217 26.7777V26.7849Z" fill="#0029FF"/>
<path d="M95.6438 0C96.4975 0.0109071 97.3352 0.233956 98.0814 0.649068C98.8726 1.07245 99.5239 1.71629 99.9565 2.50252C100.405 3.2768 100.646 4.15366 100.656 5.04831C100.652 5.92087 100.424 6.77771 99.9925 7.5364C99.5629 8.31379 98.9198 8.95194 98.1391 9.37543C97.3785 9.80787 96.5187 10.0352 95.6438 10.0352C94.7689 10.0352 93.909 9.80787 93.1485 9.37543C92.3626 8.94656 91.7167 8.30065 91.2878 7.51477C90.8527 6.75249 90.6239 5.88995 90.6239 5.01225C90.6239 4.13454 90.8527 3.272 91.2878 2.50973C91.7261 1.72107 92.382 1.07516 93.1773 0.649068C93.9317 0.228437 94.7801 0.00517474 95.6438 0V0ZM95.6438 0.829365C94.9219 0.834784 94.2128 1.02073 93.5812 1.37025C92.9228 1.728 92.38 2.26583 92.0162 2.92081C91.6497 3.55559 91.4568 4.27566 91.4568 5.00864C91.4568 5.74163 91.6497 6.4617 92.0162 7.09648C92.3728 7.75139 92.908 8.29159 93.5595 8.65424C94.1926 9.01806 94.91 9.20952 95.6402 9.20952C96.3703 9.20952 97.0877 9.01806 97.7208 8.65424C98.373 8.29658 98.9106 7.76148 99.2713 7.1109C99.6297 6.48214 99.8209 5.772 99.8266 5.04831C99.8207 4.3123 99.6271 3.58998 99.2641 2.94965C98.9022 2.2932 98.3589 1.75489 97.6991 1.3991C97.0696 1.05074 96.3632 0.864831 95.6438 0.858212V0.829365ZM93.4442 7.78161V2.39434H95.2976C95.7618 2.37352 96.2265 2.4246 96.6751 2.54579C96.9501 2.64313 97.1874 2.82486 97.353 3.06504C97.5157 3.29774 97.6037 3.57443 97.6054 3.85835C97.6055 4.04868 97.568 4.23716 97.495 4.41292C97.422 4.58868 97.3149 4.74825 97.1799 4.88243C96.8832 5.18205 96.4835 5.3574 96.0621 5.37284C96.2303 5.43964 96.3844 5.5375 96.5164 5.66132C96.8204 5.98764 97.0888 6.34545 97.3169 6.72867L97.9732 7.78161H96.9131L96.4371 6.93782C96.2094 6.46594 95.8992 6.03853 95.5212 5.67574C95.3081 5.53566 95.0539 5.47209 94.8 5.49544H94.2879V7.78161H93.4442ZM94.3096 4.74541H95.3697C95.7285 4.78304 96.09 4.70469 96.401 4.52184C96.4912 4.45246 96.5638 4.3627 96.6126 4.25992C96.6615 4.15714 96.6854 4.04424 96.6823 3.93047C96.6827 3.77288 96.6345 3.61901 96.5441 3.48991C96.4537 3.36082 96.3257 3.2628 96.1774 3.20928C95.8938 3.12968 95.5989 3.098 95.3048 3.11553H94.3096V4.74541Z" fill="#0029FF"/>
</svg>
