<svg width="160" height="36" viewBox="0 0 160 36" fill="none" xmlns="http://www.w3.org/2000/svg">
<path fill-rule="evenodd" clip-rule="evenodd" d="M71.8302 9.97842H73.2726V26.9225H71.8302C71.4272 26.9244 71.0412 27.085 70.7563 27.3694C70.4713 27.6538 70.3104 28.039 70.3085 28.4412V33.9405C70.3085 34.344 70.4686 34.731 70.7537 35.017C71.0389 35.303 71.4259 35.4646 71.8302 35.4665H93.6821C94.0851 35.4627 94.4703 35.3002 94.7539 35.0145C95.0376 34.7287 95.1967 34.3427 95.1966 33.9405V24.3168C95.1947 23.9146 95.0338 23.5294 94.7488 23.245C94.4639 22.9605 94.0779 22.7999 93.6749 22.798H89.2901C88.8871 22.7999 88.5012 22.9605 88.2162 23.245C87.9312 23.5294 87.7703 23.9146 87.7684 24.3168V26.9225H82.1071V9.97842H83.5927C83.9938 9.97462 84.3772 9.81294 84.6594 9.52852C84.9417 9.24411 85.1 8.85997 85.1 8.45964V1.71513C85.0982 1.31661 84.9403 0.9346 84.6599 0.650786C84.3796 0.366972 83.9992 0.203872 83.6 0.196357H71.8302C71.4272 0.19825 71.0412 0.358871 70.7563 0.643287C70.4713 0.927704 70.3104 1.31291 70.3085 1.71513V8.45964C70.3104 8.86186 70.4713 9.24707 70.7563 9.53149C71.0412 9.8159 71.4272 9.97653 71.8302 9.97842ZM141.353 35.4665C137.419 35.4726 133.598 34.1623 130.499 31.7451C127.889 33.7753 124.76 35.033 121.468 35.3752C118.177 35.7174 114.856 35.1302 111.882 33.6805C108.909 32.2308 106.403 29.9769 104.651 27.1755C102.898 24.3741 101.969 21.1378 101.969 17.835C101.969 14.5323 102.898 11.2959 104.651 8.49451C106.403 5.69309 108.909 3.43921 111.882 1.98954C114.856 0.53987 118.177 -0.0473151 121.468 0.294852C124.76 0.637019 127.889 1.89478 130.499 3.92491C132.718 2.19765 135.318 1.02445 138.084 0.502962C140.849 -0.0185221 143.699 0.1268 146.397 0.926831C149.095 1.72686 151.562 3.15846 153.593 5.10245C155.624 7.04644 157.161 9.44658 158.075 12.1031C158.989 14.7596 159.254 17.5956 158.848 20.3751C158.443 23.1545 157.377 25.797 155.741 28.0825C154.106 30.368 151.946 32.2305 149.444 33.5149C146.941 34.7992 144.167 35.4683 141.353 35.4665ZM132.893 6.19948C135.619 9.3162 137.285 14.945 137.285 17.8314C137.285 20.7178 137.141 20.4299 136.867 21.6607C138.571 20.9173 139.967 19.6112 140.82 17.9618C141.673 16.3123 141.931 14.4201 141.551 12.603C141.172 10.786 140.177 9.15471 138.734 7.98336C137.291 6.81202 135.488 6.17195 133.629 6.17068C133.383 6.17068 132.907 6.17068 132.907 6.17068L132.893 6.19948ZM127.326 13.3183C129.331 13.3165 131.267 14.0572 132.757 15.397C134.248 16.7368 135.188 18.5806 135.395 20.572C135.603 22.5633 135.063 24.5607 133.881 26.1779C132.698 27.7952 130.957 28.9174 128.994 29.3277C127.03 29.7379 124.984 29.407 123.251 28.399C121.518 27.3909 120.221 25.7773 119.611 23.8702C119 21.963 119.12 19.8977 119.947 18.0737C120.774 16.2497 122.249 14.7964 124.087 13.9949C123.488 16.7003 123.534 19.5085 124.221 22.193C124.909 24.8774 126.219 27.3629 128.047 29.449C129.934 29.2816 131.702 28.4587 133.044 27.1236C134.385 25.7886 135.215 24.026 135.388 22.143C134.811 22.2735 134.221 22.3387 133.629 22.3374C131.481 22.3374 129.421 21.4857 127.902 19.9698C126.383 18.4539 125.53 16.3979 125.53 14.254C125.53 14.0021 125.53 13.7574 125.566 13.5342C126.144 13.4068 126.734 13.3416 127.326 13.3399V13.3183ZM33.6866 26.9297H34.9271V9.65451H33.6866C33.4852 9.65357 33.286 9.61293 33.1004 9.53492C32.9148 9.45691 32.7465 9.34307 32.6051 9.19993C32.4637 9.0568 32.352 8.8872 32.2765 8.70086C32.2009 8.51453 32.163 8.31514 32.1649 8.11414V1.71513C32.1668 1.31291 32.3278 0.927704 32.6127 0.643287C32.8977 0.358871 33.2836 0.19825 33.6866 0.196357H42.3409C42.7414 0.20201 43.1236 0.364289 43.4055 0.648302C43.6874 0.932315 43.8463 1.31538 43.8481 1.71513V14.7723L48.1753 10.5039C48.4648 10.2629 48.657 9.92534 48.7162 9.55374C48.7201 9.40582 48.6939 9.25864 48.6392 9.12111C48.5845 8.98357 48.5025 8.85854 48.398 8.75358C48.2935 8.64861 48.1687 8.56589 48.0313 8.51042C47.8938 8.45495 47.7465 8.42788 47.5983 8.43085H47.3964V1.71513C47.3973 1.51413 47.438 1.31529 47.5162 1.13004C47.5944 0.944787 47.7084 0.776773 47.8518 0.635647C47.9952 0.49452 48.1652 0.383063 48.3519 0.307676C48.5386 0.232289 48.7383 0.194459 48.9397 0.196357H59.4041C59.8077 0.196357 60.1948 0.35637 60.4802 0.641196C60.7655 0.926022 60.9259 1.31233 60.9259 1.71513V7.62468C60.928 8.14418 60.729 8.64445 60.3705 9.02109H60.4282L54.1611 15.2114L61.7985 26.9297H63.8394C64.2424 26.9316 64.6284 27.0922 64.9134 27.3766C65.1983 27.661 65.3592 28.0462 65.3611 28.4484V33.9405C65.3612 34.344 65.2011 34.731 64.9159 35.017C64.6307 35.303 64.2437 35.4646 63.8394 35.4665H54.19C53.8588 35.4666 53.5327 35.386 53.2398 35.2317C52.947 35.0774 52.6963 34.8541 52.5096 34.5811L43.8481 21.3584V26.9297H44.6487C45.0497 26.9335 45.4331 27.0952 45.7154 27.3796C45.9976 27.664 46.156 28.0481 46.1559 28.4484V33.9405C46.1579 34.3421 46.0004 34.7281 45.7179 35.014C45.4354 35.3 45.051 35.4627 44.6487 35.4665H33.6866C33.2836 35.4646 32.8977 35.304 32.6127 35.0196C32.3278 34.7351 32.1668 34.3499 32.1649 33.9477V28.4484C32.1668 28.0462 32.3278 27.661 32.6127 27.3766C32.8977 27.0922 33.2836 26.9316 33.6866 26.9297ZM1.5217 26.9297H2.96408V9.99281H1.5217C1.11871 9.99092 0.732757 9.8303 0.447792 9.54588C0.162827 9.26147 0.00189649 8.87626 0 8.47404L0 1.71513C0.00189649 1.31291 0.162827 0.927704 0.447792 0.643287C0.732757 0.358871 1.11871 0.19825 1.5217 0.196357H26.0421C26.445 0.19825 26.831 0.358871 27.116 0.643287C27.4009 0.927704 27.5619 1.31291 27.5638 1.71513V8.47404C27.5619 8.87626 27.4009 9.26147 27.116 9.54588C26.831 9.8303 26.445 9.99092 26.0421 9.99281H23.2294C22.8264 9.99092 22.4405 9.8303 22.1555 9.54588C21.8705 9.26147 21.7096 8.87626 21.7077 8.47404V8.11414H11.7986V13.2607H23.5107C23.9137 13.2626 24.2996 13.4232 24.5846 13.7076C24.8696 13.992 25.0305 14.3773 25.0324 14.7795V18.9183C25.0305 19.3205 24.8696 19.7057 24.5846 19.9902C24.2996 20.2746 23.9137 20.4352 23.5107 20.4371H11.7986V26.9153H13.2915C13.6951 26.9153 14.0821 27.0753 14.3675 27.3601C14.6529 27.6449 14.8132 28.0312 14.8132 28.4341V33.9333C14.8141 34.1337 14.7755 34.3323 14.6996 34.5178C14.6236 34.7033 14.5118 34.8721 14.3705 35.0145C14.2292 35.1568 14.0612 35.27 13.876 35.3476C13.6909 35.4251 13.4923 35.4655 13.2915 35.4665H1.5217C1.11746 35.4646 0.730426 35.303 0.445256 35.017C0.160087 34.731 -4.49716e-06 34.344 0 33.9405L0 28.4412C0 28.0384 0.160322 27.6521 0.445697 27.3673C0.731072 27.0825 1.11812 26.9225 1.5217 26.9225V26.9297Z" fill="#474747"/>
</svg>
