<svg xmlns="http://www.w3.org/2000/svg" width="35" height="35" viewBox="0 0 35 35"><defs><clipPath id="z67ja"><path fill="#fff" d="M35 17.5C35 27.165 27.165 35 17.5 35S0 27.165 0 17.5 7.835 0 17.5 0 35 7.835 35 17.5z"/></clipPath></defs><g><g><g><g><path fill="#fff" d="M15 22a2 2 0 1 1-4 0 2 2 0 0 1 4 0z"/></g><g><path fill="#fff" d="M24 22a2 2 0 1 1-4 0 2 2 0 0 1 4 0z"/></g><g><path fill="#fff" d="M15 13a2 2 0 1 1-4 0 2 2 0 0 1 4 0z"/></g><g><path fill="#fff" d="M24 13a2 2 0 1 1-4 0 2 2 0 0 1 4 0z"/></g></g><g><path fill="none" stroke="#fff" stroke-miterlimit="50" stroke-opacity=".2" stroke-width="2" d="M35 17.5C35 27.165 27.165 35 17.5 35S0 27.165 0 17.5 7.835 0 17.5 0 35 7.835 35 17.5z" clip-path="url(&quot;#z67ja&quot;)"/></g></g></g></svg>