<svg width="239" height="239" viewBox="0 0 239 239" fill="none" xmlns="http://www.w3.org/2000/svg">
<path d="M119.511 222.022C176.126 222.022 222.022 176.126 222.022 119.511C222.022 62.8958 176.126 17 119.511 17C62.8958 17 17 62.8958 17 119.511C17 176.126 62.8958 222.022 119.511 222.022Z" fill="#0029FF"/>
<path d="M238.5 119.5C238.5 185.222 185.222 238.5 119.5 238.5C53.7781 238.5 0.5 185.222 0.5 119.5C0.5 53.7781 53.7781 0.5 119.5 0.5C185.222 0.5 238.5 53.7781 238.5 119.5Z" stroke="#0029FF"/>
<path d="M102.99 51.2144L101.774 51.5683L99.2744 42.9648L95.7578 43.9822L98.2349 52.5856L97.0185 52.9395L94.2539 43.3408L100.203 41.6157L102.99 51.2144Z" fill="white"/>
<path d="M113.915 44.9999C113.938 45.3682 113.938 45.7375 113.915 46.1057C113.914 46.4637 113.87 46.8201 113.783 47.1673C113.719 47.513 113.607 47.848 113.451 48.1626C113.306 48.4736 113.12 48.7637 112.898 49.0251C112.654 49.2676 112.379 49.4759 112.08 49.6444C111.739 49.8099 111.372 49.9147 110.996 49.9541C110.624 50.0335 110.24 50.0335 109.868 49.9541C109.532 49.8717 109.211 49.7374 108.917 49.556C108.636 49.3632 108.383 49.1325 108.165 48.8703C107.971 48.5862 107.808 48.2822 107.678 47.9635C107.51 47.6472 107.376 47.3135 107.28 46.9683C107.175 46.6218 107.101 46.2665 107.059 45.9067L106.904 44.7787C106.904 44.4249 106.904 44.0489 106.904 43.695C106.922 43.3297 106.974 42.9669 107.059 42.6113C107.123 42.2657 107.234 41.9307 107.391 41.616C107.536 41.2998 107.73 41.0086 107.966 40.7535C108.191 40.5 108.461 40.2901 108.762 40.1342C109.099 39.955 109.467 39.8423 109.846 39.8025C110.227 39.7459 110.615 39.7459 110.996 39.8025C111.329 39.8828 111.644 40.0253 111.925 40.2227C112.211 40.4091 112.465 40.6407 112.677 40.9083C112.906 41.177 113.099 41.4744 113.252 41.793C113.417 42.1186 113.55 42.4593 113.65 42.8103C113.755 43.1569 113.829 43.5122 113.871 43.872L113.915 44.9999ZM112.522 44.0268C112.522 43.7835 112.522 43.5402 112.367 43.2748C112.314 43.0258 112.24 42.7817 112.146 42.5449C112.041 42.3026 111.923 42.0663 111.792 41.8372C111.654 41.633 111.491 41.4471 111.306 41.2843C111.125 41.1313 110.914 41.0183 110.686 40.9525C110.425 40.8851 110.151 40.8851 109.89 40.9525C109.624 40.9759 109.367 41.0591 109.138 41.1958C108.926 41.3241 108.745 41.4979 108.607 41.7045C108.45 41.8905 108.336 42.1098 108.276 42.3459C108.185 42.5882 108.126 42.8408 108.099 43.0979C108.066 43.3622 108.066 43.6297 108.099 43.8941C108.099 44.1595 108.099 44.4028 108.099 44.6239L108.253 45.774C108.276 46.0207 108.321 46.2649 108.386 46.5038C108.454 46.7586 108.535 47.0096 108.629 47.2558C108.734 47.491 108.852 47.7199 108.983 47.9414C109.115 48.1568 109.279 48.3507 109.47 48.5165C109.656 48.6741 109.875 48.7875 110.111 48.8482C110.372 48.9176 110.647 48.9176 110.907 48.8482C111.174 48.828 111.432 48.7446 111.659 48.6049C111.862 48.4728 112.041 48.3085 112.19 48.1184C112.327 47.9113 112.438 47.6885 112.522 47.4549C112.595 47.209 112.647 46.9575 112.677 46.7029C112.699 46.438 112.699 46.1716 112.677 45.9067C112.677 45.6413 112.677 45.398 112.677 45.1547L112.522 44.0268Z" fill="white"/>
<path d="M125.726 46.4591C125.65 46.8981 125.509 47.3231 125.306 47.7198C125.14 48.0955 124.89 48.4283 124.576 48.6929C124.277 48.9702 123.923 49.1812 123.537 49.3122C123.116 49.4513 122.674 49.5113 122.232 49.4891C121.846 49.4778 121.465 49.403 121.104 49.268C120.783 49.1471 120.485 48.9753 120.219 48.7593C119.971 48.5403 119.755 48.2871 119.578 48.0073C119.395 47.7159 119.246 47.4042 119.135 47.0784C119.018 46.7338 118.936 46.3781 118.892 46.0168C118.869 45.6485 118.869 45.2792 118.892 44.911V43.5176C118.892 43.1523 118.937 42.7885 119.025 42.4339C119.094 42.0782 119.198 41.7301 119.334 41.3944C119.476 41.0798 119.654 40.7829 119.865 40.5097C120.047 40.2324 120.279 39.9922 120.551 39.802C120.83 39.5977 121.145 39.4477 121.48 39.3597C121.844 39.2453 122.227 39.2002 122.608 39.227C123.063 39.2292 123.513 39.3194 123.935 39.4924C124.31 39.6501 124.649 39.8835 124.93 40.178C125.202 40.485 125.419 40.8366 125.571 41.2175C125.739 41.6411 125.836 42.0894 125.859 42.5445H124.598C124.565 42.2523 124.506 41.9636 124.421 41.6819C124.324 41.4278 124.19 41.1894 124.023 40.9742C123.86 40.7721 123.657 40.6063 123.426 40.4876C123.153 40.37 122.861 40.3026 122.563 40.2886C122.292 40.2836 122.022 40.3286 121.767 40.4213C121.539 40.5067 121.329 40.6343 121.148 40.7973C120.972 40.9648 120.822 41.1588 120.706 41.3723C120.583 41.5966 120.487 41.834 120.418 42.08C120.338 42.3253 120.279 42.5768 120.241 42.832C120.241 43.0974 120.241 43.3628 120.241 43.6061V45.0215C120.241 45.2648 120.241 45.5081 120.241 45.7735C120.22 46.0385 120.22 46.3048 120.241 46.5697C120.299 46.813 120.38 47.0501 120.484 47.2775C120.6 47.5304 120.757 47.7622 120.949 47.9631C121.105 48.1459 121.302 48.2898 121.524 48.3833C121.772 48.5035 122.045 48.5641 122.32 48.5602C122.598 48.594 122.88 48.5638 123.145 48.4718C123.409 48.3797 123.649 48.2284 123.846 48.0294C124.025 47.8351 124.167 47.6104 124.266 47.3659C124.384 47.0976 124.466 46.815 124.51 46.5255L125.726 46.4591Z" fill="white"/>
<path d="M133.599 40.5323L134.218 45.7518L136.916 41.1958L138.464 41.5054L136.43 51.3031L135.213 51.0599L136.009 47.1452L136.938 43.0757L134.218 47.9635H133.4L132.78 42.4786L132.006 46.349L131.298 50.1752L130.082 49.9319L132.006 40.2227L133.599 40.5323Z" fill="white"/>
<path d="M148.771 50.7726C148.634 51.1125 148.479 51.4448 148.306 51.7678C148.126 52.0798 147.918 52.3758 147.687 52.6525C147.47 52.9286 147.218 53.1741 146.935 53.3823C146.663 53.5954 146.356 53.76 146.028 53.8689C145.712 53.9957 145.373 54.0559 145.033 54.0458C144.649 54.0408 144.268 53.9736 143.905 53.8468C143.549 53.7138 143.22 53.5192 142.932 53.2718C142.675 53.044 142.458 52.7749 142.291 52.4756C142.127 52.1773 142.008 51.857 141.937 51.5245C141.867 51.1748 141.83 50.8195 141.826 50.4629C141.839 50.0985 141.883 49.7359 141.959 49.3792C142.021 49.0242 142.117 48.6761 142.246 48.3397L142.644 47.2781C142.762 46.9304 142.918 46.5966 143.109 46.2829C143.282 45.966 143.49 45.6693 143.728 45.3982C143.957 45.133 144.208 44.8887 144.48 44.6683C144.752 44.4553 145.059 44.2907 145.387 44.1818C145.702 44.0481 146.04 43.9803 146.382 43.9827C146.769 43.9854 147.151 44.0604 147.51 44.2039C147.866 44.3369 148.195 44.5315 148.483 44.7789C148.75 44.9968 148.969 45.268 149.125 45.5751C149.301 45.8671 149.421 46.1898 149.479 46.5262C149.55 46.8755 149.587 47.2311 149.589 47.5878C149.576 47.9522 149.532 48.3148 149.456 48.6715C149.384 49.024 149.288 49.3713 149.169 49.711L148.771 50.7726ZM147.997 49.2686C147.997 49.0253 148.152 48.8042 148.218 48.5388C148.285 48.2852 148.329 48.0261 148.351 47.7647C148.373 47.5072 148.373 47.2481 148.351 46.9906C148.336 46.7457 148.276 46.5057 148.174 46.2829C148.083 46.0587 147.948 45.8555 147.776 45.6857C147.584 45.5034 147.359 45.3606 147.112 45.2655C146.857 45.1728 146.587 45.1278 146.316 45.1328C146.077 45.1547 145.844 45.2223 145.63 45.3319C145.404 45.4386 145.201 45.5889 145.033 45.7742C144.841 45.9445 144.67 46.1376 144.524 46.3492C144.371 46.5648 144.237 46.7944 144.126 47.0348C144.005 47.2471 143.901 47.469 143.817 47.6983L143.396 48.7821L143.197 49.4898C143.136 49.7148 143.092 49.9439 143.065 50.1754C143.042 50.4329 143.042 50.692 143.065 50.9495C143.08 51.1991 143.132 51.4451 143.22 51.6794C143.326 51.9003 143.468 52.1021 143.64 52.2765C143.821 52.4713 144.05 52.616 144.303 52.6967C144.555 52.8017 144.827 52.8471 145.099 52.8294C145.346 52.8076 145.586 52.7401 145.807 52.6304C146.008 52.5732 146.201 52.4915 146.382 52.3871C146.575 52.209 146.746 52.0085 146.891 51.7899C147.04 51.5788 147.173 51.3571 147.289 51.1264C147.4 50.8832 147.51 50.662 147.599 50.4408L147.997 49.2686Z" fill="white"/>
<path d="M161.776 52.5416L159.077 51.0155L154.654 58.7785L153.57 58.1592L157.994 50.3963L155.295 48.8702L155.826 47.9192L162.284 51.5906L161.776 52.5416Z" fill="white"/>
<path d="M164.63 60.548L162.109 63.6886L161.113 62.8924L167.394 55.0852L169.916 57.1199C170.254 57.3867 170.546 57.7081 170.778 58.071C171.01 58.4022 171.169 58.7792 171.243 59.1768C171.33 59.8115 171.22 60.4577 170.927 61.0275C170.634 61.5974 170.173 62.0632 169.606 62.3616C169.255 62.5328 168.869 62.6234 168.478 62.627C168.071 62.6366 167.666 62.569 167.284 62.428C166.876 62.2752 166.496 62.0587 166.156 61.7866L164.63 60.548ZM165.271 59.7518L166.819 60.9683C167.032 61.1383 167.271 61.2728 167.527 61.3664C167.767 61.4553 168.023 61.4929 168.279 61.4769C168.525 61.4551 168.765 61.3876 168.987 61.2779C169.223 61.1389 169.433 60.9592 169.606 60.7471C169.794 60.5297 169.93 60.2726 170.004 59.9951C170.059 59.7549 170.059 59.5055 170.004 59.2653C169.977 59.0141 169.894 58.7722 169.761 58.5575C169.608 58.3189 169.421 58.103 169.208 57.9161L167.66 56.6997L165.271 59.7518Z" fill="white"/>
<path d="M180.133 66.9616L180.995 67.9126L173.586 74.5477L172.724 73.5966L178.187 68.6646L170.269 70.8763L169.406 70.0801L176.815 63.4451L177.678 64.3961L172.215 69.1954L180.133 66.9616Z" fill="white"/>
<path d="M187.83 79.4355L186.127 76.8478L178.652 81.7135L177.988 80.674L185.464 75.8083L183.783 73.2207L184.69 72.6235L188.737 78.9268L187.83 79.4355Z" fill="white"/>
<path d="M188.87 91.4007L187.299 87.5745L184.048 89.0121L186.039 93.4354L185.043 93.8778L182.434 88.3043L191.59 84.2349L194.045 89.8083L193.05 90.2506L191.103 85.8273L188.162 87.1322L189.865 90.9362L188.87 91.4007Z" fill="white"/>
<path d="M189.047 109.603L199.022 108.607L199.309 111.571C199.353 111.975 199.353 112.383 199.309 112.787C199.244 113.167 199.117 113.533 198.933 113.871C198.756 114.204 198.497 114.485 198.181 114.69C197.834 114.923 197.427 115.054 197.009 115.066C196.775 115.11 196.535 115.11 196.301 115.066C196.086 115 195.878 114.911 195.682 114.8C195.505 114.67 195.342 114.522 195.195 114.358C195.043 114.181 194.909 113.988 194.797 113.783C194.752 114.054 194.663 114.315 194.532 114.557C194.418 114.785 194.269 114.994 194.089 115.176C193.886 115.349 193.663 115.497 193.426 115.618C193.167 115.734 192.89 115.801 192.608 115.817C192.183 115.878 191.75 115.832 191.347 115.685C190.989 115.539 190.665 115.321 190.396 115.043C190.125 114.748 189.901 114.412 189.732 114.048C189.575 113.658 189.471 113.249 189.423 112.832L189.047 109.603ZM193.846 110.399L190.263 110.753L190.44 112.699C190.48 112.958 190.554 113.211 190.661 113.451C190.767 113.672 190.909 113.874 191.082 114.048C191.251 114.216 191.454 114.344 191.679 114.424C191.926 114.482 192.183 114.482 192.431 114.424C192.687 114.404 192.936 114.329 193.161 114.203C193.371 114.091 193.553 113.932 193.691 113.739C193.826 113.544 193.924 113.327 193.979 113.097C194.013 112.84 194.013 112.58 193.979 112.323L193.846 110.399ZM194.886 110.399L195.063 112.168C195.088 112.404 195.147 112.635 195.24 112.854C195.334 113.064 195.461 113.258 195.616 113.429C195.767 113.592 195.947 113.727 196.146 113.827C196.379 113.884 196.622 113.884 196.854 113.827C197.084 113.805 197.306 113.73 197.502 113.607C197.698 113.484 197.862 113.317 197.982 113.119C198.09 112.911 198.165 112.687 198.203 112.456C198.237 112.214 198.237 111.968 198.203 111.726L198.048 109.89L194.886 110.399Z" fill="white"/>
<path d="M199.44 126.19V127.451L189.443 126.854V125.571L196.786 126.035L189.665 121.922V120.639L199.661 121.258V122.519L192.319 122.076L199.44 126.19Z" fill="white"/>
<path d="M184.844 137.713L185.087 136.585L187.498 137.138L188.559 132.405L186.149 131.852L186.37 130.813L189.842 131.388L189.732 131.83C189.833 132.09 189.992 132.325 190.196 132.516C190.464 132.758 190.762 132.965 191.081 133.135C191.508 133.359 191.952 133.551 192.408 133.71C192.938 133.887 193.558 134.086 194.265 134.263L198.136 135.347L197.163 139.77L188.316 137.824L188.139 138.664L184.844 137.713ZM193.978 135.501C193.03 135.252 192.099 134.942 191.191 134.573C190.525 134.313 189.905 133.947 189.356 133.489L188.692 136.43L196.433 138.178L196.853 136.253L193.978 135.501Z" fill="white"/>
<path d="M188.052 149.545L189.622 145.653L186.326 144.348L184.513 148.771L183.518 148.373L185.729 142.667L195.018 146.383L192.807 152.044L191.723 151.713L193.514 147.289L190.529 146.095L188.98 149.988L188.052 149.545Z" fill="white"/>
<path d="M181.769 160.758C181.46 160.565 181.164 160.35 180.884 160.117C180.604 159.882 180.345 159.623 180.11 159.343C179.885 159.079 179.692 158.789 179.535 158.48C179.379 158.175 179.274 157.846 179.225 157.507C179.159 157.171 179.159 156.826 179.225 156.49C179.299 156.117 179.434 155.758 179.624 155.428C179.82 155.098 180.075 154.806 180.375 154.566C180.64 154.353 180.939 154.188 181.26 154.079C181.587 153.965 181.931 153.905 182.278 153.902C182.623 153.859 182.972 153.859 183.317 153.902C183.675 153.962 184.024 154.066 184.356 154.212C184.7 154.34 185.033 154.495 185.352 154.676L186.325 155.251C186.634 155.445 186.929 155.659 187.21 155.893C187.494 156.122 187.754 156.382 187.984 156.667C188.213 156.935 188.406 157.233 188.559 157.551C188.715 157.851 188.827 158.171 188.89 158.502C188.935 158.848 188.935 159.197 188.89 159.542C188.814 159.911 188.672 160.263 188.47 160.581C188.274 160.906 188.028 161.197 187.74 161.444C187.475 161.672 187.166 161.845 186.834 161.953C186.511 162.054 186.176 162.114 185.838 162.13C185.485 162.163 185.13 162.163 184.777 162.13C184.418 162.062 184.069 161.951 183.737 161.798C183.394 161.67 183.061 161.515 182.742 161.333L181.769 160.758ZM183.405 160.25C183.617 160.385 183.839 160.504 184.069 160.604C184.305 160.711 184.549 160.8 184.799 160.869C185.05 160.952 185.31 161.004 185.573 161.024C185.815 161.057 186.061 161.057 186.303 161.024C186.554 160.972 186.791 160.866 186.997 160.713C187.204 160.56 187.374 160.364 187.497 160.139C187.643 159.913 187.734 159.655 187.762 159.387C187.807 159.153 187.807 158.913 187.762 158.679C187.697 158.443 187.592 158.218 187.453 158.016C187.308 157.797 187.137 157.597 186.944 157.419C186.769 157.225 186.576 157.048 186.369 156.888L185.683 156.335L184.71 155.738L184.047 155.406C183.805 155.295 183.553 155.206 183.295 155.141L182.521 154.986C182.279 154.953 182.033 154.953 181.791 154.986C181.556 155.045 181.331 155.142 181.127 155.273C180.907 155.429 180.726 155.634 180.597 155.871C180.451 156.097 180.36 156.355 180.331 156.623C180.288 156.864 180.288 157.111 180.331 157.352C180.403 157.58 180.507 157.796 180.641 157.994C180.785 158.207 180.948 158.406 181.127 158.591C181.315 158.78 181.515 158.957 181.725 159.122L182.344 159.542L183.405 160.25Z" fill="white"/>
<path d="M132.826 188.471L134.065 188.184L136.144 196.898L139.727 196.146L137.515 187.432L138.753 187.144L140.965 196.876L134.927 198.313L132.826 188.471Z" fill="white"/>
<path d="M121.679 194.177C121.657 193.816 121.657 193.455 121.679 193.094C121.704 192.728 121.763 192.365 121.856 192.01C121.942 191.668 122.076 191.341 122.254 191.037C122.407 190.733 122.609 190.457 122.851 190.218C123.093 189.971 123.378 189.768 123.691 189.621C124.042 189.469 124.416 189.379 124.797 189.356C125.17 189.288 125.552 189.288 125.925 189.356C126.253 189.444 126.561 189.594 126.832 189.798C127.107 190.007 127.353 190.253 127.562 190.528C127.777 190.806 127.956 191.111 128.093 191.435C128.243 191.762 128.362 192.102 128.446 192.452C128.539 192.807 128.599 193.17 128.623 193.536V194.664C128.646 195.025 128.646 195.387 128.623 195.748C128.58 196.113 128.514 196.475 128.424 196.831C128.332 197.168 128.206 197.494 128.048 197.804C127.88 198.104 127.672 198.379 127.429 198.623C127.191 198.875 126.905 199.078 126.589 199.22C126.249 199.381 125.88 199.471 125.505 199.485C125.132 199.555 124.75 199.555 124.377 199.485C124.043 199.385 123.729 199.228 123.448 199.021C123.173 198.82 122.928 198.582 122.718 198.313C122.52 198.024 122.343 197.721 122.187 197.406C122.044 197.071 121.933 196.723 121.856 196.367C121.766 196.011 121.707 195.649 121.679 195.283V194.177ZM123.006 195.217C123.006 195.46 123.006 195.703 123.006 195.969C123.051 196.224 123.118 196.476 123.205 196.721C123.293 196.967 123.404 197.204 123.537 197.428C123.646 197.647 123.796 197.842 123.979 198.004C124.163 198.162 124.372 198.289 124.598 198.38C124.86 198.439 125.132 198.439 125.394 198.38C125.659 198.367 125.917 198.291 126.146 198.158C126.364 198.048 126.553 197.889 126.699 197.694C126.855 197.499 126.981 197.283 127.075 197.053C127.165 196.816 127.231 196.572 127.274 196.323C127.274 196.057 127.274 195.792 127.274 195.526V194.797V193.647C127.274 193.403 127.274 193.16 127.274 192.917C127.221 192.653 127.147 192.394 127.053 192.143C126.973 191.897 126.869 191.66 126.743 191.435C126.619 191.22 126.462 191.026 126.279 190.86C126.098 190.697 125.888 190.569 125.66 190.484C125.397 190.436 125.127 190.436 124.864 190.484C124.6 190.504 124.344 190.579 124.112 190.705C123.9 190.824 123.712 190.981 123.559 191.169C123.409 191.341 123.276 191.526 123.161 191.722C123.071 191.966 123.004 192.218 122.961 192.474C122.941 192.732 122.941 192.991 122.961 193.248C122.961 193.514 122.961 193.779 122.961 194L123.006 195.217Z" fill="white"/>
<path d="M109.891 192.165C109.986 191.732 110.142 191.315 110.356 190.926C110.552 190.57 110.815 190.255 111.13 189.997C111.438 189.736 111.801 189.548 112.191 189.444C112.62 189.311 113.071 189.266 113.518 189.312C113.897 189.348 114.27 189.437 114.624 189.577C114.938 189.717 115.229 189.903 115.487 190.13C115.724 190.37 115.932 190.637 116.106 190.926C116.269 191.23 116.402 191.548 116.504 191.877C116.596 192.226 116.662 192.581 116.703 192.939C116.725 193.3 116.725 193.662 116.703 194.023V195.416C116.658 195.788 116.592 196.157 116.504 196.522C116.415 196.866 116.289 197.2 116.128 197.517C115.986 197.832 115.808 198.128 115.597 198.402C115.385 198.663 115.131 198.887 114.845 199.065C114.562 199.257 114.248 199.4 113.916 199.485C113.543 199.553 113.161 199.553 112.788 199.485C112.33 199.454 111.881 199.342 111.461 199.154C111.105 198.967 110.783 198.72 110.51 198.424C110.239 198.107 110.036 197.739 109.913 197.34C109.771 196.911 109.689 196.464 109.67 196.013H110.953C110.95 196.306 110.995 196.597 111.085 196.876C111.163 197.13 111.282 197.369 111.439 197.583C111.586 197.804 111.783 197.986 112.014 198.114C112.285 198.247 112.577 198.329 112.877 198.357C113.14 198.406 113.41 198.406 113.673 198.357C114.141 198.203 114.535 197.879 114.779 197.451C114.911 197.233 115.023 197.004 115.111 196.765C115.2 196.514 115.267 196.254 115.31 195.991C115.31 195.748 115.31 195.482 115.31 195.239L115.42 193.846C115.443 193.588 115.443 193.329 115.42 193.072C115.453 192.807 115.453 192.54 115.42 192.275C115.375 192.027 115.308 191.783 115.221 191.545C115.131 191.32 115.004 191.111 114.845 190.926C114.704 190.726 114.514 190.566 114.292 190.462C114.042 190.346 113.772 190.279 113.496 190.263C113.211 190.206 112.918 190.206 112.634 190.263C112.384 190.341 112.157 190.478 111.97 190.661C111.786 190.852 111.629 191.068 111.506 191.302C111.38 191.564 111.283 191.838 111.218 192.12L109.891 192.165Z" fill="white"/>
<path d="M101.751 197.738L101.397 192.496L98.4779 196.92L96.9297 196.544L99.3625 186.834L100.557 187.122L99.5837 190.992L98.4779 195.018L101.574 190.24L102.282 190.417L102.658 195.924L103.543 191.988L104.494 188.117L105.71 188.405L103.255 198.114L101.751 197.738Z" fill="white"/>
<path d="M87.1095 186.79C87.253 186.46 87.4231 186.142 87.6182 185.839C87.8143 185.539 88.0285 185.251 88.2596 184.977C88.4979 184.712 88.7649 184.475 89.0558 184.269C89.3472 184.086 89.6589 183.937 89.9847 183.827C90.3086 183.736 90.6436 183.692 90.9799 183.694C91.3606 183.721 91.7341 183.811 92.0858 183.959C92.4356 184.11 92.7572 184.32 93.0368 184.579C93.2925 184.81 93.5025 185.088 93.6561 185.397C93.7924 185.71 93.8961 186.036 93.9657 186.37C93.9988 186.723 93.9988 187.079 93.9657 187.432C93.9466 187.79 93.8948 188.145 93.8109 188.493C93.7269 188.848 93.616 189.195 93.4791 189.533L93.0147 190.572C92.876 190.912 92.7057 191.238 92.506 191.545C92.3249 191.856 92.1097 192.145 91.8646 192.408C91.6259 192.666 91.3588 192.896 91.0684 193.094C90.7825 193.292 90.4697 193.448 90.1395 193.558C89.8126 193.67 89.4667 193.715 89.1221 193.691C88.7419 193.661 88.3688 193.571 88.0163 193.425C87.665 193.277 87.3429 193.067 87.0653 192.806C86.8163 192.573 86.6137 192.296 86.4681 191.988C86.309 191.684 86.2042 191.355 86.1585 191.015C86.1138 190.662 86.1138 190.305 86.1585 189.953C86.185 189.594 86.2442 189.239 86.3354 188.891C86.4193 188.537 86.5302 188.189 86.6672 187.852L87.1095 186.79ZM87.7951 188.361C87.7951 188.582 87.6403 188.803 87.5518 189.068C87.4799 189.316 87.4209 189.567 87.3749 189.82C87.3523 190.078 87.3523 190.337 87.3749 190.594C87.372 191.091 87.5532 191.572 87.8836 191.943C88.0655 192.143 88.2932 192.295 88.5471 192.386C88.7809 192.487 89.0331 192.54 89.288 192.54C89.5429 192.54 89.7951 192.487 90.0289 192.386C90.241 192.274 90.4411 192.14 90.6261 191.988C90.8196 191.812 90.9973 191.62 91.1569 191.413C91.3242 191.213 91.4723 190.999 91.5992 190.771C91.7319 190.535 91.8425 190.314 91.931 190.108L92.3954 189.046C92.3954 188.825 92.5502 188.582 92.6387 188.338C92.7133 188.086 92.7651 187.826 92.7935 187.564C92.8271 187.307 92.8271 187.047 92.7935 186.79C92.7965 186.541 92.7514 186.293 92.6608 186.06C92.574 185.833 92.4466 185.623 92.2848 185.441C92.1029 185.242 91.8752 185.09 91.6213 184.999C91.3772 184.89 91.1143 184.83 90.8472 184.822C90.6019 184.834 90.3614 184.894 90.1395 184.999C89.9123 185.096 89.703 185.231 89.5202 185.397C89.3338 185.573 89.1636 185.765 89.0115 185.972C88.8442 186.171 88.6961 186.386 88.5692 186.613C88.4451 186.835 88.3343 187.064 88.2375 187.299L87.7951 188.361Z" fill="white"/>
<path d="M74.1727 184.446L76.8046 186.105L81.5376 178.452L82.5992 179.116L77.8441 186.657L80.4538 188.316L79.8788 189.223L73.5977 185.286L74.1727 184.446Z" fill="white"/>
<path d="M71.7395 176.24L74.3714 173.21L75.3445 174.051L68.7095 181.571L66.2767 179.359C65.9568 179.069 65.6811 178.734 65.4583 178.364C65.2515 178.016 65.1092 177.634 65.0381 177.236C64.9613 176.849 64.9613 176.45 65.0381 176.064C65.1689 175.639 65.3874 175.248 65.6795 174.913C65.962 174.579 66.3177 174.314 66.719 174.139C67.0806 173.979 67.4739 173.904 67.8691 173.918C68.2746 173.919 68.675 174.01 69.0413 174.184C69.4477 174.344 69.8222 174.577 70.1471 174.869L71.7395 176.24ZM71.0539 177.015L69.5499 175.71C69.3456 175.533 69.114 175.392 68.8643 175.289C68.628 175.183 68.3713 175.131 68.1124 175.135C67.8517 175.146 67.5965 175.214 67.3638 175.332C67.1312 175.45 66.9265 175.617 66.7632 175.82C66.5722 176.026 66.4221 176.266 66.3209 176.528C66.278 176.777 66.278 177.031 66.3209 177.28C66.3616 177.535 66.4438 177.781 66.5642 178.01C66.7001 178.248 66.8717 178.464 67.0729 178.651L68.5547 179.956L71.0539 177.015Z" fill="white"/>
<path d="M56.4778 169.141L55.6816 168.168L63.4446 161.799L64.2408 162.794L58.5126 167.394L66.541 165.536L67.3372 166.509L59.6184 172.879L58.8222 171.884L64.5062 167.394L56.4778 169.141Z" fill="white"/>
<path d="M49.3781 156.335L50.9484 159.011L58.645 154.588L59.2643 155.65L51.5677 160.073L53.138 162.749L52.2091 163.302L48.4492 156.888L49.3781 156.335Z" fill="white"/>
<path d="M48.8921 144.348L50.4181 148.24L53.7135 146.958L51.9442 142.402L52.9615 142.026L55.1732 147.732L45.8621 151.381L43.6504 145.697L44.6678 145.299L46.415 149.722L49.4007 148.55L47.9632 144.724L48.8921 144.348Z" fill="white"/>
<path d="M49.5562 126.257L39.5816 126.787L39.4046 123.824C39.3599 123.42 39.3599 123.012 39.4046 122.607C39.4844 122.226 39.6264 121.859 39.8249 121.524C40.0247 121.213 40.2887 120.949 40.599 120.75C40.9632 120.541 41.3737 120.427 41.7933 120.418C42.0344 120.372 42.282 120.372 42.5231 120.418C42.7252 120.491 42.9182 120.588 43.0981 120.705C43.2861 120.831 43.4507 120.988 43.5847 121.17C43.7235 121.356 43.8421 121.556 43.9386 121.767C44.0012 121.501 44.1057 121.248 44.2482 121.015C44.3669 120.784 44.5327 120.581 44.7348 120.418C44.9333 120.245 45.157 120.103 45.3983 119.998C45.6589 119.892 45.9357 119.832 46.2166 119.821C46.6464 119.793 47.0769 119.861 47.4773 120.02C47.831 120.181 48.1473 120.415 48.4062 120.705C48.6758 121.01 48.8859 121.363 49.0254 121.745C49.1605 122.139 49.2496 122.547 49.2908 122.961L49.5562 126.257ZM43.7616 125.372V123.603C43.7441 123.368 43.692 123.137 43.6068 122.917C43.5327 122.7 43.4204 122.497 43.2751 122.32C43.124 122.15 42.9444 122.008 42.7443 121.9C42.5194 121.842 42.2835 121.842 42.0587 121.9C41.8075 121.888 41.5594 121.958 41.3509 122.099C41.1611 122.204 41.0013 122.357 40.8865 122.541C40.7697 122.739 40.6874 122.956 40.6432 123.182C40.6213 123.425 40.6213 123.669 40.6432 123.912L40.7538 125.659L43.7616 125.372ZM44.8232 125.372L48.4283 125.195L48.3177 123.16C48.2928 122.903 48.2333 122.65 48.1408 122.408C48.0502 122.184 47.9148 121.981 47.7427 121.811C47.5802 121.635 47.3849 121.492 47.1676 121.391C46.6847 121.199 46.1466 121.199 45.6637 121.391C45.4576 121.5 45.2765 121.651 45.1318 121.833C44.9872 122.016 44.8821 122.227 44.8232 122.453C44.7407 122.702 44.7033 122.964 44.7127 123.227L44.8232 125.372Z" fill="white"/>
<path d="M39.9351 109.161L40.0678 107.9L50.0203 108.962L49.8876 110.222L42.5449 109.448L49.4895 113.871L49.3568 115.132L39.4043 114.07L39.537 112.81L46.8798 113.606L39.9351 109.161Z" fill="white"/>
<path d="M55.085 98.2569L54.7754 99.3628L52.3868 98.832L51.104 103.499L53.4926 104.162L53.2051 105.202L49.777 104.45L49.8876 104.029C49.793 103.769 49.6505 103.529 49.4674 103.322C49.21 103.064 48.92 102.841 48.6048 102.658C48.1832 102.418 47.7474 102.204 47.2999 102.017L45.4864 101.375L41.6602 100.115L42.8323 95.6914L51.48 98.0579L51.7233 97.2175L55.085 98.2569ZM45.8402 100.026C46.7793 100.312 47.696 100.667 48.5827 101.088C49.2345 101.376 49.8327 101.772 50.352 102.26L51.1703 99.2964L43.5401 97.0848L43.0093 98.9868L45.8402 100.026Z" fill="white"/>
<path d="M52.3865 86.3358L50.6393 90.1399L53.8683 91.5996L55.9031 87.1762L56.8762 87.6407L54.3328 93.2141L45.2207 89.0782L47.742 83.5491L48.7373 83.9914L46.7468 88.4148L49.6662 89.7417L51.3913 85.9377L52.3865 86.3358Z" fill="white"/>
<path d="M59.1994 75.4324C59.4942 75.6343 59.775 75.856 60.0398 76.0959C60.3057 76.3397 60.5499 76.6061 60.7697 76.8922C60.9827 77.176 61.1678 77.4796 61.3226 77.7989C61.452 78.1108 61.5412 78.4378 61.588 78.7721C61.643 79.1164 61.643 79.4672 61.588 79.8116C61.4853 80.1791 61.3288 80.5293 61.1236 80.851C60.9185 81.1695 60.656 81.447 60.3495 81.6694C60.073 81.8647 59.7668 82.0141 59.4427 82.1117C59.1156 82.2222 58.7699 82.2673 58.4253 82.2444C58.0674 82.2433 57.7109 82.1987 57.3637 82.1117C57.015 82.0235 56.6745 81.9051 56.3463 81.7578C56.0158 81.615 55.6976 81.4448 55.3953 81.2491L54.4443 80.6078C54.1384 80.4116 53.8498 80.1896 53.5818 79.9443C53.3159 79.7005 53.0717 79.4341 52.8519 79.1481C52.6379 78.8691 52.4596 78.5644 52.3211 78.2413C52.1747 77.9262 52.0778 77.5906 52.0336 77.246C51.968 76.9101 51.968 76.5646 52.0336 76.2287C52.1223 75.8563 52.2798 75.5037 52.498 75.1892C52.7088 74.8689 52.9703 74.5851 53.2721 74.3487C53.5486 74.1534 53.8548 74.004 54.1789 73.9064C54.5107 73.8175 54.8528 73.7728 55.1963 73.7737C55.5541 73.7927 55.9095 73.8446 56.2579 73.9285C56.6096 74.0066 56.951 74.1254 57.2752 74.2824C57.6015 74.434 57.919 74.6038 58.2263 74.7911L59.1994 75.4324ZM57.5406 75.8305L56.8771 75.4767C56.6516 75.3511 56.4147 75.2475 56.1694 75.167C55.9264 75.0792 55.6741 75.0198 55.4174 74.9901C55.1686 74.9472 54.9143 74.9472 54.6655 74.9901C54.4295 75.0359 54.2044 75.1259 54.002 75.2555C53.7692 75.3917 53.5721 75.5812 53.4269 75.8084C53.2803 76.0366 53.1824 76.2926 53.1394 76.5604C53.1064 76.7952 53.1064 77.0334 53.1394 77.2681C53.2026 77.509 53.2994 77.7398 53.4269 77.9538C53.5619 78.1743 53.7174 78.3817 53.8914 78.573C54.0721 78.7684 54.2641 78.9531 54.4664 79.1259L55.0415 79.5683L56.0146 80.2097L56.656 80.5635C56.8909 80.6853 57.135 80.7888 57.3858 80.8732C57.6311 80.953 57.8826 81.0122 58.1378 81.0501C58.4237 81.1392 58.7246 81.1693 59.0225 81.1386C59.2584 81.0928 59.4836 81.0028 59.686 80.8732C59.9138 80.7305 60.1096 80.5423 60.261 80.3202C60.41 80.0933 60.5081 79.8368 60.5485 79.5683C60.604 79.3356 60.604 79.0932 60.5485 78.8605C60.4853 78.6196 60.3885 78.3888 60.261 78.1749C60.126 77.9544 59.9705 77.747 59.7966 77.5557C59.5625 77.3209 59.3029 77.1132 59.0225 76.9364C58.8344 76.768 58.6349 76.6128 58.4253 76.4719L57.5406 75.8305Z" fill="white"/>
<path d="M72.3362 62.5383L69.5273 59.7295L73.1324 58.9554L76.7153 58.1592L75.9191 61.7421L75.145 65.3471L72.3362 62.5383Z" fill="white"/>
<path d="M165.692 178.209L168.5 180.996L164.895 181.792L161.312 182.588L162.109 178.983L162.905 175.4L165.692 178.209Z" fill="white"/>
<path d="M105.844 119.489V99.2302L121.701 109.36L137.581 119.489L121.701 129.641L105.844 139.77V119.489Z" fill="white"/>
</svg>
