<svg width="64" height="64" viewBox="0 0 64 64" fill="none" xmlns="http://www.w3.org/2000/svg">
<g clip-path="url(#clip0)">
<path fill-rule="evenodd" clip-rule="evenodd" d="M44.1704 51.6331C39.7593 51.64 35.4731 50.1676 31.9974 47.4514C29.07 49.7327 25.5609 51.146 21.8696 51.5305C18.1782 51.915 14.4531 51.2552 11.1185 49.6262C7.7838 47.9972 4.97361 45.4645 3.00791 42.3165C1.0422 39.1686 0 35.5319 0 31.8206C0 28.1093 1.0422 24.4726 3.00791 21.3246C4.97361 18.1767 7.7838 15.644 11.1185 14.015C14.4531 12.386 18.1782 11.7262 21.8696 12.1107C25.5609 12.4952 29.07 13.9085 31.9974 16.1898C34.4864 14.2489 37.4029 12.9305 40.5043 12.3445C43.6057 11.7585 46.8022 11.9218 49.8278 12.8208C52.8533 13.7198 55.6203 15.3285 57.8985 17.513C60.1767 19.6974 61.9002 22.3945 62.9254 25.3796C63.9507 28.3647 64.248 31.5516 63.7928 34.6748C63.3375 37.7981 62.1428 40.7675 60.3081 43.3357C58.4734 45.904 56.0518 47.9968 53.2448 49.44C50.4378 50.8833 47.3267 51.6352 44.1704 51.6331ZM34.6828 18.7457C37.7402 22.248 39.6086 28.5731 39.6086 31.8165C39.6086 35.06 39.4468 34.7365 39.1395 36.1196C41.0507 35.2842 42.6162 33.8165 43.573 31.963C44.5297 30.1095 44.8194 27.9833 44.3934 25.9414C43.9673 23.8995 42.8516 22.0665 41.2335 20.7503C39.6154 19.434 37.5936 18.7148 35.5078 18.7134C35.2328 18.7134 34.6989 18.7134 34.6989 18.7134L34.6828 18.7457ZM28.4385 26.7451C30.6882 26.7432 32.8588 27.5754 34.5305 29.081C36.2022 30.5865 37.2563 32.6585 37.489 34.8961C37.7217 37.1338 37.1165 39.3782 35.7903 41.1955C34.4642 43.0128 32.5113 44.2739 30.3093 44.7349C28.1073 45.1959 25.8126 44.8241 23.8689 43.6913C21.9251 42.5586 20.4704 40.7454 19.786 38.6023C19.1016 36.4592 19.2361 34.1385 20.1634 32.0888C21.0908 30.0391 22.7453 28.4061 24.8068 27.5054C24.1343 30.5455 24.1858 33.7011 24.9571 36.7176C25.7285 39.7341 27.1981 42.5271 29.2474 44.8712C31.3638 44.6832 33.3472 43.7584 34.8518 42.2582C36.3565 40.758 37.287 38.7774 37.4813 36.6615C36.8338 36.8082 36.1717 36.8814 35.5078 36.8799C33.0987 36.8799 30.7884 35.9229 29.0849 34.2195C27.3815 32.516 26.4245 30.2056 26.4245 27.7966C26.4245 27.5135 26.4245 27.2385 26.465 26.9878C27.1131 26.8446 27.7747 26.7714 28.4385 26.7694V26.7451Z" fill="#001AA5"/>
</g>
<defs>
<clipPath id="clip0">
<rect width="64" height="64" fill="white"/>
</clipPath>
</defs>
</svg>
