<svg width="238" height="32" viewBox="0 0 238 32" fill="none" xmlns="http://www.w3.org/2000/svg">
<path d="M23.4789 24.5614H19.0898L21.8351 7.58691H26.2239L23.4789 24.5614Z" fill="#00579F"/>
<path d="M39.3887 8.00197C38.523 7.65851 37.1499 7.2793 35.452 7.2793C31.1177 7.2793 28.0655 9.5906 28.0467 12.8951C28.0107 15.3331 30.232 16.6872 31.8934 17.5002C33.5915 18.3308 34.1687 18.873 34.1687 19.6135C34.1514 20.7506 32.7966 21.2748 31.5329 21.2748C29.7806 21.2748 28.8417 21.0046 27.4148 20.3719L26.8368 20.1007L26.2227 23.9111C27.2521 24.3801 29.1486 24.7963 31.1177 24.8145C35.723 24.8145 38.7212 22.539 38.7567 19.0175C38.7743 17.0852 37.6013 15.6046 35.0726 14.3947C33.5375 13.618 32.5973 13.0943 32.5973 12.2996C32.6153 11.5772 33.3925 10.8372 35.1254 10.8372C36.5522 10.801 37.6006 11.144 38.3948 11.4872L38.7918 11.6674L39.3887 8.00197Z" fill="#00579F"/>
<path d="M45.2242 18.548C45.5857 17.5728 46.9765 13.7986 46.9765 13.7986C46.9583 13.8349 47.3373 12.8055 47.554 12.1735L47.8607 13.6361C47.8607 13.6361 48.6919 17.6993 48.8724 18.548C48.1864 18.548 46.0911 18.548 45.2242 18.548ZM50.642 7.58691H47.247C46.2001 7.58691 45.4047 7.89365 44.953 8.9953L38.4336 24.5612H43.0389C43.0389 24.5612 43.7971 22.4662 43.9601 22.0149C44.4653 22.0149 48.9454 22.0149 49.5953 22.0149C49.7213 22.6109 50.119 24.5612 50.119 24.5612H54.1829L50.642 7.58691Z" fill="#00579F"/>
<path d="M15.4217 7.58691L11.1233 19.1619L10.6536 16.8144C9.85897 14.1056 7.3667 11.1626 4.58545 9.69925L8.52259 24.5434H13.1639L20.0628 7.58691H15.4217Z" fill="#00579F"/>
<path d="M7.13384 7.58691H0.0722433L0 7.92989C5.50849 9.33851 9.15666 12.7339 10.6555 16.8151L9.12041 9.01378C8.86768 7.92965 8.09101 7.62268 7.13384 7.58691Z" fill="#FAA61A"/>
<path d="M139.662 31.5659V31.6492H139.739C139.756 31.6492 139.77 31.6451 139.781 31.6387C139.79 31.6322 139.796 31.6209 139.796 31.6071C139.796 31.5934 139.79 31.5829 139.781 31.5764C139.77 31.5691 139.756 31.5659 139.739 31.5659H139.662ZM139.74 31.5077C139.779 31.5077 139.81 31.5166 139.832 31.5344C139.854 31.5522 139.864 31.5764 139.864 31.6071C139.864 31.633 139.856 31.654 139.838 31.671C139.821 31.6872 139.797 31.6977 139.765 31.7017L139.866 31.8189H139.787L139.693 31.7025H139.662V31.8189H139.596V31.5077H139.74ZM139.719 31.9264C139.756 31.9264 139.79 31.9192 139.82 31.9054C139.852 31.8917 139.879 31.8731 139.903 31.8496C139.926 31.8262 139.945 31.7987 139.959 31.7664C139.972 31.7349 139.979 31.7009 139.979 31.6645C139.979 31.6282 139.972 31.5942 139.959 31.5627C139.945 31.5311 139.926 31.5029 139.903 31.4794C139.879 31.456 139.852 31.4374 139.82 31.4236C139.79 31.4107 139.756 31.4042 139.719 31.4042C139.683 31.4042 139.648 31.4107 139.617 31.4236C139.584 31.4374 139.556 31.456 139.533 31.4794C139.509 31.5029 139.491 31.5311 139.478 31.5627C139.464 31.5942 139.457 31.6282 139.457 31.6645C139.457 31.7009 139.464 31.7349 139.478 31.7664C139.491 31.7987 139.509 31.8262 139.533 31.8496C139.556 31.8731 139.584 31.8917 139.617 31.9054C139.648 31.9192 139.683 31.9264 139.719 31.9264ZM139.719 31.3291C139.767 31.3291 139.811 31.3379 139.853 31.3557C139.894 31.3727 139.93 31.397 139.961 31.4277C139.992 31.4576 140.016 31.4932 140.034 31.5344C140.052 31.5748 140.06 31.6185 140.06 31.6645C140.06 31.7106 140.052 31.7543 140.034 31.7947C140.016 31.8351 139.992 31.8707 139.961 31.9014C139.93 31.9313 139.894 31.9555 139.853 31.9733C139.811 31.9911 139.767 32 139.719 32C139.671 32 139.626 31.9911 139.584 31.9733C139.542 31.9555 139.506 31.9313 139.475 31.9014C139.444 31.8707 139.42 31.8351 139.402 31.7947C139.385 31.7543 139.376 31.7106 139.376 31.6645C139.376 31.6185 139.385 31.5748 139.402 31.5344C139.42 31.4932 139.444 31.4576 139.475 31.4277C139.506 31.397 139.542 31.3727 139.584 31.3557C139.626 31.3379 139.671 31.3291 139.719 31.3291ZM108.225 30.1302C108.225 29.5369 108.613 29.0495 109.249 29.0495C109.856 29.0495 110.266 29.5159 110.266 30.1302C110.266 30.7446 109.856 31.211 109.249 31.211C108.613 31.211 108.225 30.7236 108.225 30.1302ZM110.958 30.1302V28.4424H110.224V28.8522C109.991 28.5483 109.638 28.3575 109.157 28.3575C108.211 28.3575 107.469 29.0996 107.469 30.1302C107.469 31.1617 108.211 31.903 109.157 31.903C109.638 31.903 109.991 31.7122 110.224 31.4083V31.8181H110.958V30.1302ZM135.762 30.1302C135.762 29.5369 136.15 29.0495 136.786 29.0495C137.394 29.0495 137.803 29.5159 137.803 30.1302C137.803 30.7446 137.394 31.211 136.786 31.211C136.15 31.211 135.762 30.7236 135.762 30.1302ZM138.495 30.1302V27.0867H137.761V28.8522C137.528 28.5483 137.175 28.3575 136.694 28.3575C135.748 28.3575 135.006 29.0996 135.006 30.1302C135.006 31.1617 135.748 31.903 136.694 31.903C137.175 31.903 137.528 31.7122 137.761 31.4083V31.8181H138.495V30.1302ZM120.069 29.0147C120.542 29.0147 120.846 29.3114 120.923 29.8336H119.171C119.25 29.3461 119.546 29.0147 120.069 29.0147ZM120.083 28.3575C119.094 28.3575 118.402 29.0778 118.402 30.1302C118.402 31.2038 119.122 31.903 120.133 31.903C120.641 31.903 121.107 31.7761 121.517 31.4301L121.157 30.8861C120.874 31.1116 120.513 31.2393 120.175 31.2393C119.702 31.2393 119.271 31.0203 119.165 30.4124H121.672C121.679 30.321 121.686 30.2289 121.686 30.1302C121.679 29.0778 121.029 28.3575 120.083 28.3575ZM128.946 30.1302C128.946 29.5369 129.335 29.0495 129.97 29.0495C130.578 29.0495 130.987 29.5159 130.987 30.1302C130.987 30.7446 130.578 31.211 129.97 31.211C129.335 31.211 128.946 30.7236 128.946 30.1302ZM131.679 30.1302V28.4424H130.945V28.8522C130.712 28.5483 130.359 28.3575 129.879 28.3575C128.932 28.3575 128.19 29.0996 128.19 30.1302C128.19 31.1617 128.932 31.903 129.879 31.903C130.359 31.903 130.712 31.7122 130.945 31.4083V31.8181H131.679V30.1302ZM124.801 30.1302C124.801 31.1544 125.514 31.903 126.602 31.903C127.11 31.903 127.449 31.7898 127.816 31.5004L127.464 30.9071C127.188 31.1051 126.899 31.211 126.58 31.211C125.994 31.2038 125.563 30.7802 125.563 30.1302C125.563 29.4803 125.994 29.0567 126.58 29.0495C126.899 29.0495 127.188 29.1554 127.464 29.3534L127.816 28.7601C127.449 28.4707 127.11 28.3575 126.602 28.3575C125.514 28.3575 124.801 29.106 124.801 30.1302ZM134.264 28.3575C133.841 28.3575 133.565 28.5556 133.374 28.8522V28.4424H132.647V31.8181H133.382V29.9257C133.382 29.3672 133.622 29.0567 134.102 29.0567C134.251 29.0567 134.406 29.0778 134.561 29.1416L134.787 28.4497C134.625 28.3858 134.413 28.3575 134.264 28.3575ZM114.588 28.7108C114.235 28.4779 113.748 28.3575 113.211 28.3575C112.356 28.3575 111.806 28.7673 111.806 29.4383C111.806 29.9888 112.215 30.3283 112.97 30.4342L113.317 30.4835C113.72 30.5401 113.91 30.646 113.91 30.8368C113.91 31.0979 113.641 31.2466 113.14 31.2466C112.632 31.2466 112.265 31.0841 112.017 30.8933L111.671 31.4649C112.074 31.7615 112.582 31.903 113.133 31.903C114.108 31.903 114.673 31.4438 114.673 30.8012C114.673 30.2079 114.228 29.8974 113.494 29.7915L113.148 29.7414C112.83 29.6994 112.575 29.6363 112.575 29.41C112.575 29.1626 112.815 29.0147 113.218 29.0147C113.649 29.0147 114.066 29.1772 114.27 29.3041L114.588 28.7108ZM124.059 28.3575C123.635 28.3575 123.36 28.5556 123.17 28.8522V28.4424H122.442V31.8181H123.176V29.9257C123.176 29.3672 123.416 29.0567 123.896 29.0567C124.045 29.0567 124.2 29.0778 124.356 29.1416L124.582 28.4497C124.419 28.3858 124.208 28.3575 124.059 28.3575ZM117.795 28.4424L116.594 28.4424V27.4182H115.852V28.4424H115.168V29.1133H115.852V30.6533C115.852 31.4366 116.156 31.903 117.024 31.903C117.343 31.903 117.71 31.8044 117.943 31.6419L117.731 31.013C117.512 31.1399 117.272 31.2038 117.081 31.2038C116.714 31.2038 116.594 30.9774 116.594 30.6387V29.1133L117.795 29.1133V28.4424ZM106.82 31.8181V29.6994C106.82 28.9015 106.311 28.3648 105.491 28.3575C105.061 28.3502 104.616 28.4844 104.305 28.9581C104.072 28.5838 103.705 28.3575 103.189 28.3575C102.829 28.3575 102.476 28.4634 102.201 28.8587V28.4424H101.466V31.8181H102.207V29.9467C102.207 29.3607 102.532 29.0495 103.034 29.0495C103.521 29.0495 103.768 29.3672 103.768 29.9395V31.8181H104.51V29.9467C104.51 29.3607 104.849 29.0495 105.336 29.0495C105.837 29.0495 106.078 29.3672 106.078 29.9395V31.8181H106.82Z" fill="#231F20"/>
<path d="M140.704 21.4287V20.4248H140.507L140.278 21.1144L140.051 20.4248H139.852V21.4287H139.993V20.6717L140.206 21.325H140.352L140.565 20.67V21.4287H140.704ZM139.451 21.4287V20.596H139.704V20.4265H139.059V20.596H139.312V21.4287H139.451Z" fill="#F79410"/>
<path d="M125.504 22.7127H114.38V2.72021H125.504V22.7127Z" fill="#FF5F00"/>
<path d="M115.091 12.7149C115.091 8.65932 116.989 5.04673 119.946 2.71863C117.784 1.01621 115.055 9.34601e-05 112.089 9.34601e-05C105.068 9.34601e-05 99.376 5.69261 99.376 12.7149C99.376 19.7372 105.068 25.4297 112.089 25.4297C115.055 25.4297 117.784 24.4136 119.946 22.7112C116.989 20.3831 115.091 16.7705 115.091 12.7149Z" fill="#EB001B"/>
<path d="M140.505 12.7149C140.505 19.7372 134.814 25.4297 127.792 25.4297C124.826 25.4297 122.097 24.4136 119.934 22.7112C122.892 20.3831 124.791 16.7705 124.791 12.7149C124.791 8.65932 122.892 5.04673 119.934 2.71863C122.097 1.01621 124.826 9.34601e-05 127.792 9.34601e-05C134.814 9.34601e-05 140.505 5.69261 140.505 12.7149Z" fill="#F79E1B"/>
<path fill-rule="evenodd" clip-rule="evenodd" d="M232.04 8.37646H221.836C222.385 11.7776 225.676 14.9592 229.297 14.9592H237.416C237.525 14.6301 237.525 14.1912 237.525 13.8621C237.525 10.7901 235.112 8.37646 232.04 8.37646Z" fill="url(#paint0_linear)"/>
<path fill-rule="evenodd" clip-rule="evenodd" d="M222.715 15.5078V23.7362H227.652V19.3477H232.041C234.455 19.3477 236.539 17.7021 237.197 15.5078H222.715Z" fill="#4DB45F"/>
<path fill-rule="evenodd" clip-rule="evenodd" d="M205.165 8.37646V23.7362H209.553C209.553 23.7362 210.65 23.7362 211.199 22.6391C214.161 16.7146 215.039 14.9592 215.039 14.9592H215.587V23.7362H220.524V8.37646H216.136C216.136 8.37646 215.039 8.48618 214.49 9.47359C211.967 14.5204 210.65 17.1535 210.65 17.1535H210.102V8.37646H205.165Z" fill="#4DB45F"/>
<path fill-rule="evenodd" clip-rule="evenodd" d="M184.317 23.7362V8.37646H189.254C189.254 8.37646 190.68 8.37646 191.448 10.5707C193.423 16.3855 193.642 17.1535 193.642 17.1535C193.642 17.1535 194.081 15.7272 195.837 10.5707C196.605 8.37646 198.031 8.37646 198.031 8.37646H202.968V23.7362H198.031V15.5078H197.482L194.74 23.7362H192.545L189.803 15.5078H189.254V23.7362H184.317Z" fill="#4DB45F"/>
<defs>
<linearGradient id="paint0_linear" x1="221.808" y1="11.6678" x2="237.525" y2="11.6678" gradientUnits="userSpaceOnUse">
<stop stop-color="#00B4E6"/>
<stop offset="1" stop-color="#088CCB"/>
</linearGradient>
</defs>
</svg>
