<svg width="49" height="49" viewBox="0 0 49 49" fill="none" xmlns="http://www.w3.org/2000/svg">
<path d="M11.6758 41.918H42.3008V43.4492H11.6758V41.918Z" fill="#0029FF"/>
<path d="M37.3242 13.207V48.4258H6.69922V5.55078H29.668L37.3242 13.207Z" fill="white"/>
<path d="M29.668 13.207H37.3242V14.7383H29.668V13.207Z" fill="#DCE1E7"/>
<path d="M6.69922 46.8945H37.3242V48.4258H6.69922V46.8945Z" fill="#DCE1E7"/>
<path d="M37.3242 13.207H29.668V5.55078" fill="#0029FF"/>
<path d="M11.1016 0V4.97656H6.125V49H37.8984V44.0234H42.875V0H11.1016ZM36.75 47.8516H7.27344V6.125H29.0938V13.7812H36.75V47.8516ZM30.2422 12.6328V6.93704L35.938 12.6328H30.2422ZM41.7266 42.875H37.8984V12.9692L29.9058 4.97656H12.25V1.14844H41.7266V42.875Z" fill="#242424"/>
<path d="M11.293 11.1016H20.4805V12.25H11.293V11.1016Z" fill="#242424"/>
<path d="M11.293 14.1641H17.418V15.3125H11.293V14.1641Z" fill="#242424"/>
<path d="M11.293 18.7578H32.7305V19.9062H11.293V18.7578Z" fill="#242424"/>
<path d="M11.293 21.8203H32.7305V22.9688H11.293V21.8203Z" fill="#242424"/>
<path d="M11.293 27.9453H32.7305V29.0938H11.293V27.9453Z" fill="#242424"/>
<path d="M11.293 31.0078H26.6055V32.1562H11.293V31.0078Z" fill="#242424"/>
<path d="M11.293 24.8828H32.7305V26.0312H11.293V24.8828Z" fill="#242424"/>
<path d="M25.0742 35.6016H32.7305V36.75H25.0742V35.6016Z" fill="#242424"/>
</svg>
