<svg width="1201" height="88" viewBox="0 0 1201 88" fill="none" xmlns="http://www.w3.org/2000/svg">
<circle cx="41.1335" cy="43.3874" r="41.1335" fill="#001AA5"/>
<path d="M22.2696 23.4508L20.2367 25.4467L22.4355 27.5794L21.8132 28.1946L16.9039 23.3551L19.9048 20.4158L20.4303 20.9353L18.0517 23.2867L19.6697 24.9136L21.7441 22.9313L22.2696 23.4508Z" fill="#0029FF"/>
<path d="M25.3395 21.031L25.2012 22.152L26.3905 24.107L25.6437 24.5718L21.9791 18.8163L22.7258 18.3378L24.5236 21.154L24.6481 20.115L25.0076 16.9297L25.9065 16.3691L25.464 20.156L29.7095 22.0426L28.8106 22.6032L25.3395 21.031Z" fill="#0029FF"/>
<path d="M31.0099 20.7987L34.1767 19.6914L34.4257 20.3749L30.4291 21.7421L28.1197 15.3713L28.9494 15.0842L31.0099 20.7987Z" fill="#0029FF"/>
<path d="M68.4719 41.5784L68.0156 38.8442L65.0147 39.3226L64.8626 38.4477L71.6664 37.3677L72.3302 41.469L71.5973 41.592L71.0718 38.3247L68.7485 38.6938L69.191 41.4963L68.4719 41.5784Z" fill="#0029FF"/>
<path d="M68.6793 45.475L67.8633 44.6684L65.5401 44.5317V43.6567L72.4546 44.0395V44.9282L69.0941 44.7368L69.8824 45.434L72.2195 47.5667L72.1503 48.6193L69.2877 46.0765L65.305 48.4006V47.3479L68.6793 45.475Z" fill="#0029FF"/>
<path d="M65.5821 50.1638L64.6693 53.3628L63.9226 53.1577L65.0842 49.0564L71.6945 50.9157L71.4594 51.7496L65.5821 50.1638Z" fill="#0029FF"/>
<path d="M32.3233 70.6984L35.0891 71.3682L35.822 68.4016L36.6794 68.6067L35.0476 75.2372L30.8989 74.2392L31.0787 73.5283L34.3285 74.3075L34.8817 72.0518L32.1159 71.3819L32.3233 70.6984Z" fill="#0029FF"/>
<path d="M28.6032 69.3718L29.6819 68.9344L30.7329 66.87L31.535 67.2665L28.4926 73.3638L27.6905 72.9673L29.1702 69.987L28.216 70.4382L25.2013 71.7916L24.2471 71.3268L27.7873 69.7683L27.2065 65.2158L28.1607 65.6806L28.6032 69.3718Z" fill="#0029FF"/>
<path d="M25.4639 64.7237L22.8364 62.632L23.3066 62.0579L26.5841 64.6827L22.3109 69.9871L21.6195 69.4539L25.4639 64.7237Z" fill="#0029FF"/>
<circle cx="41.5108" cy="43.7647" r="16.8591" stroke="white"/>
<circle cx="41.5106" cy="43.7645" r="12.3306" stroke="#0029FF"/>
<circle r="4.02845" transform="matrix(-1 0 0 1 56.6055 19.6133)" stroke="white"/>
<circle r="4.02845" transform="matrix(-1 0 0 1 56.6055 67.1614)" stroke="white"/>
<circle r="4.02845" transform="matrix(-1 0 0 1 12.8305 46.7836)" stroke="white"/>
<rect x="145.218" width="62.1556" height="62.1556" rx="5" transform="rotate(45 145.218 0)" fill="#001AA5"/>
<circle cx="145.672" cy="44.4059" r="16.8591" stroke="white"/>
<circle cx="145.672" cy="44.4057" r="12.3306" stroke="#0029FF"/>
<circle r="4.02845" transform="matrix(-1 0 0 1 145.238 13.5442)" stroke="white"/>
<circle r="4.02845" transform="matrix(-1 0 0 1 145.238 73.2722)" stroke="white"/>
<circle r="4.02845" transform="matrix(-1 0 0 1 175.666 43.9714)" stroke="white"/>
<circle r="4.02845" transform="matrix(-1 0 0 1 113.684 43.9714)" stroke="white"/>
<path d="M126 30.2008L123.878 32.323L126.13 34.5746L125.475 35.2295L120.376 30.1308L123.507 27.0001L124.06 27.5534L121.585 30.0292L123.328 31.7731L125.451 29.651L126 30.2008ZM128.578 27.3923L128.655 28.604L130.378 30.3269L129.716 30.9887L124.617 25.89L125.279 25.2282L127.769 27.718L127.646 26.6079L127.268 23.2391L128.056 22.4512L128.504 26.4643L133.274 27.4308L132.486 28.2187L128.578 27.3923ZM134.212 25.3927L136.706 22.8994L137.255 23.4492L134.114 26.5904L129.016 21.4917L129.663 20.8438L134.212 25.3927Z" fill="#0029FF"/>
<rect x="208.168" y="4.5079" width="77.7591" height="77.7591" rx="5" fill="#001AA5"/>
<path d="M242.747 13.974L239.746 13.974L239.746 17.1584L238.82 17.1584L238.82 9.94773L243.248 9.94773L243.248 10.7302L239.746 10.7302L239.746 13.1965L242.747 13.1965L242.747 13.974ZM246.556 13.8106L245.754 14.7218L245.754 17.1584L244.818 17.1584L244.818 9.94773L245.754 9.94773L245.754 13.4689L246.452 12.5973L248.566 9.94773L249.681 9.94773L247.16 13.1024L249.849 17.1584L248.735 17.1584L246.556 13.8106ZM251.954 16.3809L255.48 16.3809L255.48 17.1584L251.038 17.1584L251.038 9.94773L251.954 9.94773L251.954 16.3809Z" fill="#0029FF"/>
<path d="M242.747 73.702L239.746 73.702L239.746 76.8864L238.82 76.8864L238.82 69.6757L243.248 69.6757L243.248 70.4582L239.746 70.4582L239.746 72.9245L242.747 72.9245L242.747 73.702ZM246.556 73.5386L245.754 74.4498L245.754 76.8864L244.818 76.8864L244.818 69.6757L245.754 69.6757L245.754 73.1969L246.452 72.3253L248.566 69.6757L249.681 69.6757L247.16 72.8304L249.849 76.8864L248.735 76.8864L246.556 73.5386ZM251.954 76.1089L255.48 76.1089L255.48 76.8864L251.038 76.8864L251.038 69.6757L251.954 69.6757L251.954 76.1089Z" fill="#0029FF"/>
<circle cx="246.939" cy="43.2786" r="16.8591" stroke="white"/>
<circle cx="246.939" cy="43.2786" r="12.3306" stroke="#0029FF"/>
<circle r="4.02845" transform="matrix(-1 0 0 1 217.204 13.544)" stroke="white"/>
<circle r="4.02845" transform="matrix(-1 0 0 1 276.932 13.544)" stroke="white"/>
<circle r="4.02845" transform="matrix(-1 0 0 1 217.204 73.2722)" stroke="white"/>
<circle r="4.02845" transform="matrix(-1 0 0 1 276.932 73.2722)" stroke="white"/>
<circle cx="650.988" cy="43.3874" r="41.1335" fill="#001AA5"/>
<path d="M632.124 23.4508L630.092 25.4467L632.29 27.5794L631.668 28.1946L626.759 23.3551L629.76 20.4158L630.285 20.9353L627.907 23.2867L629.525 24.9136L631.599 22.9313L632.124 23.4508Z" fill="#0029FF"/>
<path d="M635.194 21.031L635.056 22.152L636.245 24.107L635.499 24.5718L631.834 18.8163L632.581 18.3378L634.378 21.154L634.503 20.115L634.862 16.9297L635.761 16.3691L635.319 20.156L639.564 22.0426L638.665 22.6032L635.194 21.031Z" fill="#0029FF"/>
<path d="M640.865 20.7987L644.032 19.6914L644.28 20.3749L640.284 21.7421L637.974 15.3713L638.804 15.0842L640.865 20.7987Z" fill="#0029FF"/>
<path d="M678.327 41.5784L677.87 38.8442L674.87 39.3226L674.717 38.4477L681.521 37.3677L682.185 41.469L681.452 41.592L680.927 38.3247L678.603 38.6938L679.046 41.4963L678.327 41.5784Z" fill="#0029FF"/>
<path d="M678.534 45.475L677.718 44.6684L675.395 44.5317V43.6567L682.309 44.0395V44.9282L678.949 44.7368L679.737 45.434L682.074 47.5667L682.005 48.6193L679.143 46.0765L675.16 48.4006V47.3479L678.534 45.475Z" fill="#0029FF"/>
<path d="M675.437 50.1638L674.524 53.3628L673.777 53.1577L674.939 49.0564L681.549 50.9157L681.314 51.7496L675.437 50.1638Z" fill="#0029FF"/>
<path d="M642.178 70.6984L644.944 71.3682L645.677 68.4016L646.534 68.6067L644.902 75.2372L640.754 74.2392L640.934 73.5283L644.183 74.3075L644.737 72.0518L641.971 71.3819L642.178 70.6984Z" fill="#0029FF"/>
<path d="M638.458 69.3718L639.537 68.9344L640.588 66.87L641.39 67.2665L638.347 73.3638L637.545 72.9673L639.025 69.987L638.071 70.4382L635.056 71.7916L634.102 71.3268L637.642 69.7683L637.061 65.2158L638.016 65.6806L638.458 69.3718Z" fill="#0029FF"/>
<path d="M635.319 64.7237L632.691 62.632L633.161 62.0579L636.439 64.6827L632.166 69.9871L631.474 69.4539L635.319 64.7237Z" fill="#0029FF"/>
<circle cx="651.366" cy="43.7647" r="16.8591" stroke="white"/>
<circle cx="651.365" cy="43.7645" r="12.3306" stroke="#0029FF"/>
<circle r="4.02845" transform="matrix(-1 0 0 1 666.46 19.6133)" stroke="white"/>
<circle r="4.02845" transform="matrix(-1 0 0 1 666.46 67.1614)" stroke="white"/>
<circle r="4.02845" transform="matrix(-1 0 0 1 622.685 46.7836)" stroke="white"/>
<rect x="755.072" width="62.1556" height="62.1556" rx="5" transform="rotate(45 755.072 0)" fill="#001AA5"/>
<circle cx="755.527" cy="44.4059" r="16.8591" stroke="white"/>
<circle cx="755.527" cy="44.4057" r="12.3306" stroke="#0029FF"/>
<circle r="4.02845" transform="matrix(-1 0 0 1 755.093 13.5442)" stroke="white"/>
<circle r="4.02845" transform="matrix(-1 0 0 1 755.093 73.2722)" stroke="white"/>
<circle r="4.02845" transform="matrix(-1 0 0 1 785.521 43.9714)" stroke="white"/>
<circle r="4.02845" transform="matrix(-1 0 0 1 723.539 43.9714)" stroke="white"/>
<path d="M735.855 30.2008L733.733 32.323L735.985 34.5746L735.33 35.2295L730.231 30.1308L733.362 27.0001L733.915 27.5534L731.439 30.0292L733.183 31.7731L735.305 29.651L735.855 30.2008ZM738.433 27.3923L738.51 28.604L740.233 30.3269L739.571 30.9887L734.472 25.89L735.134 25.2282L737.624 27.718L737.501 26.6079L737.123 23.2391L737.911 22.4512L738.359 26.4643L743.129 27.4308L742.341 28.2187L738.433 27.3923ZM744.067 25.3927L746.56 22.8994L747.11 23.4492L743.969 26.5904L738.87 21.4917L739.518 20.8438L744.067 25.3927Z" fill="#0029FF"/>
<rect x="818.023" y="4.5079" width="77.7591" height="77.7591" rx="5" fill="#001AA5"/>
<path d="M852.602 13.974L849.601 13.974L849.601 17.1584L848.675 17.1584L848.675 9.94773L853.102 9.94773L853.102 10.7302L849.601 10.7302L849.601 13.1965L852.602 13.1965L852.602 13.974ZM856.411 13.8106L855.608 14.7218L855.608 17.1584L854.672 17.1584L854.672 9.94773L855.608 9.94773L855.608 13.4689L856.307 12.5973L858.421 9.94773L859.536 9.94773L857.015 13.1024L859.704 17.1584L858.59 17.1584L856.411 13.8106ZM861.809 16.3809L865.335 16.3809L865.335 17.1584L860.893 17.1584L860.893 9.94773L861.809 9.94773L861.809 16.3809Z" fill="#0029FF"/>
<path d="M852.602 73.702L849.601 73.702L849.601 76.8864L848.675 76.8864L848.675 69.6757L853.102 69.6757L853.102 70.4582L849.601 70.4582L849.601 72.9245L852.602 72.9245L852.602 73.702ZM856.411 73.5386L855.608 74.4498L855.608 76.8864L854.672 76.8864L854.672 69.6757L855.608 69.6757L855.608 73.1969L856.307 72.3253L858.421 69.6757L859.536 69.6757L857.015 72.8304L859.704 76.8864L858.59 76.8864L856.411 73.5386ZM861.809 76.1089L865.335 76.1089L865.335 76.8864L860.893 76.8864L860.893 69.6757L861.809 69.6757L861.809 76.1089Z" fill="#0029FF"/>
<circle cx="856.794" cy="43.2786" r="16.8591" stroke="white"/>
<circle cx="856.794" cy="43.2786" r="12.3306" stroke="#0029FF"/>
<circle r="4.02845" transform="matrix(-1 0 0 1 827.059 13.544)" stroke="white"/>
<circle r="4.02845" transform="matrix(-1 0 0 1 886.787 13.544)" stroke="white"/>
<circle r="4.02845" transform="matrix(-1 0 0 1 827.059 73.2722)" stroke="white"/>
<circle r="4.02845" transform="matrix(-1 0 0 1 886.787 73.2722)" stroke="white"/>
<circle cx="346.061" cy="43.3874" r="41.1335" fill="#001AA5"/>
<path d="M327.197 23.4508L325.164 25.4467L327.363 27.5794L326.741 28.1946L321.831 23.3551L324.832 20.4158L325.358 20.9353L322.979 23.2867L324.597 24.9136L326.671 22.9313L327.197 23.4508Z" fill="#0029FF"/>
<path d="M330.267 21.031L330.129 22.152L331.318 24.107L330.571 24.5718L326.906 18.8163L327.653 18.3378L329.451 21.154L329.575 20.115L329.935 16.9297L330.834 16.3691L330.391 20.156L334.637 22.0426L333.738 22.6032L330.267 21.031Z" fill="#0029FF"/>
<path d="M335.937 20.7987L339.104 19.6914L339.353 20.3749L335.357 21.7421L333.047 15.3713L333.877 15.0842L335.937 20.7987Z" fill="#0029FF"/>
<path d="M373.399 41.5784L372.943 38.8442L369.942 39.3226L369.79 38.4477L376.594 37.3677L377.258 41.469L376.525 41.592L375.999 38.3247L373.676 38.6938L374.119 41.4963L373.399 41.5784Z" fill="#0029FF"/>
<path d="M373.607 45.475L372.791 44.6684L370.468 44.5317V43.6567L377.382 44.0395V44.9282L374.022 44.7368L374.81 45.434L377.147 47.5667L377.078 48.6193L374.215 46.0765L370.232 48.4006V47.3479L373.607 45.475Z" fill="#0029FF"/>
<path d="M370.509 50.1638L369.597 53.3628L368.85 53.1577L370.012 49.0564L376.622 50.9157L376.387 51.7496L370.509 50.1638Z" fill="#0029FF"/>
<path d="M337.251 70.6984L340.017 71.3682L340.749 68.4016L341.607 68.6067L339.975 75.2372L335.826 74.2392L336.006 73.5283L339.256 74.3075L339.809 72.0518L337.043 71.3819L337.251 70.6984Z" fill="#0029FF"/>
<path d="M333.531 69.3718L334.609 68.9344L335.66 66.87L336.462 67.2665L333.42 73.3638L332.618 72.9673L334.098 69.987L333.143 70.4382L330.129 71.7916L329.175 71.3268L332.715 69.7683L332.134 65.2158L333.088 65.6806L333.531 69.3718Z" fill="#0029FF"/>
<path d="M330.391 64.7237L327.764 62.632L328.234 62.0579L331.511 64.6827L327.238 69.9871L326.547 69.4539L330.391 64.7237Z" fill="#0029FF"/>
<circle cx="346.438" cy="43.7647" r="16.8591" stroke="white"/>
<circle cx="346.438" cy="43.7645" r="12.3306" stroke="#0029FF"/>
<circle r="4.02845" transform="matrix(-1 0 0 1 361.533 19.6133)" stroke="white"/>
<circle r="4.02845" transform="matrix(-1 0 0 1 361.533 67.1614)" stroke="white"/>
<circle r="4.02845" transform="matrix(-1 0 0 1 317.758 46.7836)" stroke="white"/>
<rect x="450.145" width="62.1556" height="62.1556" rx="5" transform="rotate(45 450.145 0)" fill="#001AA5"/>
<circle cx="450.6" cy="44.4059" r="16.8591" stroke="white"/>
<circle cx="450.6" cy="44.4057" r="12.3306" stroke="#0029FF"/>
<circle r="4.02845" transform="matrix(-1 0 0 1 450.166 13.5442)" stroke="white"/>
<circle r="4.02845" transform="matrix(-1 0 0 1 450.166 73.2722)" stroke="white"/>
<circle r="4.02845" transform="matrix(-1 0 0 1 480.593 43.9714)" stroke="white"/>
<circle r="4.02845" transform="matrix(-1 0 0 1 418.611 43.9714)" stroke="white"/>
<path d="M430.928 30.2008L428.806 32.323L431.057 34.5746L430.403 35.2295L425.304 30.1308L428.435 27.0001L428.988 27.5534L426.512 30.0292L428.256 31.7731L430.378 29.651L430.928 30.2008ZM433.505 27.3923L433.582 28.604L435.305 30.3269L434.643 30.9887L429.545 25.89L430.206 25.2282L432.696 27.718L432.574 26.6079L432.196 23.2391L432.983 22.4512L433.432 26.4643L438.201 27.4308L437.413 28.2187L433.505 27.3923ZM439.14 25.3927L441.633 22.8994L442.183 23.4492L439.042 26.5904L433.943 21.4917L434.591 20.8438L439.14 25.3927Z" fill="#0029FF"/>
<rect x="513.096" y="4.5079" width="77.7591" height="77.7591" rx="5" fill="#001AA5"/>
<path d="M547.675 13.974L544.674 13.974L544.674 17.1584L543.748 17.1584L543.748 9.94773L548.175 9.94773L548.175 10.7302L544.674 10.7302L544.674 13.1965L547.675 13.1965L547.675 13.974ZM551.483 13.8106L550.681 14.7218L550.681 17.1584L549.745 17.1584L549.745 9.94773L550.681 9.94773L550.681 13.4689L551.379 12.5973L553.494 9.94773L554.608 9.94773L552.087 13.1024L554.777 17.1584L553.662 17.1584L551.483 13.8106ZM556.881 16.3809L560.407 16.3809L560.407 17.1584L555.965 17.1584L555.965 9.94773L556.881 9.94773L556.881 16.3809Z" fill="#0029FF"/>
<path d="M547.675 73.702L544.674 73.702L544.674 76.8864L543.748 76.8864L543.748 69.6757L548.175 69.6757L548.175 70.4582L544.674 70.4582L544.674 72.9245L547.675 72.9245L547.675 73.702ZM551.483 73.5386L550.681 74.4498L550.681 76.8864L549.745 76.8864L549.745 69.6757L550.681 69.6757L550.681 73.1969L551.379 72.3253L553.494 69.6757L554.608 69.6757L552.087 72.8304L554.777 76.8864L553.662 76.8864L551.483 73.5386ZM556.881 76.1089L560.407 76.1089L560.407 76.8864L555.965 76.8864L555.965 69.6757L556.881 69.6757L556.881 76.1089Z" fill="#0029FF"/>
<circle cx="551.867" cy="43.2786" r="16.8591" stroke="white"/>
<circle cx="551.866" cy="43.2786" r="12.3306" stroke="#0029FF"/>
<circle r="4.02845" transform="matrix(-1 0 0 1 522.132 13.544)" stroke="white"/>
<circle r="4.02845" transform="matrix(-1 0 0 1 581.86 13.544)" stroke="white"/>
<circle r="4.02845" transform="matrix(-1 0 0 1 522.132 73.2722)" stroke="white"/>
<circle r="4.02845" transform="matrix(-1 0 0 1 581.86 73.2722)" stroke="white"/>
<circle cx="955.916" cy="43.3874" r="41.1335" fill="#001AA5"/>
<path d="M937.052 23.4508L935.019 25.4467L937.218 27.5794L936.595 28.1946L931.686 23.3551L934.687 20.4158L935.213 20.9353L932.834 23.2867L934.452 24.9136L936.526 22.9313L937.052 23.4508Z" fill="#0029FF"/>
<path d="M940.122 21.031L939.983 22.152L941.173 24.107L940.426 24.5718L936.761 18.8163L937.508 18.3378L939.306 21.154L939.43 20.115L939.79 16.9297L940.689 16.3691L940.246 20.156L944.492 22.0426L943.593 22.6032L940.122 21.031Z" fill="#0029FF"/>
<path d="M945.792 20.7987L948.959 19.6914L949.208 20.3749L945.211 21.7421L942.902 15.3713L943.732 15.0842L945.792 20.7987Z" fill="#0029FF"/>
<path d="M983.254 41.5784L982.798 38.8442L979.797 39.3226L979.645 38.4477L986.449 37.3677L987.112 41.469L986.379 41.592L985.854 38.3247L983.531 38.6938L983.973 41.4963L983.254 41.5784Z" fill="#0029FF"/>
<path d="M983.461 45.475L982.646 44.6684L980.322 44.5317V43.6567L987.237 44.0395V44.9282L983.876 44.7368L984.665 45.434L987.002 47.5667L986.932 48.6193L984.07 46.0765L980.087 48.4006V47.3479L983.461 45.475Z" fill="#0029FF"/>
<path d="M980.364 50.1638L979.452 53.3628L978.705 53.1577L979.866 49.0564L986.477 50.9157L986.242 51.7496L980.364 50.1638Z" fill="#0029FF"/>
<path d="M947.106 70.6984L949.871 71.3682L950.604 68.4016L951.462 68.6067L949.83 75.2372L945.681 74.2392L945.861 73.5283L949.111 74.3075L949.664 72.0518L946.898 71.3819L947.106 70.6984Z" fill="#0029FF"/>
<path d="M943.385 69.3718L944.464 68.9344L945.515 66.87L946.317 67.2665L943.275 73.3638L942.473 72.9673L943.952 69.987L942.998 70.4382L939.983 71.7916L939.029 71.3268L942.57 69.7683L941.989 65.2158L942.943 65.6806L943.385 69.3718Z" fill="#0029FF"/>
<path d="M940.246 64.7237L937.619 62.632L938.089 62.0579L941.366 64.6827L937.093 69.9871L936.402 69.4539L940.246 64.7237Z" fill="#0029FF"/>
<circle cx="956.293" cy="43.7647" r="16.8591" stroke="white"/>
<circle cx="956.293" cy="43.7645" r="12.3306" stroke="#0029FF"/>
<circle r="4.02845" transform="matrix(-1 0 0 1 971.388 19.6133)" stroke="white"/>
<circle r="4.02845" transform="matrix(-1 0 0 1 971.388 67.1614)" stroke="white"/>
<circle r="4.02845" transform="matrix(-1 0 0 1 927.613 46.7836)" stroke="white"/>
<rect x="1060" width="62.1556" height="62.1556" rx="5" transform="rotate(45 1060 0)" fill="#001AA5"/>
<circle cx="1060.45" cy="44.4059" r="16.8591" stroke="white"/>
<circle cx="1060.45" cy="44.4057" r="12.3306" stroke="#0029FF"/>
<circle r="4.02845" transform="matrix(-1 0 0 1 1060.02 13.5442)" stroke="white"/>
<circle r="4.02845" transform="matrix(-1 0 0 1 1060.02 73.2722)" stroke="white"/>
<circle r="4.02845" transform="matrix(-1 0 0 1 1090.45 43.9714)" stroke="white"/>
<circle r="4.02845" transform="matrix(-1 0 0 1 1028.47 43.9714)" stroke="white"/>
<path d="M1040.78 30.2008L1038.66 32.323L1040.91 34.5746L1040.26 35.2295L1035.16 30.1308L1038.29 27.0001L1038.84 27.5534L1036.37 30.0292L1038.11 31.7731L1040.23 29.651L1040.78 30.2008ZM1043.36 27.3923L1043.44 28.604L1045.16 30.3269L1044.5 30.9887L1039.4 25.89L1040.06 25.2282L1042.55 27.718L1042.43 26.6079L1042.05 23.2391L1042.84 22.4512L1043.29 26.4643L1048.06 27.4308L1047.27 28.2187L1043.36 27.3923ZM1048.99 25.3927L1051.49 22.8994L1052.04 23.4492L1048.9 26.5904L1043.8 21.4917L1044.45 20.8438L1048.99 25.3927Z" fill="#0029FF"/>
<rect x="1122.95" y="4.5079" width="77.7591" height="77.7591" rx="5" fill="#001AA5"/>
<path d="M1157.53 13.974L1154.53 13.974L1154.53 17.1584L1153.6 17.1584L1153.6 9.94773L1158.03 9.94773L1158.03 10.7302L1154.53 10.7302L1154.53 13.1965L1157.53 13.1965L1157.53 13.974ZM1161.34 13.8106L1160.54 14.7218L1160.54 17.1584L1159.6 17.1584L1159.6 9.94773L1160.54 9.94773L1160.54 13.4689L1161.23 12.5973L1163.35 9.94773L1164.46 9.94773L1161.94 13.1024L1164.63 17.1584L1163.52 17.1584L1161.34 13.8106ZM1166.74 16.3809L1170.26 16.3809L1170.26 17.1584L1165.82 17.1584L1165.82 9.94773L1166.74 9.94773L1166.74 16.3809Z" fill="#0029FF"/>
<path d="M1157.53 73.702L1154.53 73.702L1154.53 76.8864L1153.6 76.8864L1153.6 69.6757L1158.03 69.6757L1158.03 70.4582L1154.53 70.4582L1154.53 72.9245L1157.53 72.9245L1157.53 73.702ZM1161.34 73.5386L1160.54 74.4498L1160.54 76.8864L1159.6 76.8864L1159.6 69.6757L1160.54 69.6757L1160.54 73.1969L1161.23 72.3253L1163.35 69.6757L1164.46 69.6757L1161.94 72.8304L1164.63 76.8864L1163.52 76.8864L1161.34 73.5386ZM1166.74 76.1089L1170.26 76.1089L1170.26 76.8864L1165.82 76.8864L1165.82 69.6757L1166.74 69.6757L1166.74 76.1089Z" fill="#0029FF"/>
<circle cx="1161.72" cy="43.2786" r="16.8591" stroke="white"/>
<circle cx="1161.72" cy="43.2786" r="12.3306" stroke="#0029FF"/>
<circle r="4.02845" transform="matrix(-1 0 0 1 1131.99 13.544)" stroke="white"/>
<circle r="4.02845" transform="matrix(-1 0 0 1 1191.71 13.544)" stroke="white"/>
<circle r="4.02845" transform="matrix(-1 0 0 1 1131.99 73.2722)" stroke="white"/>
<circle r="4.02845" transform="matrix(-1 0 0 1 1191.71 73.2722)" stroke="white"/>
</svg>
