<svg width="28" height="22" viewBox="0 0 28 22" fill="none" xmlns="http://www.w3.org/2000/svg">
<path d="M23.3346 0.333313H4.66797C3.6071 0.333313 2.58969 0.75474 1.83954 1.50489C1.0894 2.25503 0.667969 3.27245 0.667969 4.33331V17.6666C0.667969 18.7275 1.0894 19.7449 1.83954 20.4951C2.58969 21.2452 3.6071 21.6666 4.66797 21.6666H23.3346C24.3955 21.6666 25.4129 21.2452 26.1631 20.4951C26.9132 19.7449 27.3346 18.7275 27.3346 17.6666V4.33331C27.3346 3.27245 26.9132 2.25503 26.1631 1.50489C25.4129 0.75474 24.3955 0.333313 23.3346 0.333313ZM26.0013 13.6666H22.0013C21.2941 13.6666 20.6158 13.3857 20.1157 12.8856C19.6156 12.3855 19.3346 11.7072 19.3346 11C19.3346 10.2927 19.6156 9.61446 20.1157 9.11436C20.6158 8.61426 21.2941 8.33331 22.0013 8.33331H26.0013V13.6666ZM26.0013 6.99998H22.0013C20.9404 6.99998 19.923 7.42141 19.1729 8.17155C18.4227 8.9217 18.0013 9.93911 18.0013 11C18.0013 12.0608 18.4227 13.0783 19.1729 13.8284C19.923 14.5786 20.9404 15 22.0013 15H26.0013V17.6666C26.0013 18.3739 25.7204 19.0522 25.2203 19.5523C24.7202 20.0524 24.0419 20.3333 23.3346 20.3333H4.66797C3.96072 20.3333 3.28245 20.0524 2.78235 19.5523C2.28225 19.0522 2.0013 18.3739 2.0013 17.6666V4.33331C2.0013 3.62607 2.28225 2.94779 2.78235 2.44769C3.28245 1.9476 3.96072 1.66665 4.66797 1.66665H23.3346C24.0419 1.66665 24.7202 1.9476 25.2203 2.44769C25.7204 2.94779 26.0013 3.62607 26.0013 4.33331V6.99998ZM21.1346 11C21.1346 11.1714 21.1855 11.339 21.2807 11.4815C21.3759 11.624 21.5113 11.7351 21.6696 11.8007C21.828 11.8663 22.0023 11.8834 22.1704 11.85C22.3385 11.8166 22.4929 11.734 22.6141 11.6128C22.7353 11.4916 22.8179 11.3372 22.8513 11.1691C22.8848 11.0009 22.8676 10.8267 22.802 10.6683C22.7364 10.51 22.6253 10.3746 22.4828 10.2794C22.3403 10.1841 22.1727 10.1333 22.0013 10.1333C21.7714 10.1333 21.551 10.2246 21.3885 10.3872C21.2259 10.5497 21.1346 10.7701 21.1346 11Z" fill="#0029FF"/>
</svg>
