<svg width="346" height="346" viewBox="0 0 346 346" fill="none" xmlns="http://www.w3.org/2000/svg">
<circle r="143.711" transform="matrix(-1 0 0 1 172.982 173.018)" stroke="#0029FF"/>
<circle r="133.5" transform="matrix(-1 0 0 1 173 173)" stroke="#0029FF"/>
<circle r="172.5" transform="matrix(-1 0 0 1 173 173)" stroke="#0029FF"/>
<circle r="60.3598" transform="matrix(-1 0 0 1 171.658 174.342)" stroke="#0029FF"/>
<circle r="35" transform="matrix(-1 0 0 1 171.5 174.5)" stroke="#0029FF"/>
<g clip-path="url(#clip0)">
<path d="M108.449 102.155L101.459 109.11L109.019 116.542L106.88 118.685L90 101.821L100.318 91.5788L102.125 93.3891L93.9465 101.583L99.5096 107.252L106.642 100.344L108.449 102.155Z" fill="#0029FF"/>
<path d="M119.003 93.7227L118.528 97.6291L122.617 104.441L120.049 106.061L107.449 86.0052L110.017 84.3378L116.198 94.1514L116.626 90.5309L117.862 79.431L120.953 77.4778L119.431 90.6738L134.029 97.248L130.938 99.2012L119.003 93.7227Z" fill="#0029FF"/>
<path d="M138.5 92.913L149.388 89.0543L150.244 91.4362L136.503 96.2001L128.562 74.0004L131.415 73L138.5 92.913Z" fill="#0029FF"/>
<path d="M267.307 165.324L265.737 155.796L255.42 157.464L254.896 154.415L278.29 150.651L280.572 164.943L278.052 165.372L276.246 153.986L268.257 155.272L269.779 165.038L267.307 165.324Z" fill="#0029FF"/>
<path d="M268.02 178.901L265.214 176.09L257.226 175.614V172.565L281 173.899V176.995L269.446 176.328L272.156 178.758L280.192 186.19L279.954 189.858L270.112 180.997L256.418 189.095V185.427L268.02 178.901Z" fill="#0029FF"/>
<path d="M257.368 195.242L254.23 206.389L251.662 205.674L255.656 191.383L278.384 197.862L277.576 200.768L257.368 195.242Z" fill="#0029FF"/>
<path d="M143.017 266.795L152.526 269.129L155.046 258.792L157.994 259.506L152.384 282.611L138.119 279.133L138.737 276.656L149.911 279.371L151.813 271.511L142.303 269.177L143.017 266.795Z" fill="#0029FF"/>
<path d="M130.226 262.174L133.934 260.649L137.548 253.456L140.306 254.837L129.845 276.084L127.087 274.703L132.175 264.317L128.894 265.889L118.529 270.606L115.248 268.986L127.42 263.555L125.423 247.691L128.704 249.311L130.226 262.174Z" fill="#0029FF"/>
<path d="M119.431 245.977L110.397 238.688L112.014 236.688L123.283 245.834L108.59 264.318L106.213 262.46L119.431 245.977Z" fill="#0029FF"/>
</g>
<defs>
<clipPath id="clip0">
<rect x="90" y="73" width="191" height="209.706" fill="white"/>
</clipPath>
</defs>
</svg>
