<svg width="1371" height="346" viewBox="0 0 1371 346" fill="none" xmlns="http://www.w3.org/2000/svg">
<circle r="143.711" transform="matrix(-1 0 0 1 172.982 173.018)" stroke="#0029FF"/>
<circle r="172.5" transform="matrix(-1 0 0 1 173 173)" stroke="#0029FF"/>
<path d="M73.3583 190.324L76.1316 199.975L86.3969 196.916L87.2588 199.878L64.0987 206.573L60.027 192.338L62.5106 191.624L65.805 202.944L73.5364 200.792L70.8747 191.038L73.3583 190.324Z" fill="#0029FF"/>
<path d="M71.4888 176.792L74.7314 179.143L82.7822 178.867L82.9719 181.95L58.9961 183.261L58.7641 180.155L70.5034 179.499L67.4919 177.332L58.2223 170.756L57.9909 167.044L68.9857 174.908L81.9441 165.168L82.1755 168.881L71.4888 176.792Z" fill="#0029FF"/>
<path d="M80.6327 159.072L82.5056 147.484L85.0411 147.898L82.5833 162.47L58.9699 158.579L59.47 155.548L80.6327 159.072Z" fill="#0029FF"/>
<path d="M271.833 156.148L267.781 146.396L258.04 149.45L256.777 146.432L278.535 139.587L284.631 154.202L282.288 154.921L277.506 143.477L270.108 145.812L274.159 155.563L271.833 156.148Z" fill="#0029FF"/>
<path d="M274.523 169.4L271.024 166.854L263.109 167.306L262.492 164.122L285.74 162.595L286.356 165.78L275.009 166.549L278.281 168.686L288.419 175.565L289.172 179.342L277.35 171.208L266.063 181.149L265.311 177.372L274.523 169.4Z" fill="#0029FF"/>
<path d="M267.04 187.242L266.873 199.234L264.26 198.805L264.512 183.818L288.498 187.561L288.502 190.686L267.04 187.242Z" fill="#0029FF"/>
<circle r="60.3598" transform="matrix(-1 0 0 1 171.658 174.342)" stroke="#0029FF"/>
<circle r="44.4833" transform="matrix(-1 0 0 1 171.659 174.341)" stroke="#0029FF"/>
<circle cx="103.701" cy="246.038" r="15.3765" stroke="#0029FF"/>
<circle cx="242.253" cy="246.038" r="15.3765" stroke="#0029FF"/>
<circle cx="103.701" cy="100.673" r="15.3765" stroke="#0029FF"/>
<circle cx="242.253" cy="100.673" r="15.3765" stroke="#0029FF"/>
<circle r="143.711" transform="matrix(-1 0 0 1 1300.98 173.018)" stroke="#0029FF"/>
<circle r="172.5" transform="matrix(-1 0 0 1 1301 173)" stroke="#0029FF"/>
<path d="M1201.36 190.324L1204.13 199.975L1214.4 196.916L1215.26 199.878L1192.1 206.573L1188.03 192.338L1190.51 191.624L1193.8 202.944L1201.54 200.792L1198.87 191.038L1201.36 190.324Z" fill="#0029FF"/>
<path d="M1199.49 176.792L1202.73 179.143L1210.78 178.867L1210.97 181.95L1187 183.261L1186.76 180.155L1198.5 179.499L1195.49 177.332L1186.22 170.756L1185.99 167.044L1196.99 174.908L1209.94 165.168L1210.18 168.881L1199.49 176.792Z" fill="#0029FF"/>
<path d="M1208.63 159.072L1210.51 147.484L1213.04 147.898L1210.58 162.47L1186.97 158.579L1187.47 155.548L1208.63 159.072Z" fill="#0029FF"/>
<circle r="60.3598" transform="matrix(-1 0 0 1 1299.66 174.342)" stroke="#0029FF"/>
<circle r="44.4833" transform="matrix(-1 0 0 1 1299.66 174.341)" stroke="#0029FF"/>
<circle cx="1231.7" cy="246.038" r="15.3765" stroke="#0029FF"/>
<circle cx="1370.25" cy="246.038" r="15.3765" stroke="#0029FF"/>
<circle cx="1231.7" cy="100.673" r="15.3765" stroke="#0029FF"/>
<circle cx="1370.25" cy="100.673" r="15.3765" stroke="#0029FF"/>
<circle r="157.5" transform="matrix(-1 0 0 1 925 173)" stroke="#0029FF"/>
<circle r="172.5" transform="matrix(-1 0 0 1 925 173)" stroke="#0029FF"/>
<circle r="78" transform="matrix(-1 0 0 1 923.5 174.5)" stroke="#0029FF"/>
<circle r="57.5" transform="matrix(-1 0 0 1 924 174)" stroke="#0029FF"/>
<circle cx="855.701" cy="282.876" r="15.3765" stroke="#0029FF"/>
<circle cx="994.253" cy="282.876" r="15.3765" stroke="#0029FF"/>
<circle cx="812.876" cy="112.876" r="15.3765" stroke="#0029FF"/>
<circle cx="1038.88" cy="112.876" r="15.3765" stroke="#0029FF"/>
<circle cx="923.876" cy="44.8765" r="15.3765" stroke="#0029FF"/>
<path d="M1041.46 189.736L1042.19 179.786L1031.51 178.954L1031.73 175.87L1055.6 177.708L1054.53 192.63L1051.96 192.416L1052.79 180.729L1044.67 180.111L1043.95 190.061L1041.46 189.736Z" fill="#0029FF"/>
<path d="M1039.01 203.363L1036.88 199.884L1029.14 197.434L1030.05 194.432L1052.88 201.455L1051.97 204.456L1040.81 201.049L1042.92 204.091L1049.33 213.741L1048.27 217.308L1040.85 205.958L1025.44 210.58L1026.5 207.013L1039.01 203.363Z" fill="#0029FF"/>
<path d="M1024.74 216.89L1019.01 227.178L1016.75 225.881L1023.95 213.039L1044.75 224.773L1043.3 227.471L1024.74 216.89Z" fill="#0029FF"/>
<path d="M814.456 213.225L818.861 222.177L828.495 217.491L829.868 220.26L808.349 230.751L801.723 217.338L804.041 216.226L809.238 226.727L816.555 223.153L812.15 214.201L814.456 213.225Z" fill="#0029FF"/>
<path d="M809.677 200.23L813.277 202.152L821.195 200.348L821.928 203.398L798.679 208.893L797.946 205.843L809.293 203.138L805.936 201.581L795.524 196.501L794.633 192.888L806.778 198.923L817.733 187.139L818.624 190.752L809.677 200.23Z" fill="#0029FF"/>
<path d="M815.147 181.341L814.881 169.57L817.483 169.547L817.772 184.265L793.895 184.666L793.778 181.607L815.147 181.341Z" fill="#0029FF"/>
<circle r="143.711" transform="matrix(-1 0 0 1 548.982 173.018)" stroke="#0029FF"/>
<circle r="133.5" transform="matrix(-1 0 0 1 549 173)" stroke="#0029FF"/>
<circle r="172.5" transform="matrix(-1 0 0 1 549 173)" stroke="#0029FF"/>
<circle r="60.3598" transform="matrix(-1 0 0 1 547.658 174.342)" stroke="#0029FF"/>
<circle r="35" transform="matrix(-1 0 0 1 547.5 174.5)" stroke="#0029FF"/>
<g clip-path="url(#clip0)">
<path d="M484.449 102.155L477.459 109.11L485.019 116.542L482.88 118.685L466 101.821L476.318 91.5788L478.125 93.3891L469.946 101.583L475.51 107.252L482.642 100.344L484.449 102.155Z" fill="#0029FF"/>
<path d="M495.003 93.7227L494.528 97.6291L498.617 104.441L496.049 106.061L483.449 86.0052L486.017 84.3378L492.198 94.1514L492.626 90.5309L493.862 79.431L496.953 77.4778L495.431 90.6738L510.029 97.248L506.938 99.2012L495.003 93.7227Z" fill="#0029FF"/>
<path d="M514.5 92.913L525.388 89.0543L526.244 91.4362L512.503 96.2001L504.562 74.0004L507.415 73L514.5 92.913Z" fill="#0029FF"/>
<path d="M643.307 165.324L641.737 155.796L631.42 157.464L630.896 154.415L654.29 150.651L656.572 164.943L654.052 165.372L652.246 153.986L644.257 155.272L645.779 165.038L643.307 165.324Z" fill="#0029FF"/>
<path d="M644.02 178.901L641.214 176.09L633.226 175.614V172.565L657 173.899V176.995L645.446 176.328L648.156 178.758L656.192 186.19L655.954 189.858L646.112 180.997L632.418 189.095V185.427L644.02 178.901Z" fill="#0029FF"/>
<path d="M633.368 195.242L630.23 206.389L627.662 205.674L631.656 191.383L654.384 197.862L653.576 200.768L633.368 195.242Z" fill="#0029FF"/>
<path d="M519.017 266.795L528.526 269.129L531.046 258.792L533.994 259.506L528.384 282.611L514.119 279.133L514.737 276.656L525.911 279.371L527.813 271.511L518.303 269.177L519.017 266.795Z" fill="#0029FF"/>
<path d="M506.226 262.174L509.934 260.649L513.548 253.456L516.306 254.837L505.845 276.084L503.087 274.703L508.175 264.317L504.894 265.889L494.529 270.606L491.248 268.986L503.42 263.555L501.423 247.691L504.704 249.311L506.226 262.174Z" fill="#0029FF"/>
<path d="M495.431 245.977L486.397 238.688L488.014 236.688L499.283 245.834L484.59 264.318L482.213 262.46L495.431 245.977Z" fill="#0029FF"/>
</g>
<defs>
<clipPath id="clip0">
</clipPath>
</defs>
</svg>
