<svg width="346" height="346" viewBox="0 0 346 346" fill="none" xmlns="http://www.w3.org/2000/svg">
<circle r="157.5" transform="matrix(-1 0 0 1 173 173)" stroke="#0029FF"/>
<circle r="172.5" transform="matrix(-1 0 0 1 173 173)" stroke="#0029FF"/>
<circle r="78" transform="matrix(-1 0 0 1 171.5 174.5)" stroke="#0029FF"/>
<circle r="57.5" transform="matrix(-1 0 0 1 172 174)" stroke="#0029FF"/>
<circle cx="103.701" cy="282.876" r="15.3765" stroke="#0029FF"/>
<circle cx="242.253" cy="282.876" r="15.3765" stroke="#0029FF"/>
<circle cx="60.8765" cy="112.876" r="15.3765" stroke="#0029FF"/>
<circle cx="286.876" cy="112.876" r="15.3765" stroke="#0029FF"/>
<circle cx="171.876" cy="44.8765" r="15.3765" stroke="#0029FF"/>
<path d="M289.462 189.736L290.191 179.786L279.51 178.954L279.727 175.87L303.596 177.708L302.526 192.63L299.964 192.416L300.794 180.729L292.674 180.111L291.945 190.061L289.462 189.736Z" fill="#0029FF"/>
<path d="M287.01 203.363L284.878 199.884L277.135 197.434L278.046 194.432L300.881 201.455L299.97 204.456L288.813 201.049L290.921 204.091L297.332 213.741L296.272 217.308L288.85 205.958L273.438 210.58L274.498 207.013L287.01 203.363Z" fill="#0029FF"/>
<path d="M272.736 216.89L267.01 227.178L264.754 225.881L271.951 213.039L292.75 224.773L291.303 227.471L272.736 216.89Z" fill="#0029FF"/>
<path d="M62.456 213.225L66.861 222.177L76.4953 217.491L77.8679 220.26L56.3491 230.751L49.7231 217.338L52.0411 216.226L57.2382 226.727L64.5546 223.153L60.1495 214.201L62.456 213.225Z" fill="#0029FF"/>
<path d="M57.6771 200.23L61.2767 202.152L69.1952 200.348L69.9282 203.398L46.6786 208.893L45.9456 205.843L57.2932 203.138L53.9362 201.581L43.5237 196.501L42.6333 192.888L54.7778 198.923L65.7334 187.139L66.6238 190.752L57.6771 200.23Z" fill="#0029FF"/>
<path d="M63.1468 181.341L62.881 169.57L65.4828 169.547L65.7719 184.265L41.8946 184.666L41.7781 181.607L63.1468 181.341Z" fill="#0029FF"/>
</svg>
