<svg width="346" height="352" viewBox="0 0 346 352" fill="none" xmlns="http://www.w3.org/2000/svg">
<circle r="143.711" transform="matrix(-1 0 0 1 172.982 175.018)" stroke="#0029FF"/>
<circle r="172.5" transform="matrix(-1 0 0 1 173 175)" stroke="#0029FF"/>
<path d="M73.3474 192.378L76.1304 202.013L86.3937 199.056L87.2586 202.013L64.1026 208.478L60.0166 194.268L62.4998 193.579L65.8055 204.88L73.5357 202.804L70.8642 193.068L73.3474 192.378Z" fill="#0029FF"/>
<path d="M71.4895 178.793L74.7351 181.165L82.7877 180.96L82.9804 184.035L59.0001 185.134L58.765 182.035L70.5065 181.483L67.4921 179.296L58.2139 172.658L57.9788 168.955L68.9839 176.892L81.936 167.293L82.1711 170.997L71.4895 178.793Z" fill="#0029FF"/>
<path d="M80.6372 161.118L82.4993 149.58L85.0358 150.015L82.5916 164.523L58.9686 160.438L59.4659 157.42L80.6372 161.118Z" fill="#0029FF"/>
<path d="M272.011 158.201L267.711 148.225L258.103 150.948L256.763 147.86L278.223 141.754L284.692 156.706L282.381 157.345L277.307 145.637L270.01 147.721L274.31 157.696L272.011 158.201Z" fill="#0029FF"/>
<path d="M274.465 171.337L270.916 168.647L263.058 168.814L262.358 165.585L285.43 164.894L286.13 168.123L274.869 168.484L278.181 170.755L288.451 178.05L289.303 181.879L277.325 173.26L266.377 182.858L265.525 179.028L274.465 171.337Z" fill="#0029FF"/>
<path d="M266.991 188.975L267.156 201.129L264.533 200.598L264.371 185.41L288.437 190.085L288.528 193.254L266.991 188.975Z" fill="#0029FF"/>
<circle r="60.3598" transform="matrix(-1 0 0 1 171.658 176.342)" stroke="#0029FF"/>
<circle r="44.4833" transform="matrix(-1 0 0 1 171.659 176.341)" stroke="#0029FF"/>
<circle cx="103.701" cy="248.039" r="15.3765" stroke="#0029FF"/>
<circle cx="242.253" cy="248.039" r="15.3765" stroke="#0029FF"/>
<circle cx="103.701" cy="102.673" r="15.3765" stroke="#0029FF"/>
<circle cx="242.253" cy="102.673" r="15.3765" stroke="#0029FF"/>
</svg>
