<svg fill="none" height="297" viewBox="0 0 494 297" width="494" xmlns="http://www.w3.org/2000/svg"><circle cx="41.1335" cy="43.3872" fill="#001aa5" r="41.1335"/><g fill="#0029ff"><path d="m22.2699 23.4508-2.0328 1.9959 2.1988 2.1327-.6223.6152-4.9093-4.8395 3.0009-2.9393.5255.5195-2.3786 2.3514 1.618 1.6269 2.0743-1.9823z"/><path d="m25.339 21.031-.1383 1.121 1.1893 1.955-.7468.4648-3.6647-5.7555.7468-.4785 1.7977 2.8162.1245-1.039.3596-3.1853.8988-.5606-.4425 3.7869 4.2455 1.8866-.8989.5606z"/><path d="m31.0094 20.7987 3.1668-1.1073.2489.6835-3.9965 1.3672-2.3095-6.3708.8298-.2871z"/><path d="m68.4726 41.5783-.4563-2.7343-3.0009.4785-.1521-.8749 6.8038-1.08.6638 4.1013-.7329.123-.5255-3.2674-2.3233.3692.4425 2.8025z"/><path d="m68.679 45.475-.816-.8066-2.3232-.1367v-.875l6.9145.3828v.8887l-3.3605-.1914.7883.6972 2.3371 2.1327-.0692 1.0526-2.8626-2.5428-3.9827 2.3241v-1.0527z"/><path d="m65.5833 50.1638-.9127 3.199-.7468-.2051 1.1617-4.1013 6.6102 1.8593-.2351.8339z"/><path d="m32.3228 70.6982 2.7658.6699.7329-2.9666.8574.2051-1.6318 6.6304-4.1487-.9979.1798-.7109 3.2498.7792.5532-2.2557-2.7658-.6699z"/><path d="m28.6042 69.3718 1.0786-.4374 1.051-2.0644.8021.3965-3.0424 6.0973-.802-.3965 1.4797-2.9803-.9542.4512-3.0148 1.3534-.9542-.4648 3.5403-1.5585-.5809-4.5525.9542.4648z"/><path d="m25.4636 64.7237-2.6275-2.0917.4702-.5741 3.2774 2.6248-4.2731 5.3044-.6915-.5332z"/></g><circle cx="41.5114" cy="43.7645" r="16.8591" stroke="#fff"/><circle cx="41.5103" cy="43.7643" r="12.3306" stroke="#0029ff"/><circle r="4.02845" stroke="#fff" transform="matrix(-1 0 0 1 56.6063 19.6132)"/><circle r="4.02845" stroke="#fff" transform="matrix(-1 0 0 1 56.6063 67.1613)"/><circle r="4.02845" stroke="#fff" transform="matrix(-1 0 0 1 12.8309 46.7835)"/><rect fill="#001aa5" height="62.1556" rx="5" transform="matrix(.70710678 .70710678 -.70710678 .70710678 42.579937 -102.797063)" width="62.1556" x="145.377"/><circle cx="145.832" cy="44.4058" r="16.8591" stroke="#fff"/><circle cx="145.831" cy="44.4057" r="12.3306" stroke="#0029ff"/><circle r="4.02845" stroke="#fff" transform="matrix(-1 0 0 1 145.397 13.5442)"/><circle r="4.02845" stroke="#fff" transform="matrix(-1 0 0 1 145.397 73.2722)"/><circle r="4.02845" stroke="#fff" transform="matrix(-1 0 0 1 175.825 43.9713)"/><circle r="4.02845" stroke="#fff" transform="matrix(-1 0 0 1 113.843 43.9713)"/><path d="m126.159 30.2007-2.122 2.1222 2.252 2.2516-.655.6549-5.099-5.0987 3.131-3.1307.553.5533-2.476 2.4759 1.744 1.7439 2.122-2.1221zm2.578-2.8084.077 1.2116 1.722 1.7229-.661.6619-5.099-5.0988.662-.6618 2.49 2.4898-.123-1.1101-.378-3.3688.788-.7879.448 4.0131 4.77.9666-.788.7879zm5.634-1.9996 2.493-2.4933.55.5497-3.141 3.1412-5.099-5.0987.648-.6478z" fill="#0029ff"/><rect fill="#001aa5" height="77.7591" rx="5" width="77.7591" x="207.357" y="4.50793"/><path d="m241.937 13.974h-3.002v3.1844h-.926v-7.21067h4.428v.78247h-3.502v2.4663h3.002zm3.808-.1634-.802.9112v2.4366h-.936v-7.21067h.936v3.52117l.698-.8716 2.115-2.64957h1.114l-2.521 3.15467 2.689 4.056h-1.114zm5.398 2.5703h3.526v.7775h-4.442v-7.21067h.916z" fill="#0029ff"/><path d="m241.937 73.702-3.002.0001v3.1843h-.926v-7.2106h4.428v.7824h-3.502v2.4663h3.002zm3.808-.1634-.802.9113v2.4365h-.936v-7.2106h.936v3.5211l.698-.8716 2.115-2.6495h1.114l-2.521 3.1546 2.689 4.0561-1.114-.0001zm5.398 2.5703h3.526v.7775l-4.442.0001v-7.2107h.916z" fill="#0029ff"/><circle cx="246.129" cy="43.2786" r="16.8591" stroke="#fff"/><circle cx="246.127" cy="43.2786" r="12.3306" stroke="#0029ff"/><circle r="4.02845" stroke="#fff" transform="matrix(-1 0 0 1 216.393 13.544)"/><circle r="4.02845" stroke="#fff" transform="matrix(-1 0 0 1 276.122 13.544)"/><circle r="4.02845" stroke="#fff" transform="matrix(-1 0 0 1 216.393 73.2722)"/><circle r="4.02845" stroke="#fff" transform="matrix(-1 0 0 1 276.122 73.2722)"/><circle cx="345.409" cy="43.3872" fill="#001aa5" r="41.1335"/><path d="m326.545 23.4505-2.033 1.996 2.199 2.1327-.622.6152-4.909-4.8396 3.001-2.9393.525.5195-2.379 2.3515 1.618 1.6268 2.075-1.9823z" fill="#0029ff"/><path d="m329.614 21.0309-.138 1.121 1.189 1.955-.746.4648-3.665-5.7556.747-.4784 1.797 2.8162.125-1.039.359-3.1854.899-.5605-.442 3.7869 4.245 1.8866-.899.5605z" fill="#0029ff"/><path d="m335.285 20.7984 3.167-1.1074.249.6836-3.997 1.3671-2.309-6.3707.829-.2871z" fill="#0029ff"/><path d="m372.748 41.5781-.456-2.7342-3.001.4785-.152-.8749 6.804-1.0801.663 4.1014-.733.123-.525-3.2674-2.323.3691.442 2.8026z" fill="#0029ff"/><path d="m372.954 45.4748-.816-.8066-2.323-.1368v-.8749l6.915.3828v.8886l-3.361-.1914.788.6972 2.338 2.1327-.07 1.0527-2.862-2.5428-3.983 2.3241v-1.0527z" fill="#0029ff"/><path d="m369.857 50.1638-.913 3.199-.747-.2051 1.162-4.1013 6.61 1.8593-.235.8339z" fill="#0029ff"/><path d="m336.598 70.698 2.766.6699.733-2.9667.857.2051-1.631 6.6305-4.149-.998.18-.7109 3.249.7793.554-2.2558-2.766-.6699z" fill="#0029ff"/><path d="m332.88 69.3717 1.078-.4375 1.051-2.0643.802.3965-3.042 6.0973-.802-.3965 1.48-2.9803-.955.4512-3.014 1.3534-.955-.4648 3.541-1.5585-.581-4.5525.954.4648z" fill="#0029ff"/><path d="m329.739 64.7235-2.628-2.0917.471-.5742 3.277 2.6249-4.273 5.3044-.691-.5332z" fill="#0029ff"/><circle cx="345.787" cy="43.7645" r="16.8591" stroke="#fff"/><circle cx="345.786" cy="43.7643" r="12.3306" stroke="#0029ff"/><circle r="4.02845" stroke="#fff" transform="matrix(-1 0 0 1 360.882 19.6132)"/><circle r="4.02845" stroke="#fff" transform="matrix(-1 0 0 1 360.882 67.1613)"/><circle r="4.02845" stroke="#fff" transform="matrix(-1 0 0 1 317.106 46.7835)"/><rect fill="#001aa5" height="62.1556" rx="5" transform="matrix(.70710678 .70710678 -.70710678 .70710678 131.699436 -317.950564)" width="62.1556" x="449.65"/><circle cx="450.105" cy="44.4058" r="16.8591" stroke="#fff"/><circle cx="450.104" cy="44.4057" r="12.3306" stroke="#0029ff"/><circle r="4.02845" stroke="#fff" transform="matrix(-1 0 0 1 449.671 13.5442)"/><circle r="4.02845" stroke="#fff" transform="matrix(-1 0 0 1 449.671 73.2722)"/><circle r="4.02845" stroke="#fff" transform="matrix(-1 0 0 1 480.098 43.9713)"/><circle r="4.02845" stroke="#fff" transform="matrix(-1 0 0 1 418.116 43.9713)"/><path d="m430.433 30.2007-2.123 2.1222 2.252 2.2516-.655.6549-5.098-5.0987 3.13-3.1307.554.5533-2.476 2.4759 1.744 1.7439 2.122-2.1221zm2.577-2.8084.077 1.2116 1.723 1.7229-.662.6619-5.099-5.0988.662-.6618 2.49 2.4898-.123-1.1101-.378-3.3688.788-.7879.448 4.0131 4.77.9666-.788.7879zm5.635-1.9996 2.493-2.4933.55.5497-3.142 3.1412-5.098-5.0987.648-.6478z" fill="#0029ff"/><circle cx="41.1335" cy="251.925" fill="#001aa5" r="41.1335"/><path d="m22.2699 231.988-2.0328 1.996 2.1988 2.133-.6223.615-4.9093-4.839 3.0009-2.94.5255.52-2.3786 2.351 1.618 1.627 2.0743-1.982z" fill="#0029ff"/><path d="m25.339 229.569-.1383 1.121 1.1893 1.955-.7468.465-3.6647-5.756.7468-.478 1.7977 2.816.1245-1.039.3596-3.185.8988-.561-.4425 3.787 4.2455 1.887-.8989.56z" fill="#0029ff"/><path d="m31.0094 229.337 3.1668-1.108.2489.684-3.9965 1.367-2.3095-6.371.8298-.287z" fill="#0029ff"/><path d="m68.4726 250.116-.4563-2.734-3.0009.478-.1521-.875 6.8038-1.08.6638 4.101-.7329.123-.5255-3.267-2.3233.369.4425 2.803z" fill="#0029ff"/><path d="m68.679 254.013-.816-.807-2.3232-.136v-.875l6.9145.382v.889l-3.3605-.191.7883.697 2.3371 2.133-.0692 1.052-2.8626-2.543-3.9827 2.324v-1.052z" fill="#0029ff"/><path d="m65.5833 258.701-.9127 3.199-.7468-.205 1.1617-4.101 6.6102 1.859-.2351.834z" fill="#0029ff"/><path d="m32.3228 279.236 2.7658.67.7329-2.967.8574.205-1.6318 6.631-4.1487-.998.1798-.711 3.2498.779.5532-2.256-2.7658-.67z" fill="#0029ff"/><path d="m28.6042 277.91 1.0786-.438 1.051-2.064.8021.396-3.0424 6.098-.802-.397 1.4797-2.98-.9542.451-3.0148 1.353-.9542-.464 3.5403-1.559-.5809-4.552.9542.464z" fill="#0029ff"/><path d="m25.4636 273.262-2.6275-2.092.4702-.574 3.2774 2.625-4.2731 5.304-.6915-.533z" fill="#0029ff"/><circle cx="41.5114" cy="252.302" r="16.8591" stroke="#fff"/><circle cx="41.5103" cy="252.302" r="12.3306" stroke="#0029ff"/><circle r="4.02845" stroke="#fff" transform="matrix(-1 0 0 1 56.6063 228.151)"/><circle r="4.02845" stroke="#fff" transform="matrix(-1 0 0 1 56.6063 275.699)"/><circle r="4.02845" stroke="#fff" transform="matrix(-1 0 0 1 12.8309 255.322)"/><rect fill="#001aa5" height="62.1556" rx="5" transform="matrix(.70710678 .70710678 -.70710678 .70710678 190.037864 -41.717989)" width="62.1556" x="145.377" y="208.537"/><circle cx="145.832" cy="252.943" r="16.8591" stroke="#fff"/><circle cx="145.831" cy="252.943" r="12.3306" stroke="#0029ff"/><circle r="4.02845" stroke="#fff" transform="matrix(-1 0 0 1 145.397 222.081)"/><circle r="4.02845" stroke="#fff" transform="matrix(-1 0 0 1 145.397 281.809)"/><circle r="4.02845" stroke="#fff" transform="matrix(-1 0 0 1 175.825 252.509)"/><circle r="4.02845" stroke="#fff" transform="matrix(-1 0 0 1 113.843 252.509)"/><path d="m126.159 238.738-2.122 2.122 2.252 2.252-.655.654-5.099-5.098 3.131-3.131.553.553-2.476 2.476 1.744 1.744 2.122-2.122zm2.578-2.809.077 1.212 1.722 1.723-.661.662-5.099-5.099.662-.662 2.49 2.49-.123-1.11-.378-3.369.788-.788.448 4.013 4.77.967-.788.788zm5.634-1.999 2.493-2.494.55.55-3.141 3.141-5.099-5.098.648-.648z" fill="#0029ff"/><rect fill="#001aa5" height="77.7591" rx="5" width="77.7591" x="207.357" y="213.045"/><path d="m241.937 222.511h-3.002v3.184h-.926v-7.211h4.428v.783h-3.502v2.466h3.002zm3.808-.164-.802.911v2.437h-.936v-7.211h.936v3.521l.698-.871 2.115-2.65h1.114l-2.521 3.155 2.689 4.056h-1.114zm5.398 2.571 3.526-.001v.778h-4.442v-7.211h.916z" fill="#0029ff"/><path d="m241.937 282.238h-3.002v3.185h-.926v-7.211h4.428v.783h-3.502v2.466h3.002zm3.808-.163-.802.911v2.437h-.936v-7.211h.936v3.521l.698-.871 2.115-2.65h1.114l-2.521 3.155 2.689 4.056h-1.114zm5.398 2.57h3.526v.778h-4.442v-7.211h.916z" fill="#0029ff"/><circle cx="246.129" cy="251.815" r="16.8591" stroke="#fff"/><circle cx="246.127" cy="251.815" r="12.3306" stroke="#0029ff"/><circle r="4.02845" stroke="#fff" transform="matrix(-1 0 0 1 216.393 222.081)"/><circle r="4.02845" stroke="#fff" transform="matrix(-1 0 0 1 276.122 222.081)"/><circle r="4.02845" stroke="#fff" transform="matrix(-1 0 0 1 216.393 281.809)"/><circle r="4.02845" stroke="#fff" transform="matrix(-1 0 0 1 276.122 281.809)"/><circle cx="345.409" cy="251.925" fill="#001aa5" r="41.1335"/><path d="m326.545 231.988-2.033 1.996 2.199 2.133-.622.615-4.909-4.839 3.001-2.94.525.52-2.379 2.351 1.618 1.627 2.075-1.982z" fill="#0029ff"/><path d="m329.614 229.569-.138 1.121 1.189 1.955-.746.465-3.665-5.756.747-.478 1.797 2.816.125-1.039.359-3.185.899-.561-.442 3.787 4.245 1.887-.899.56z" fill="#0029ff"/><path d="m335.285 229.337 3.167-1.108.249.684-3.997 1.367-2.309-6.371.829-.287z" fill="#0029ff"/><path d="m372.748 250.116-.456-2.734-3.001.478-.152-.874 6.804-1.08.663 4.101-.733.123-.525-3.268-2.323.37.442 2.802z" fill="#0029ff"/><path d="m372.954 254.013-.816-.807-2.323-.136v-.875l6.915.382v.889l-3.361-.191.788.697 2.338 2.133-.07 1.052-2.862-2.543-3.983 2.324v-1.052z" fill="#0029ff"/><path d="m369.857 258.702-.913 3.199-.747-.205 1.162-4.102 6.61 1.86-.235.834z" fill="#0029ff"/><path d="m336.598 279.236 2.766.67.733-2.967.857.205-1.631 6.631-4.149-.998.18-.711 3.249.779.554-2.256-2.766-.67z" fill="#0029ff"/><path d="m332.88 277.91 1.078-.438 1.051-2.064.802.396-3.042 6.098-.802-.397 1.48-2.98-.955.451-3.014 1.353-.955-.464 3.541-1.559-.581-4.552.954.464z" fill="#0029ff"/><path d="m329.739 273.262-2.628-2.092.471-.574 3.277 2.625-4.273 5.304-.691-.533z" fill="#0029ff"/><circle cx="345.787" cy="252.302" r="16.8591" stroke="#fff"/><circle cx="345.786" cy="252.302" r="12.3306" stroke="#0029ff"/><circle r="4.02845" stroke="#fff" transform="matrix(-1 0 0 1 360.882 228.151)"/><circle r="4.02845" stroke="#fff" transform="matrix(-1 0 0 1 360.882 275.699)"/><circle r="4.02845" stroke="#fff" transform="matrix(-1 0 0 1 317.106 255.322)"/><rect fill="#001aa5" height="62.1556" rx="5" transform="matrix(.70710678 .70710678 -.70710678 .70710678 279.157363 -256.871491)" width="62.1556" x="449.65" y="208.537"/><circle cx="450.105" cy="252.943" r="16.8591" stroke="#fff"/><circle cx="450.104" cy="252.943" r="12.3306" stroke="#0029ff"/><circle r="4.02845" stroke="#fff" transform="matrix(-1 0 0 1 449.671 222.081)"/><circle r="4.02845" stroke="#fff" transform="matrix(-1 0 0 1 449.671 281.809)"/><circle r="4.02845" stroke="#fff" transform="matrix(-1 0 0 1 480.098 252.509)"/><circle r="4.02845" stroke="#fff" transform="matrix(-1 0 0 1 418.116 252.509)"/><path d="m430.433 238.738-2.123 2.122 2.252 2.252-.655.654-5.098-5.098 3.13-3.131.554.553-2.476 2.476 1.744 1.744 2.122-2.122zm2.577-2.809.077 1.212 1.723 1.723-.662.662-5.099-5.099.662-.662 2.49 2.49-.123-1.11-.378-3.369.788-.788.448 4.013 4.77.967-.788.788zm5.635-1.999 2.493-2.494.55.55-3.142 3.141-5.098-5.098.648-.648z" fill="#0029ff"/><rect fill="#001aa5" height="62.1556" rx="5" transform="matrix(-.707107 .707107 .707107 .707107 450.049 104.365)" width="62.1556"/><circle r="16.8591" stroke="#fff" transform="matrix(-1 0 0 1 449.594 148.771)"/><circle r="12.3306" stroke="#0029ff" transform="matrix(-1 0 0 1 449.595 148.77)"/><circle cx="450.028" cy="117.909" r="4.02845" stroke="#fff"/><circle cx="450.028" cy="177.637" r="4.02845" stroke="#fff"/><circle cx="419.601" cy="148.336" r="4.02845" stroke="#fff"/><circle cx="481.583" cy="148.336" r="4.02845" stroke="#fff"/><path d="m469.267 134.565 2.122 2.123-2.252 2.251.655.655 5.099-5.099-3.131-3.13-.553.553 2.475 2.476-1.743 1.744-2.123-2.122zm-2.578-2.808-.077 1.212-1.723 1.723.662.661 5.099-5.098-.662-.662-2.49 2.49.123-1.11.378-3.369-.788-.788-.448 4.013-4.77.967.788.787zm-5.634-2-2.494-2.493-.549.55 3.141 3.141 5.099-5.099-.648-.648z" fill="#0029ff"/><rect fill="#001aa5" height="77.7591" rx="5" transform="matrix(-1 0 0 1 385.076 108.785)" width="77.7591"/><path d="m350.497 118.251h3.001v3.184h.926v-7.211h-4.427v.783h3.501v2.466h-3.001zm-3.808-.164.802.911v2.437h.936v-7.211h-.936v3.521l-.698-.871-2.115-2.65h-1.114l2.52 3.155-2.689 4.056h1.115zm-5.398 2.571-3.527-.001v.778h4.443v-7.211h-.916z" fill="#0029ff"/><path d="m350.497 177.979h3.001v3.184h.926v-7.211h-4.427v.783h3.501v2.466h-3.001zm-3.808-.164.802.911v2.437h.936v-7.211h-.936v3.522l-.698-.872-2.115-2.65h-1.114l2.52 3.155-2.689 4.056h1.115zm-5.398 2.571-3.527-.001v.778h4.443v-7.211h-.916z" fill="#0029ff"/><circle r="16.8591" stroke="#fff" transform="matrix(-1 0 0 1 346.305 147.555)"/><circle r="12.3306" stroke="#0029ff" transform="matrix(-1 0 0 1 346.306 147.555)"/><circle cx="376.04" cy="117.821" r="4.02845" stroke="#fff"/><circle cx="316.312" cy="117.821" r="4.02845" stroke="#fff"/><circle cx="376.04" cy="177.549" r="4.02845" stroke="#fff"/><circle cx="316.312" cy="177.549" r="4.02845" stroke="#fff"/><circle fill="#001aa5" r="41.1335" transform="matrix(-1 0 0 1 246.378 147.693)"/><path d="m265.242 127.757 2.033 1.996-2.199 2.132.622.616 4.909-4.84-3-2.939-.526.519 2.379 2.352-1.618 1.626-2.075-1.982z" fill="#0029ff"/><path d="m262.173 125.337.138 1.121-1.189 1.955.747.465 3.664-5.756-.747-.478-1.797 2.816-.125-1.039-.359-3.185-.899-.561.442 3.787-4.245 1.887.899.56z" fill="#0029ff"/><path d="m256.502 125.105-3.167-1.108-.248.684 3.996 1.367 2.31-6.371-.83-.287z" fill="#0029ff"/><path d="m219.039 145.884.456-2.734 3.001.479.152-.875-6.803-1.08-.664 4.101.733.123.525-3.267 2.323.369-.442 2.802z" fill="#0029ff"/><path d="m218.833 149.781.816-.807 2.323-.136v-.875l-6.915.382v.889l3.361-.191-.788.697-2.337 2.133.069 1.052 2.862-2.543 3.983 2.325v-1.053z" fill="#0029ff"/><path d="m221.93 154.47.913 3.199.747-.205-1.162-4.101-6.61 1.859.235.834z" fill="#0029ff"/><path d="m255.189 175.004-2.766.67-.733-2.967-.857.205 1.632 6.631 4.148-.998-.179-.711-3.25.779-.553-2.256 2.765-.67z" fill="#0029ff"/><path d="m258.908 173.678-1.079-.438-1.051-2.064-.802.396 3.042 6.098.802-.397-1.479-2.98.954.451 3.014 1.353.955-.464-3.541-1.559.581-4.552-.954.464z" fill="#0029ff"/><path d="m262.048 169.03 2.628-2.092-.471-.574-3.277 2.625 4.273 5.304.692-.533z" fill="#0029ff"/><circle r="16.8591" stroke="#fff" transform="matrix(-1 0 0 1 246 148.071)"/><circle r="12.3306" stroke="#0029ff" transform="matrix(-1 0 0 1 246.001 148.07)"/><circle cx="230.905" cy="123.919" r="4.02845" stroke="#fff"/><circle cx="230.905" cy="171.468" r="4.02845" stroke="#fff"/><circle cx="274.681" cy="151.09" r="4.02845" stroke="#fff"/><rect fill="#001aa5" height="62.1556" rx="5" transform="matrix(-.707107 .707107 .707107 .707107 144.926 104.365)" width="62.1556"/><circle r="16.8591" stroke="#fff" transform="matrix(-1 0 0 1 144.471 148.771)"/><circle r="12.3306" stroke="#0029ff" transform="matrix(-1 0 0 1 144.472 148.77)"/><circle cx="144.905" cy="117.909" r="4.02845" stroke="#fff"/><circle cx="144.905" cy="177.637" r="4.02845" stroke="#fff"/><circle cx="114.478" cy="148.336" r="4.02845" stroke="#fff"/><circle cx="176.46" cy="148.336" r="4.02845" stroke="#fff"/><path d="m164.144 134.565 2.122 2.123-2.252 2.251.655.655 5.099-5.099-3.131-3.13-.553.553 2.475 2.476-1.743 1.744-2.123-2.122zm-2.578-2.808-.077 1.212-1.723 1.723.662.661 5.099-5.098-.662-.662-2.49 2.49.123-1.11.378-3.369-.788-.788-.448 4.013-4.77.967.788.787zm-5.634-2-2.494-2.493-.549.55 3.141 3.141 5.098-5.099-.647-.648z" fill="#0029ff"/><rect fill="#001aa5" height="77.7591" rx="5" transform="matrix(-1 0 0 1 79.9551 108.785)" width="77.7591"/><path d="m45.376 118.251h3.0011v3.184h.9261v-7.211h-4.4274v.783h3.5013v2.466h-3.0011zm-3.8084-.164.8023.911v2.437h.936v-7.211h-.936l-.0001 3.521-.6982-.871-2.1147-2.65h-1.1143l2.5208 3.155-2.6892 4.056h1.1143zm-5.3982 2.571-3.526-.001v.778h4.4422l.0001-7.211h-.9162z" fill="#0029ff"/><path d="m45.376 177.979h3.0011v3.184h.9261v-7.211h-4.4274v.783h3.5013v2.466h-3.0011zm-3.8084-.164.8023.911v2.437h.936v-7.211h-.936l-.0001 3.522-.6982-.872-2.1147-2.65h-1.1143l2.5208 3.155-2.6892 4.056h1.1143zm-5.3982 2.571-3.526-.001v.778h4.4422l.0001-7.211h-.9162z" fill="#0029ff"/><circle r="16.8591" stroke="#fff" transform="matrix(-1 0 0 1 41.1839 147.555)"/><circle r="12.3306" stroke="#0029ff" transform="matrix(-1 0 0 1 41.185 147.555)"/><circle cx="70.9191" cy="117.821" r="4.02845" stroke="#fff"/><circle cx="11.1906" cy="117.821" r="4.02845" stroke="#fff"/><circle cx="70.9191" cy="177.549" r="4.02845" stroke="#fff"/><circle cx="11.1906" cy="177.549" r="4.02845" stroke="#fff"/></svg>