<svg width="8" height="5" viewBox="0 0 8 5" fill="none" xmlns="http://www.w3.org/2000/svg">
<path d="M4 4L3.50503 4.49497C3.77839 4.76834 4.22161 4.76834 4.49497 4.49497L4 4ZM1.49497 0.505025C1.22161 0.231658 0.778392 0.231658 0.505025 0.505025C0.231658 0.778392 0.231658 1.22161 0.505025 1.49497L1.49497 0.505025ZM7.49497 1.49498C7.76834 1.22161 7.76834 0.778393 7.49498 0.505026C7.22161 0.231659 6.77839 0.231659 6.50503 0.505026L7.49497 1.49498ZM4.49497 3.50502L1.49497 0.505025L0.505025 1.49497L3.50503 4.49497L4.49497 3.50502ZM6.50503 0.505026L3.50503 3.50502L4.49497 4.49497L7.49497 1.49498L6.50503 0.505026Z" fill="#242424"/>
</svg>
