<svg width="8" height="5" viewBox="0 0 8 5" fill="none" xmlns="http://www.w3.org/2000/svg">
<path d="M4 1L3.50503 0.505026C3.77839 0.231659 4.22161 0.231659 4.49497 0.505025L4 1ZM1.49497 4.49497C1.22161 4.76834 0.778392 4.76834 0.505025 4.49497C0.231658 4.22161 0.231658 3.77839 0.505025 3.50503L1.49497 4.49497ZM7.49497 3.50502C7.76834 3.77839 7.76834 4.22161 7.49498 4.49497C7.22161 4.76834 6.77839 4.76834 6.50503 4.49497L7.49497 3.50502ZM4.49497 1.49498L1.49497 4.49497L0.505025 3.50503L3.50503 0.505026L4.49497 1.49498ZM6.50503 4.49497L3.50503 1.49498L4.49497 0.505025L7.49497 3.50502L6.50503 4.49497Z" fill="#0029FF"/>
</svg>
