<svg width="72" height="79" viewBox="0 0 72 79" fill="none" xmlns="http://www.w3.org/2000/svg">
<path d="M40.8695 71.6735C58.4487 69.2964 72 54.2307 72 36C72 16.1177 55.8823 0 36 0C16.1177 0 0 16.1177 0 36C0 54.2773 13.6206 69.3733 31.2652 71.6914L35.1962 78.5C35.5811 79.1667 36.5433 79.1667 36.9282 78.5L40.8695 71.6735Z" fill="#0029FF"/>
<path fill-rule="evenodd" clip-rule="evenodd" d="M42.3 46.998C40.073 47.0014 37.9091 46.2585 36.1543 44.888C34.6764 46.039 32.9047 46.7522 31.0411 46.9462C29.1775 47.1402 27.2969 46.8073 25.6133 45.9853C23.9298 45.1634 22.511 43.8854 21.5186 42.297C20.5262 40.7086 20 38.8736 20 37.001C20 35.1284 20.5262 33.2934 21.5186 31.705C22.511 30.1166 23.9298 28.8387 25.6133 28.0167C27.2969 27.1948 29.1775 26.8618 31.0411 27.0558C32.9047 27.2499 34.6764 27.963 36.1543 29.1141C37.4109 28.1347 38.8834 27.4695 40.4491 27.1738C42.0149 26.8782 43.6287 26.9606 45.1562 27.4142C46.6837 27.8678 48.0807 28.6795 49.2308 29.7817C50.381 30.884 51.2511 32.2448 51.7687 33.751C52.2864 35.2573 52.4365 36.8653 52.2066 38.4412C51.9768 40.0171 51.3736 41.5154 50.4474 42.8113C49.5211 44.1072 48.2985 45.1632 46.8813 45.8914C45.4642 46.6196 43.8935 46.999 42.3 46.998ZM37.51 30.4037C39.0536 32.1709 39.9969 35.3624 39.9969 36.999C39.9969 38.6355 39.9152 38.4723 39.7601 39.1702C40.725 38.7487 41.5154 38.0081 41.9984 37.0729C42.4814 36.1377 42.6277 35.0648 42.4126 34.0345C42.1975 33.0042 41.6342 32.0793 40.8173 31.4152C40.0004 30.751 38.9796 30.3881 37.9266 30.3874C37.7877 30.3874 37.5182 30.3874 37.5182 30.3874L37.51 30.4037ZM34.3576 34.4401C35.4934 34.4391 36.5892 34.859 37.4332 35.6187C38.2771 36.3783 38.8093 37.4238 38.9268 38.5529C39.0443 39.6819 38.7387 40.8144 38.0692 41.7314C37.3997 42.6484 36.4138 43.2847 35.3021 43.5173C34.1904 43.7499 33.0319 43.5623 32.0505 42.9907C31.0692 42.4192 30.3348 41.5043 29.9892 40.4229C29.6437 39.3416 29.7116 38.1706 30.1798 37.1363C30.648 36.1021 31.4832 35.2781 32.5241 34.8237C32.1845 36.3576 32.2105 37.9499 32.5999 39.4719C32.9894 40.994 33.7313 42.4033 34.7659 43.5861C35.8344 43.4912 36.8358 43.0246 37.5954 42.2676C38.3551 41.5106 38.8249 40.5112 38.9229 39.4436C38.596 39.5176 38.2618 39.5546 37.9266 39.5538C36.7103 39.5538 35.5439 39.0709 34.6839 38.2114C33.8239 37.3519 33.3408 36.1862 33.3408 34.9706C33.3408 34.8278 33.3408 34.689 33.3612 34.5625C33.6884 34.4902 34.0225 34.4533 34.3576 34.4523V34.4401Z" fill="white"/>
</svg>
