<svg width="13" height="12" viewBox="0 0 13 12" fill="none" xmlns="http://www.w3.org/2000/svg">
<mask id="path-2-inside-1" fill="white">
<path fill-rule="evenodd" clip-rule="evenodd" d="M12.4589 10.753C12.6542 10.9483 12.6542 11.2649 12.4589 11.4602C12.2637 11.6554 11.9471 11.6554 11.7518 11.4602L6.81249 6.52082L1.87315 11.4602C1.67789 11.6554 1.3613 11.6554 1.16604 11.4602C0.970779 11.2649 0.970779 10.9483 1.16604 10.753L6.10538 5.81371L1.14523 0.853553C0.949964 0.658291 0.949964 0.341709 1.14523 0.146447C1.34049 -0.0488155 1.65707 -0.0488155 1.85233 0.146447L6.81249 5.1066L11.7726 0.146447C11.9679 -0.0488155 12.2845 -0.0488155 12.4797 0.146447C12.675 0.341709 12.675 0.658291 12.4797 0.853553L7.51959 5.81371L12.4589 10.753Z"/>
</mask>
<path fill-rule="evenodd" clip-rule="evenodd" d="M12.4589 10.753C12.6542 10.9483 12.6542 11.2649 12.4589 11.4602C12.2637 11.6554 11.9471 11.6554 11.7518 11.4602L6.81249 6.52082L1.87315 11.4602C1.67789 11.6554 1.3613 11.6554 1.16604 11.4602C0.970779 11.2649 0.970779 10.9483 1.16604 10.753L6.10538 5.81371L1.14523 0.853553C0.949964 0.658291 0.949964 0.341709 1.14523 0.146447C1.34049 -0.0488155 1.65707 -0.0488155 1.85233 0.146447L6.81249 5.1066L11.7726 0.146447C11.9679 -0.0488155 12.2845 -0.0488155 12.4797 0.146447C12.675 0.341709 12.675 0.658291 12.4797 0.853553L7.51959 5.81371L12.4589 10.753Z" fill="white"/>
<path d="M11.7518 11.4602L11.0447 12.1673L11.7518 11.4602ZM6.81249 6.52082L7.51959 5.81371L6.81249 5.1066L6.10538 5.81371L6.81249 6.52082ZM1.87315 11.4602L2.58025 12.1673H2.58025L1.87315 11.4602ZM1.16604 11.4602L0.458933 12.1673L0.458934 12.1673L1.16604 11.4602ZM1.16604 10.753L0.458934 10.0459L0.458933 10.0459L1.16604 10.753ZM6.10538 5.81371L6.81249 6.52081L7.51959 5.81371L6.81249 5.1066L6.10538 5.81371ZM1.14523 0.853553L0.438119 1.56066H0.438119L1.14523 0.853553ZM1.14523 0.146447L1.85233 0.853553L1.85233 0.853553L1.14523 0.146447ZM1.85233 0.146447L2.55944 -0.56066L2.55944 -0.56066L1.85233 0.146447ZM6.81249 5.1066L6.10538 5.81371L6.81249 6.52081L7.51959 5.81371L6.81249 5.1066ZM11.7726 0.146447L11.0655 -0.560662L11.0655 -0.56066L11.7726 0.146447ZM12.4797 0.146447L13.1869 -0.56066L13.1869 -0.560662L12.4797 0.146447ZM12.4797 0.853553L13.1869 1.56066L13.1869 1.56066L12.4797 0.853553ZM7.51959 5.81371L6.81249 5.1066L6.10538 5.81371L6.81249 6.52082L7.51959 5.81371ZM13.166 12.1673C13.7518 11.5815 13.7518 10.6317 13.166 10.0459L11.7518 11.4602C11.5566 11.2649 11.5566 10.9483 11.7518 10.753L13.166 12.1673ZM11.0447 12.1673C11.6305 12.753 12.5803 12.753 13.166 12.1673L11.7518 10.753C11.9471 10.5578 12.2637 10.5578 12.4589 10.753L11.0447 12.1673ZM6.10538 7.22792L11.0447 12.1673L12.4589 10.753L7.51959 5.81371L6.10538 7.22792ZM6.10538 5.81371L1.16604 10.753L2.58025 12.1673L7.51959 7.22792L6.10538 5.81371ZM1.16604 10.753C1.3613 10.5578 1.67789 10.5578 1.87315 10.753L0.458934 12.1673C1.04472 12.753 1.99447 12.753 2.58025 12.1673L1.16604 10.753ZM1.87315 10.753C2.06841 10.9483 2.06841 11.2649 1.87315 11.4602L0.458933 10.0459C-0.126852 10.6317 -0.126852 11.5815 0.458933 12.1673L1.87315 10.753ZM1.87315 11.4602L6.81249 6.52081L5.39827 5.1066L0.458934 10.0459L1.87315 11.4602ZM0.438119 1.56066L5.39827 6.52081L6.81249 5.1066L1.85233 0.146447L0.438119 1.56066ZM0.438119 -0.56066C-0.147667 0.0251263 -0.147667 0.974874 0.438119 1.56066L1.85233 0.146447C2.04759 0.341709 2.04759 0.658291 1.85233 0.853553L0.438119 -0.56066ZM2.55944 -0.56066C1.97365 -1.14645 1.02391 -1.14645 0.438119 -0.56066L1.85233 0.853553C1.65707 1.04882 1.34049 1.04882 1.14523 0.853553L2.55944 -0.56066ZM7.51959 4.39949L2.55944 -0.56066L1.14523 0.853553L6.10538 5.81371L7.51959 4.39949ZM7.51959 5.81371L12.4797 0.853553L11.0655 -0.56066L6.10538 4.39949L7.51959 5.81371ZM12.4797 0.853555C12.2845 1.04882 11.9679 1.04882 11.7726 0.853555L13.1869 -0.560662C12.6011 -1.14645 11.6513 -1.14645 11.0655 -0.560662L12.4797 0.853555ZM11.7726 0.853553C11.5774 0.658291 11.5774 0.341709 11.7726 0.146447L13.1869 1.56066C13.7726 0.974873 13.7726 0.0251266 13.1869 -0.56066L11.7726 0.853553ZM11.7726 0.146447L6.81249 5.1066L8.2267 6.52082L13.1869 1.56066L11.7726 0.146447ZM13.166 10.0459L8.2267 5.1066L6.81249 6.52082L11.7518 11.4602L13.166 10.0459Z" fill="#0029FF" mask="url(#path-2-inside-1)"/>
</svg>
