<svg width="23" height="17" viewBox="0 0 23 17" fill="none" xmlns="http://www.w3.org/2000/svg">
<path d="M11.5 16.6246C9.42822 16.6246 7.53022 15.8631 6.07357 14.6031L0.793498 10.0433C0.30871 9.62259 0 9.00288 0 8.31229C0 7.62169 0.30871 6.9997 0.793498 6.58123L6.07357 2.02148C7.53022 0.761483 9.42822 0 11.5 0C13.5718 0 15.4698 0.761483 16.9264 2.02148L22.2065 6.58123C22.6913 6.9997 23 7.62169 23 8.31229C23 9.00288 22.6913 9.62259 22.2065 10.0433L16.9287 14.6031C15.4721 15.8631 13.5741 16.6246 11.5 16.6246C11.5023 16.6246 11.5 16.6246 11.5 16.6246Z" fill="#0019A5"/>
<path d="M11.5 13.4895C8.4685 13.4895 6 11.0228 6 7.9895C6 4.95801 8.4667 2.4895 11.5 2.4895C14.5333 2.4895 17 4.9562 17 7.9895C17 11.0228 14.5333 13.4895 11.5 13.4895Z" stroke="white" stroke-miterlimit="10" stroke-linecap="round" stroke-linejoin="round"/>
<path d="M4.24947 7.35181H2.32861V9.27267H4.24947V7.35181Z" stroke="white" stroke-miterlimit="10" stroke-linecap="round" stroke-linejoin="round"/>
<path d="M18.7525 9.27209H20.6733V7.35124H18.7525V9.27209Z" stroke="white" stroke-miterlimit="10" stroke-linecap="round" stroke-linejoin="round"/>
</svg>
