<svg width="18" height="18" viewBox="0 0 18 18" fill="none" xmlns="http://www.w3.org/2000/svg">
<path d="M16.5146 18H1.48537C0.664382 18 0 17.3356 0 16.5146V1.48537C0 0.664382 0.664382 0 1.48537 0H16.5146C17.3356 0 18 0.664382 18 1.48537V16.5146C18 17.3356 17.3356 18 16.5146 18Z" fill="#0019A5"/>
<path d="M1.87477 2.84494C2.41075 2.84494 2.84524 2.41044 2.84524 1.87446C2.84524 1.33849 2.41075 0.903992 1.87477 0.903992C1.33879 0.903992 0.904297 1.33849 0.904297 1.87446C0.904297 2.41044 1.33879 2.84494 1.87477 2.84494Z" stroke="white" stroke-miterlimit="10" stroke-linecap="round" stroke-linejoin="round"/>
<path d="M1.87477 17.096C2.41075 17.096 2.84524 16.6615 2.84524 16.1255C2.84524 15.5895 2.41075 15.155 1.87477 15.155C1.33879 15.155 0.904297 15.5895 0.904297 16.1255C0.904297 16.6615 1.33879 17.096 1.87477 17.096Z" stroke="white" stroke-miterlimit="10" stroke-linecap="round" stroke-linejoin="round"/>
<path d="M16.1257 17.096C16.6617 17.096 17.0962 16.6615 17.0962 16.1255C17.0962 15.5895 16.6617 15.155 16.1257 15.155C15.5898 15.155 15.1553 15.5895 15.1553 16.1255C15.1553 16.6615 15.5898 17.096 16.1257 17.096Z" stroke="white" stroke-miterlimit="10" stroke-linecap="round" stroke-linejoin="round"/>
<path d="M16.1257 2.84494C16.6617 2.84494 17.0962 2.41044 17.0962 1.87446C17.0962 1.33849 16.6617 0.903992 16.1257 0.903992C15.5898 0.903992 15.1553 1.33849 15.1553 1.87446C15.1553 2.41044 15.5898 2.84494 16.1257 2.84494Z" stroke="white" stroke-miterlimit="10" stroke-linecap="round" stroke-linejoin="round"/>
<path d="M8.99973 14.6829C12.1383 14.6829 14.6826 12.1386 14.6826 9.00004C14.6826 5.86149 12.1383 3.3172 8.99973 3.3172C5.86119 3.3172 3.31689 5.86149 3.31689 9.00004C3.31689 12.1386 5.86119 14.6829 8.99973 14.6829Z" stroke="white" stroke-miterlimit="10" stroke-linecap="round" stroke-linejoin="round"/>
<path d="M8.99998 13.0195C11.2199 13.0195 13.0195 11.22 13.0195 9.00004C13.0195 6.78013 11.2199 4.98053 8.99998 4.98053C6.78006 4.98053 4.98047 6.78013 4.98047 9.00004C4.98047 11.22 6.78006 13.0195 8.99998 13.0195Z" stroke="#003CFF" stroke-miterlimit="10" stroke-linecap="round" stroke-linejoin="round"/>
</svg>
