<svg width="27" height="15" viewBox="0 0 27 15" fill="none" xmlns="http://www.w3.org/2000/svg">
<path d="M13.5 14.4643C12.4395 14.4643 11.434 14.2161 10.5338 13.7723L1.17043 9.15769C0.478707 8.81649 0 8.08158 0 7.23214C0 6.38271 0.478707 5.6478 1.17043 5.30659L10.5338 0.691957C11.434 0.24815 12.4395 0 13.5 0C14.5605 0 15.566 0.24815 16.4662 0.691957L25.8296 5.30659C26.5213 5.6478 27 6.38271 27 7.23214C27 8.08158 26.5213 8.81649 25.8296 9.15769L16.4662 13.7723C15.566 14.2161 14.5605 14.4643 13.5 14.4643Z" fill="#0019A5"/>
<path d="M2.04301 8.2271C2.57051 8.2271 2.99814 7.78162 2.99814 7.23211C2.99814 6.68259 2.57051 6.23712 2.04301 6.23712C1.51551 6.23712 1.08789 6.68259 1.08789 7.23211C1.08789 7.78162 1.51551 8.2271 2.04301 8.2271Z" stroke="white" stroke-miterlimit="10" stroke-linecap="round" stroke-linejoin="round"/>
<path d="M24.9566 8.2271C25.4841 8.2271 25.9117 7.78162 25.9117 7.23211C25.9117 6.68259 25.4841 6.23712 24.9566 6.23712C24.4291 6.23712 24.0015 6.68259 24.0015 7.23211C24.0015 7.78162 24.4291 8.2271 24.9566 8.2271Z" stroke="white" stroke-miterlimit="10" stroke-linecap="round" stroke-linejoin="round"/>
<path d="M13.4998 11.7391C15.769 11.7391 17.6085 9.89959 17.6085 7.63042C17.6085 5.36125 15.769 3.52173 13.4998 3.52173C11.2306 3.52173 9.39111 5.36125 9.39111 7.63042C9.39111 9.89959 11.2306 11.7391 13.4998 11.7391Z" stroke="white" stroke-miterlimit="10" stroke-linecap="round" stroke-linejoin="round"/>
<path d="M13.5002 10.5652C15.121 10.5652 16.435 9.25127 16.435 7.63043C16.435 6.00959 15.121 4.69565 13.5002 4.69565C11.8794 4.69565 10.5654 6.00959 10.5654 7.63043C10.5654 9.25127 11.8794 10.5652 13.5002 10.5652Z" stroke="#003CFF" stroke-miterlimit="10" stroke-linecap="round" stroke-linejoin="round"/>
</svg>
