<svg width="26" height="14" viewBox="0 0 26 14" fill="none" xmlns="http://www.w3.org/2000/svg">
<path d="M26 13.8771H18.757C17.0974 12.8088 15.1212 12.1867 13 12.1867C10.881 12.1867 8.9026 12.8066 7.24518 13.8771H0C0.184647 13.2198 0.367095 12.5582 0.80673 10.9931H5.04041L7.25617 4.16554C8.21897 1.38705 10.6084 0 13 0C15.3916 0 17.781 1.38705 18.7416 4.16334L20.9574 10.9909H25.1911C25.6307 12.5582 25.8154 13.2198 26 13.8771Z" fill="#0019A5"/>
<path d="M13.0001 10.483C15.4585 10.483 17.4514 8.49013 17.4514 6.03175C17.4514 3.57336 15.4585 1.58044 13.0001 1.58044C10.5417 1.58044 8.54883 3.57336 8.54883 6.03175C8.54883 8.49013 10.5417 10.483 13.0001 10.483Z" stroke="white" stroke-miterlimit="10" stroke-linecap="round" stroke-linejoin="round"/>
<path d="M13.001 8.94888C14.612 8.94888 15.9179 7.64291 15.9179 6.03191C15.9179 4.4209 14.612 3.11493 13.001 3.11493C11.39 3.11493 10.084 4.4209 10.084 6.03191C10.084 7.64291 11.39 8.94888 13.001 8.94888Z" stroke="#003CFF" stroke-miterlimit="10" stroke-linecap="round" stroke-linejoin="round"/>
</svg>
