<svg width="27" height="14" viewBox="0 0 27 14" fill="none" xmlns="http://www.w3.org/2000/svg">
<path d="M9.94658 0.671487C12.2183 -0.229413 14.929 -0.223473 17.1938 0.687368L24.2419 3.52185C27.9193 5.00081 27.9194 8.99877 24.242 10.4778L17.1936 13.3126C14.9289 14.2234 12.2183 14.2294 9.94663 13.3287L2.78492 10.489C-0.928181 9.01667 -0.928339 4.98416 2.78464 3.5117L9.94658 0.671487Z" fill="#0019A5"/>
<path d="M3.04301 7.98997C3.57051 7.98997 3.99814 7.5445 3.99814 6.99499C3.99814 6.44547 3.57051 6 3.04301 6C2.51551 6 2.08789 6.44547 2.08789 6.99499C2.08789 7.5445 2.51551 7.98997 3.04301 7.98997Z" stroke="white" stroke-miterlimit="10" stroke-linecap="round" stroke-linejoin="round"/>
<path d="M23.9566 7.98997C24.4841 7.98997 24.9117 7.5445 24.9117 6.99499C24.9117 6.44547 24.4841 6 23.9566 6C23.4291 6 23.0015 6.44547 23.0015 6.99499C23.0015 7.5445 23.4291 7.98997 23.9566 7.98997Z" stroke="white" stroke-miterlimit="10" stroke-linecap="round" stroke-linejoin="round"/>
<path d="M13.4998 11.2174C15.769 11.2174 17.6085 9.37787 17.6085 7.1087C17.6085 4.83953 15.769 3 13.4998 3C11.2306 3 9.39111 4.83953 9.39111 7.1087C9.39111 9.37787 11.2306 11.2174 13.4998 11.2174Z" stroke="white" stroke-miterlimit="10" stroke-linecap="round" stroke-linejoin="round"/>
<path d="M13.5002 10.0435C15.121 10.0435 16.435 8.72957 16.435 7.10873C16.435 5.4879 15.121 4.17395 13.5002 4.17395C11.8794 4.17395 10.5654 5.4879 10.5654 7.10873C10.5654 8.72957 11.8794 10.0435 13.5002 10.0435Z" stroke="#003CFF" stroke-miterlimit="10" stroke-linecap="round" stroke-linejoin="round"/>
</svg>
