<svg width="17" height="19" viewBox="0 0 17 19" fill="none" xmlns="http://www.w3.org/2000/svg">
<path d="M16.9083 8.45291V19H13.748V17.0632H3.1654V19H0V8.45291C0 3.79238 3.79238 0 8.45544 0C13.116 0 16.9083 3.79238 16.9083 8.45291Z" fill="#0019A5"/>
<path d="M8.45547 14.5325C11.8131 14.5325 14.535 11.8106 14.535 8.45298C14.535 5.09537 11.8131 2.37349 8.45547 2.37349C5.09786 2.37349 2.37598 5.09537 2.37598 8.45298C2.37598 11.8106 5.09786 14.5325 8.45547 14.5325Z" stroke="white" stroke-miterlimit="10" stroke-linecap="round" stroke-linejoin="round"/>
<path d="M1.70793 0.487947L0.492188 1.7061L1.4606 2.6726L2.67635 1.45445L1.70793 0.487947Z" fill="#0019A5"/>
<path d="M8.45534 12.7529C10.8302 12.7529 12.7554 10.8277 12.7554 8.45284C12.7554 6.07798 10.8302 4.15277 8.45534 4.15277C6.08048 4.15277 4.15527 6.07798 4.15527 8.45284C4.15527 10.8277 6.08048 12.7529 8.45534 12.7529Z" stroke="#003CFF" stroke-miterlimit="10" stroke-linecap="round" stroke-linejoin="round"/>
</svg>
