<svg width="17" height="18" viewBox="0 0 17 18" fill="none" xmlns="http://www.w3.org/2000/svg">
<path d="M16.0184 8.00802V18H11.4782C10.5138 17.2713 9.31142 16.8385 8.01042 16.8385C6.70942 16.8385 5.50701 17.2713 4.54269 18H0V8.00802C0 3.59279 3.59279 0 8.01042 0C12.4257 0 16.0184 3.59279 16.0184 8.00802Z" fill="#0019A5"/>
<path d="M8.0105 13.7676C11.1914 13.7676 13.77 11.189 13.77 8.00813C13.77 4.82724 11.1914 2.24861 8.0105 2.24861C4.8296 2.24861 2.25098 4.82724 2.25098 8.00813C2.25098 11.189 4.8296 13.7676 8.0105 13.7676Z" stroke="white" stroke-miterlimit="10" stroke-linecap="round" stroke-linejoin="round"/>
<path d="M1.61758 0.461988L0.46582 1.61603L1.38327 2.53166L2.53502 1.37762L1.61758 0.461988Z" fill="#0019A5"/>
<path d="M8.01027 12.0818C10.2601 12.0818 12.084 10.2579 12.084 8.00801C12.084 5.75814 10.2601 3.93427 8.01027 3.93427C5.7604 3.93427 3.93652 5.75814 3.93652 8.00801C3.93652 10.2579 5.7604 12.0818 8.01027 12.0818Z" stroke="#003CFF" stroke-miterlimit="10" stroke-linecap="round" stroke-linejoin="round"/>
</svg>
