<svg width="20" height="20" viewBox="0 0 20 20" fill="none" xmlns="http://www.w3.org/2000/svg">
<path d="M10 20C15.5228 20 20 15.5228 20 10C20 4.47715 15.5228 0 10 0C4.47715 0 0 4.47715 0 10C0 15.5228 4.47715 20 10 20Z" fill="#0019A5"/>
<path d="M10.0004 14.7826C7.36227 14.7826 5.21777 12.636 5.21777 10C5.21777 7.36191 7.36435 5.21741 10.0004 5.21741C12.6364 5.21741 14.783 7.36398 14.783 10C14.783 12.636 12.6364 14.7826 10.0004 14.7826Z" stroke="white" stroke-miterlimit="10" stroke-linecap="round" stroke-linejoin="round"/>
<path d="M11.0228 16.7657H8.97852V18.81H11.0228V16.7657Z" stroke="white" stroke-miterlimit="10" stroke-linecap="round" stroke-linejoin="round"/>
<path d="M15.3499 5.73117L16.3721 7.50153L18.1424 6.47938L17.1203 4.70902L15.3499 5.73117Z" stroke="white" stroke-miterlimit="10" stroke-linecap="round" stroke-linejoin="round"/>
<path d="M3.62727 7.50034L4.64941 5.72998L2.87906 4.70783L1.85691 6.47819L3.62727 7.50034Z" stroke="white" stroke-miterlimit="10" stroke-linecap="round" stroke-linejoin="round"/>
</svg>
