<svg width="18" height="18" viewBox="0 0 18 18" fill="none" xmlns="http://www.w3.org/2000/svg">
<path d="M16.5146 18H1.48537C0.664382 18 0 17.3356 0 16.5146V1.48537C0 0.664382 0.664382 0 1.48537 0H16.5146C17.3356 0 18 0.664382 18 1.48537V16.5146C18 17.3356 17.3356 18 16.5146 18Z" fill="#0019A5"/>
<path d="M1.87477 2.84494C2.41075 2.84494 2.84524 2.41044 2.84524 1.87446C2.84524 1.33849 2.41075 0.903992 1.87477 0.903992C1.33879 0.903992 0.904297 1.33849 0.904297 1.87446C0.904297 2.41044 1.33879 2.84494 1.87477 2.84494Z" stroke="white" stroke-miterlimit="10" stroke-linecap="round" stroke-linejoin="round"/>
<path d="M1.87477 17.0959C2.41075 17.0959 2.84524 16.6614 2.84524 16.1255C2.84524 15.5895 2.41075 15.155 1.87477 15.155C1.33879 15.155 0.904297 15.5895 0.904297 16.1255C0.904297 16.6614 1.33879 17.0959 1.87477 17.0959Z" stroke="white" stroke-miterlimit="10" stroke-linecap="round" stroke-linejoin="round"/>
<path d="M16.1257 17.0959C16.6617 17.0959 17.0962 16.6614 17.0962 16.1255C17.0962 15.5895 16.6617 15.155 16.1257 15.155C15.5898 15.155 15.1553 15.5895 15.1553 16.1255C15.1553 16.6614 15.5898 17.0959 16.1257 17.0959Z" stroke="white" stroke-miterlimit="10" stroke-linecap="round" stroke-linejoin="round"/>
<path d="M16.1257 2.84494C16.6617 2.84494 17.0962 2.41044 17.0962 1.87446C17.0962 1.33849 16.6617 0.903992 16.1257 0.903992C15.5898 0.903992 15.1553 1.33849 15.1553 1.87446C15.1553 2.41044 15.5898 2.84494 16.1257 2.84494Z" stroke="white" stroke-miterlimit="10" stroke-linecap="round" stroke-linejoin="round"/>
<path d="M16.1257 5.94094C16.6617 5.94094 17.0962 5.50645 17.0962 4.97047C17.0962 4.4345 16.6617 4 16.1257 4C15.5898 4 15.1553 4.4345 15.1553 4.97047C15.1553 5.50645 15.5898 5.94094 16.1257 5.94094Z" fill="#003CFF"/>
<path d="M1.97047 5.94094C2.50645 5.94094 2.94094 5.50645 2.94094 4.97047C2.94094 4.4345 2.50645 4 1.97047 4C1.4345 4 1 4.4345 1 4.97047C1 5.50645 1.4345 5.94094 1.97047 5.94094Z" fill="#003CFF"/>
<path d="M4.97047 2.94094C5.50645 2.94094 5.94094 2.50645 5.94094 1.97047C5.94094 1.4345 5.50645 1 4.97047 1C4.4345 1 4 1.4345 4 1.97047C4 2.50645 4.4345 2.94094 4.97047 2.94094Z" fill="#003CFF"/>
<path d="M12.9705 2.94094C13.5064 2.94094 13.9409 2.50645 13.9409 1.97047C13.9409 1.4345 13.5064 1 12.9705 1C12.4345 1 12 1.4345 12 1.97047C12 2.50645 12.4345 2.94094 12.9705 2.94094Z" fill="#003CFF"/>
<path d="M12.9705 16.9409C13.5064 16.9409 13.9409 16.5064 13.9409 15.9705C13.9409 15.4345 13.5064 15 12.9705 15C12.4345 15 12 15.4345 12 15.9705C12 16.5064 12.4345 16.9409 12.9705 16.9409Z" fill="#003CFF"/>
<path d="M4.97047 16.9409C5.50645 16.9409 5.94094 16.5064 5.94094 15.9705C5.94094 15.4345 5.50645 15 4.97047 15C4.4345 15 4 15.4345 4 15.9705C4 16.5064 4.4345 16.9409 4.97047 16.9409Z" fill="#003CFF"/>
<path d="M16.1257 13.9409C16.6617 13.9409 17.0962 13.5064 17.0962 12.9705C17.0962 12.4345 16.6617 12 16.1257 12C15.5898 12 15.1553 12.4345 15.1553 12.9705C15.1553 13.5064 15.5898 13.9409 16.1257 13.9409Z" fill="#003CFF"/>
<path d="M1.97047 13.9409C2.50645 13.9409 2.94094 13.5064 2.94094 12.9705C2.94094 12.4345 2.50645 12 1.97047 12C1.4345 12 1 12.4345 1 12.9705C1 13.5064 1.4345 13.9409 1.97047 13.9409Z" fill="#003CFF"/>
<path d="M9 13C11.2091 13 13 11.2091 13 9C13 6.79086 11.2091 5 9 5C6.79086 5 5 6.79086 5 9C5 11.2091 6.79086 13 9 13Z" stroke="white" stroke-miterlimit="10" stroke-linecap="round" stroke-linejoin="round"/>
<path d="M9 12C10.6569 12 12 10.6569 12 9C12 7.34315 10.6569 6 9 6C7.34315 6 6 7.34315 6 9C6 10.6569 7.34315 12 9 12Z" stroke="#003CFF" stroke-miterlimit="10" stroke-linecap="round" stroke-linejoin="round"/>
</svg>
