<svg width="26" height="21" viewBox="0 0 26 21" fill="none" xmlns="http://www.w3.org/2000/svg">
<rect x="0.725586" y="7.98218" width="5.80526" height="4.35394" fill="#003CFF"/>
<rect x="19.1562" y="7.98218" width="5.80526" height="4.35394" fill="#003CFF"/>
<rect x="24.9614" y="9.19165" width="0.725657" height="1.93509" fill="#0019A5"/>
<rect y="9.19165" width="0.725657" height="1.93509" fill="#0019A5"/>
<path d="M12.7735 20.42C18.4123 20.42 22.9835 15.8488 22.9835 10.21C22.9835 4.57117 18.4123 0 12.7735 0C7.13465 0 2.56348 4.57117 2.56348 10.21C2.56348 15.8488 7.13465 20.42 12.7735 20.42Z" fill="#0019A5"/>
<path d="M13 15C15.7614 15 18 12.7614 18 10C18 7.23858 15.7614 5 13 5C10.2386 5 8 7.23858 8 10C8 12.7614 10.2386 15 13 15Z" stroke="white" stroke-miterlimit="10" stroke-linecap="round" stroke-linejoin="round"/>
<path d="M13 13C14.6569 13 16 11.6569 16 10C16 8.34315 14.6569 7 13 7C11.3431 7 10 8.34315 10 10C10 11.6569 11.3431 13 13 13Z" stroke="#003CFF" stroke-miterlimit="10" stroke-linecap="round" stroke-linejoin="round"/>
<path d="M18.5087 5.48354C19.0657 5.48354 19.5173 5.03195 19.5173 4.47488C19.5173 3.91781 19.0657 3.46622 18.5087 3.46622C17.9516 3.46622 17.5 3.91781 17.5 4.47488C17.5 5.03195 17.9516 5.48354 18.5087 5.48354Z" stroke="white" stroke-miterlimit="10" stroke-linecap="round" stroke-linejoin="round"/>
<path d="M7.03845 5.48354C7.59552 5.48354 8.04711 5.03195 8.04711 4.47488C8.04711 3.91781 7.59552 3.46622 7.03845 3.46622C6.48138 3.46622 6.02979 3.91781 6.02979 4.47488C6.02979 5.03195 6.48138 5.48354 7.03845 5.48354Z" stroke="white" stroke-miterlimit="10" stroke-linecap="round" stroke-linejoin="round"/>
<path d="M7.03845 16.9538C7.59552 16.9538 8.04711 16.5022 8.04711 15.9451C8.04711 15.3881 7.59552 14.9365 7.03845 14.9365C6.48138 14.9365 6.02979 15.3881 6.02979 15.9451C6.02979 16.5022 6.48138 16.9538 7.03845 16.9538Z" stroke="white" stroke-miterlimit="10" stroke-linecap="round" stroke-linejoin="round"/>
<path d="M18.5087 16.9538C19.0657 16.9538 19.5173 16.5022 19.5173 15.9451C19.5173 15.3881 19.0657 14.9365 18.5087 14.9365C17.9516 14.9365 17.5 15.3881 17.5 15.9451C17.5 16.5022 17.9516 16.9538 18.5087 16.9538Z" stroke="white" stroke-miterlimit="10" stroke-linecap="round" stroke-linejoin="round"/>
</svg>
