<svg width="20" height="20" viewBox="0 0 20 20" fill="none" xmlns="http://www.w3.org/2000/svg">
<path d="M10 20C15.5228 20 20 15.5228 20 10C20 4.47715 15.5228 0 10 0C4.47715 0 0 4.47715 0 10C0 15.5228 4.47715 20 10 20Z" fill="#0019A5"/>
<path d="M10.0004 14.7826C12.6417 14.7826 14.783 12.6414 14.783 10C14.783 7.35865 12.6417 5.21741 10.0004 5.21741C7.35902 5.21741 5.21777 7.35865 5.21777 10C5.21777 12.6414 7.35902 14.7826 10.0004 14.7826Z" stroke="white" stroke-miterlimit="10" stroke-linecap="round" stroke-linejoin="round"/>
<path d="M10.0005 13.0436C11.6814 13.0436 13.044 11.6809 13.044 10.0001C13.044 8.31922 11.6814 6.9566 10.0005 6.9566C8.31964 6.9566 6.95703 8.31922 6.95703 10.0001C6.95703 11.6809 8.31964 13.0436 10.0005 13.0436Z" stroke="#003CFF" stroke-miterlimit="10" stroke-linecap="round" stroke-linejoin="round"/>
<path d="M15.6173 5.37067C16.1629 5.37067 16.6052 4.92837 16.6052 4.38275C16.6052 3.83714 16.1629 3.39484 15.6173 3.39484C15.0717 3.39484 14.6294 3.83714 14.6294 4.38275C14.6294 4.92837 15.0717 5.37067 15.6173 5.37067Z" stroke="white" stroke-miterlimit="10" stroke-linecap="round" stroke-linejoin="round"/>
<path d="M4.38245 5.37067C4.92806 5.37067 5.37037 4.92837 5.37037 4.38275C5.37037 3.83714 4.92806 3.39484 4.38245 3.39484C3.83684 3.39484 3.39453 3.83714 3.39453 4.38275C3.39453 4.92837 3.83684 5.37067 4.38245 5.37067Z" stroke="white" stroke-miterlimit="10" stroke-linecap="round" stroke-linejoin="round"/>
<path d="M4.38245 16.6051C4.92806 16.6051 5.37037 16.1628 5.37037 15.6172C5.37037 15.0715 4.92806 14.6292 4.38245 14.6292C3.83684 14.6292 3.39453 15.0715 3.39453 15.6172C3.39453 16.1628 3.83684 16.6051 4.38245 16.6051Z" stroke="white" stroke-miterlimit="10" stroke-linecap="round" stroke-linejoin="round"/>
<path d="M15.6173 16.6051C16.1629 16.6051 16.6052 16.1628 16.6052 15.6172C16.6052 15.0715 16.1629 14.6292 15.6173 14.6292C15.0717 14.6292 14.6294 15.0715 14.6294 15.6172C14.6294 16.1628 15.0717 16.6051 15.6173 16.6051Z" stroke="white" stroke-miterlimit="10" stroke-linecap="round" stroke-linejoin="round"/>
</svg>
