<svg width="20" height="18" viewBox="0 0 20 18" fill="none" xmlns="http://www.w3.org/2000/svg">
<path d="M7.83546 0L0 13.5732C0.960975 15.2373 1.20239 15.6545 2.16337 17.3186H17.8366C18.7976 15.6545 19.039 15.2373 20 13.5732L12.1599 0C10.2379 0 9.75741 0 7.83546 0Z" fill="#0019A5"/>
<path d="M10.0004 14.7826C7.36332 14.7826 5.21777 12.6371 5.21777 10C5.21777 7.36295 7.36332 5.21741 10.0004 5.21741C12.6374 5.21741 14.783 7.36295 14.783 10C14.783 12.6371 12.6374 14.7826 10.0004 14.7826Z" stroke="white" stroke-miterlimit="10" stroke-linecap="round" stroke-linejoin="round"/>
<path d="M10.9835 1.12732H9.01465V3.09615H10.9835V1.12732Z" stroke="white" stroke-miterlimit="10" stroke-linecap="round" stroke-linejoin="round"/>
<path d="M1.56588 14.0297L2.55029 15.7347L4.2553 14.7503L3.27088 13.0453L1.56588 14.0297Z" stroke="white" stroke-miterlimit="10" stroke-linecap="round" stroke-linejoin="round"/>
<path d="M17.4472 15.7345L18.4316 14.0295L16.7266 13.0451L15.7422 14.7501L17.4472 15.7345Z" stroke="white" stroke-miterlimit="10" stroke-linecap="round" stroke-linejoin="round"/>
</svg>
