<svg width="16" height="22" viewBox="0 0 16 22" fill="none" xmlns="http://www.w3.org/2000/svg">
<path d="M7.33 17.93L8 18.53L8.67 17.93C8.93 17.7 15 12.18 15 7C15 5.14348 14.2625 3.36301 12.9497 2.05025C11.637 0.737498 9.85652 0 8 0C6.14348 0 4.36301 0.737498 3.05025 2.05025C1.7375 3.36301 1 5.14348 1 7C1 12.18 7.07 17.7 7.33 17.93ZM8 1.5C9.45788 1.50264 10.8553 2.08295 11.8862 3.11383C12.917 4.14471 13.4974 5.54212 13.5 7C13.5 10.89 9.24 15.3 8 16.5C6.76 15.3 2.5 10.89 2.5 7C2.50264 5.54212 3.08295 4.14471 4.11383 3.11383C5.14471 2.08295 6.54212 1.50264 8 1.5ZM0 20.5V22H16V20.5H0ZM9.1 7C9.1 6.78244 9.03549 6.56977 8.91462 6.38887C8.79375 6.20798 8.62195 6.06699 8.42095 5.98373C8.21995 5.90048 7.99878 5.87869 7.7854 5.92114C7.57202 5.96358 7.37602 6.06835 7.22218 6.22218C7.06834 6.37602 6.96358 6.57202 6.92114 6.7854C6.87869 6.99878 6.90048 7.21995 6.98373 7.42095C7.06699 7.62195 7.20798 7.79375 7.38887 7.91462C7.56977 8.03549 7.78244 8.1 8 8.1C8.29174 8.1 8.57153 7.98411 8.77782 7.77782C8.98411 7.57153 9.1 7.29174 9.1 7Z" fill="#0029FF"/>
</svg>
