<svg width="48" height="48" viewBox="0 0 48 48" fill="none" xmlns="http://www.w3.org/2000/svg">
<circle r="23.5" transform="matrix(-1 0 0 1 24 24)" stroke="#0029FF"/>
<path d="M28.8428 42.8051L26.8535 43.2083L26.7609 42.7512L27.4844 42.6045L26.9913 40.172L26.2678 40.3186L26.1756 39.8638L28.1648 39.4606L28.257 39.9154L27.5495 40.0588L28.0426 42.4914L28.7501 42.348L28.8428 42.8051Z" fill="#0029FF"/>
<path d="M23.4472 40.7186C23.4433 40.7997 23.4571 40.8716 23.4886 40.9341C23.5184 40.9981 23.5634 41.055 23.6236 41.1047C23.6822 41.1545 23.7537 41.1985 23.8379 41.2369C23.9204 41.2769 24.011 41.314 24.1094 41.3484C24.2418 41.3938 24.3722 41.4485 24.5005 41.5125C24.6273 41.5764 24.7402 41.6522 24.8393 41.7398C24.9368 41.8289 25.0148 41.9304 25.0736 42.0442C25.1306 42.1596 25.1557 42.2906 25.1487 42.4373C25.1417 42.584 25.1043 42.7136 25.0364 42.8262C24.9668 42.9402 24.877 43.0352 24.767 43.1113C24.657 43.1875 24.5308 43.244 24.3882 43.281C24.2457 43.3181 24.0979 43.3329 23.945 43.3256C23.7811 43.3179 23.6294 43.2848 23.4898 43.2266C23.3486 43.1698 23.2271 43.0928 23.1254 42.9957C23.022 42.9001 22.9421 42.7868 22.8858 42.6558C22.8294 42.5264 22.804 42.3844 22.8098 42.2298L23.3717 42.2566C23.3754 42.3428 23.3904 42.4217 23.4167 42.4934C23.4414 42.5665 23.4791 42.6301 23.5297 42.6841C23.5787 42.738 23.6401 42.7809 23.7136 42.8125C23.7872 42.8442 23.8732 42.8623 23.9715 42.867C24.0558 42.871 24.1343 42.8638 24.2072 42.8454C24.28 42.8269 24.344 42.7979 24.399 42.7583C24.4525 42.7186 24.4955 42.6698 24.528 42.6119C24.5605 42.554 24.5785 42.4876 24.5821 42.4127C24.5858 42.3331 24.5689 42.2627 24.5311 42.2014C24.4933 42.1418 24.4426 42.0885 24.3791 42.0417C24.3157 41.9949 24.2426 41.9531 24.1599 41.9163C24.0755 41.881 23.9879 41.8479 23.8971 41.817C23.7571 41.7681 23.6238 41.7093 23.4972 41.6407C23.3706 41.5737 23.2601 41.4942 23.166 41.4021C23.0717 41.3116 22.9984 41.208 22.9461 41.0913C22.8938 40.9746 22.8711 40.8429 22.8781 40.6962C22.8853 40.5448 22.9236 40.4129 22.9931 40.3004C23.0626 40.188 23.1531 40.0953 23.2645 40.0224C23.3759 39.9495 23.5035 39.8961 23.6475 39.8623C23.7914 39.83 23.9406 39.8176 24.0951 39.8249C24.1997 39.8299 24.303 39.845 24.405 39.8702C24.5071 39.8954 24.6047 39.9305 24.698 39.9756C24.7897 40.0206 24.8747 40.0747 24.9531 40.1379C25.0313 40.2026 25.099 40.2755 25.1562 40.3564C25.2117 40.4388 25.2543 40.5292 25.2841 40.6276C25.3137 40.7276 25.3266 40.8361 25.3225 40.9533L24.7583 40.9264C24.7554 40.823 24.7371 40.7322 24.7033 40.654C24.6694 40.5757 24.6225 40.5093 24.5626 40.4549C24.5025 40.402 24.4317 40.3603 24.3503 40.3298C24.2672 40.3008 24.1749 40.2839 24.0735 40.2791C23.9892 40.2751 23.9099 40.2815 23.8356 40.2983C23.7613 40.3151 23.6959 40.3417 23.6394 40.3781C23.5828 40.4161 23.5376 40.4632 23.5036 40.5195C23.4696 40.5773 23.4508 40.6437 23.4472 40.7186Z" fill="#0029FF"/>
<path d="M8.02886 34.5423L6.99725 32.7943L7.39892 32.5573L7.77416 33.1931L9.91169 31.9315L9.53645 31.2957L9.93611 31.0599L10.9677 32.8078L10.5681 33.0437L10.2012 32.422L8.06363 33.6835L8.43053 34.3052L8.02886 34.5423Z" fill="#0029FF"/>
<path d="M7.86152 27.9817C7.78356 28.0046 7.72019 28.0412 7.67141 28.0913C7.62069 28.1404 7.58164 28.2015 7.55428 28.2747C7.52647 28.3464 7.50819 28.4283 7.49942 28.5204C7.48871 28.6115 7.4832 28.7092 7.4829 28.8135C7.48328 28.9535 7.47423 29.0945 7.45574 29.2368C7.43681 29.3775 7.40215 29.509 7.35175 29.6313C7.29941 29.7525 7.22904 29.8595 7.14065 29.9522C7.05032 30.0439 6.93469 30.1104 6.79377 30.1518C6.65285 30.1932 6.51811 30.2002 6.38956 30.1728C6.25907 30.1443 6.13987 30.0906 6.03198 30.0115C5.92408 29.9325 5.82933 29.8316 5.74773 29.709C5.66613 29.5864 5.60376 29.4517 5.56061 29.3048C5.51438 29.1474 5.49597 28.9932 5.50538 28.8422C5.51285 28.6902 5.54584 28.5502 5.60436 28.4223C5.66093 28.2933 5.74188 28.1808 5.8472 28.0847C5.95103 27.9891 6.07693 27.9187 6.22491 27.8737L6.38341 28.4134C6.30315 28.4451 6.23347 28.4851 6.17438 28.5334C6.11334 28.5806 6.06557 28.637 6.03106 28.7025C5.99612 28.7665 5.97572 28.8384 5.96987 28.9183C5.96402 28.9982 5.97496 29.0854 6.00269 29.1798C6.02647 29.2608 6.05898 29.3327 6.10022 29.3955C6.14146 29.4583 6.1898 29.5092 6.24525 29.5483C6.30026 29.5859 6.36043 29.6105 6.42576 29.6223C6.4911 29.6341 6.55974 29.6294 6.6317 29.6082C6.70816 29.5858 6.76915 29.5467 6.81468 29.491C6.8587 29.4357 6.89245 29.3704 6.91594 29.2951C6.93943 29.2198 6.95502 29.1371 6.96273 29.0469C6.9685 28.9556 6.97114 28.862 6.97065 28.7661C6.97106 28.6178 6.98298 28.4726 7.00641 28.3306C7.02834 28.189 7.06741 28.0586 7.12363 27.9395C7.17834 27.8208 7.25228 27.7177 7.34543 27.6301C7.43858 27.5425 7.55562 27.478 7.69654 27.4366C7.84196 27.3939 7.97917 27.387 8.10816 27.4159C8.23715 27.4448 8.35432 27.4999 8.45966 27.5814C8.56499 27.6628 8.65718 27.766 8.73623 27.891C8.81377 28.0164 8.87434 28.1533 8.91792 28.3017C8.94742 28.4022 8.96695 28.5047 8.97652 28.6094C8.98609 28.7141 8.98481 28.8179 8.97269 28.9207C8.96013 29.0221 8.93681 29.1202 8.90273 29.2149C8.86716 29.31 8.82048 29.3978 8.76269 29.4783C8.70296 29.5577 8.63146 29.6276 8.5482 29.6878C8.46344 29.7486 8.36505 29.7962 8.25306 29.8307L8.0939 29.2887C8.19064 29.2522 8.27046 29.2051 8.33336 29.1476C8.39625 29.09 8.44363 29.024 8.47549 28.9495C8.50586 28.8755 8.52211 28.795 8.52427 28.708C8.52448 28.62 8.51028 28.5273 8.48166 28.4298C8.45788 28.3489 8.42591 28.276 8.38572 28.2113C8.34554 28.1466 8.29901 28.0935 8.24612 28.052C8.19173 28.011 8.1324 27.9836 8.06812 27.9699C8.00235 27.9567 7.93348 27.9606 7.86152 27.9817Z" fill="#0029FF"/>
<path d="M6.72679 23.4043C6.92821 23.3966 7.1228 23.415 7.31057 23.4594C7.49677 23.5039 7.66288 23.575 7.8089 23.6726C7.95329 23.7688 8.07059 23.8925 8.1608 24.0439C8.24939 24.1937 8.29761 24.3717 8.30547 24.5778C8.31327 24.7824 8.2779 24.962 8.19936 25.1166C8.12082 25.2713 8.01323 25.402 7.87657 25.5089C7.7383 25.6142 7.57803 25.6962 7.39575 25.7547C7.21341 25.8117 7.02154 25.8441 6.82012 25.8517L6.3845 25.8684C6.25022 25.8735 6.11865 25.8675 5.98979 25.8506C5.86086 25.832 5.73936 25.803 5.62527 25.7636C5.50956 25.7227 5.40284 25.6712 5.30509 25.6093C5.20573 25.5459 5.12 25.4709 5.04791 25.3846C4.97575 25.2966 4.91802 25.1972 4.8747 25.0863C4.83131 24.9738 4.80703 24.8496 4.80185 24.7138C4.794 24.5077 4.8293 24.3265 4.90778 24.1703C4.9862 24.0125 5.09449 23.8793 5.23264 23.7709C5.36924 23.6625 5.52945 23.579 5.71329 23.5204C5.89713 23.4617 6.08976 23.4286 6.29117 23.4209L6.72679 23.4043ZM6.30801 23.9855C6.18004 23.992 6.05323 24.0085 5.9276 24.0352C5.80196 24.0619 5.69094 24.1029 5.59454 24.1582C5.49658 24.2135 5.41879 24.2853 5.36117 24.3735C5.30193 24.4601 5.27475 24.5675 5.27963 24.6955C5.28445 24.822 5.3197 24.9262 5.38537 25.0081C5.44942 25.0886 5.53236 25.1519 5.63419 25.198C5.73597 25.2426 5.85048 25.2726 5.97772 25.2881C6.10334 25.3021 6.2302 25.3074 6.35829 25.3041L6.7986 25.2873C6.92657 25.2809 7.0534 25.2651 7.1791 25.24C7.30324 25.2149 7.41513 25.1762 7.51477 25.124C7.61279 25.0702 7.69145 25.0007 7.75075 24.9156C7.80999 24.8289 7.8372 24.7223 7.83238 24.5959C7.82749 24.4678 7.79222 24.3628 7.72655 24.2809C7.66082 24.1974 7.57701 24.1318 7.47511 24.0841C7.37322 24.0364 7.25865 24.0048 7.13141 23.9893C7.00411 23.9723 6.87641 23.9654 6.74832 23.9687L6.30801 23.9855Z" fill="#0029FF"/>
<path d="M8.68 12.3668L9.99447 10.8203L10.3499 11.1223L9.87172 11.6849L11.7629 13.2923L12.2411 12.7298L12.5947 13.0303L11.2802 14.5768L10.9266 14.2763L11.3941 13.7263L9.50288 12.1188L9.03538 12.6689L8.68 12.3668Z" fill="#0029FF"/>
<path d="M14.8252 10.0632C14.7781 9.99703 14.7229 9.94909 14.6595 9.91939C14.5965 9.88752 14.526 9.87061 14.4479 9.86868C14.3711 9.86585 14.2877 9.87536 14.1977 9.8972C14.1081 9.91687 14.014 9.94362 13.9153 9.97745C13.7832 10.0236 13.6469 10.0612 13.5065 10.0902C13.3673 10.1183 13.2317 10.1286 13.0997 10.1209C12.968 10.1111 12.8439 10.0796 12.7274 10.0264C12.6112 9.97103 12.5105 9.88352 12.4253 9.76388C12.3401 9.64424 12.2894 9.5192 12.2733 9.38876C12.2575 9.25614 12.2693 9.12593 12.3087 8.99811C12.3481 8.87029 12.4124 8.74778 12.5016 8.63057C12.5908 8.51336 12.6977 8.41035 12.8225 8.32152C12.9561 8.22636 13.0958 8.15853 13.2415 8.11806C13.3876 8.0754 13.5307 8.0608 13.6707 8.07426C13.8111 8.08555 13.9439 8.12524 14.0691 8.19335C14.1934 8.26019 14.3011 8.35616 14.3921 8.48126L13.9339 8.80755C13.8777 8.74208 13.8171 8.68932 13.7521 8.64926C13.6875 8.60703 13.6187 8.58032 13.5455 8.56914C13.4736 8.55704 13.3989 8.5613 13.3215 8.58189C13.2441 8.60249 13.1653 8.64133 13.0851 8.69844C13.0164 8.74738 12.9591 8.80161 12.9132 8.86112C12.8674 8.92063 12.835 8.98297 12.8162 9.04815C12.7987 9.11243 12.7951 9.17736 12.8053 9.24294C12.8156 9.30853 12.8425 9.37187 12.886 9.43296C12.9322 9.49787 12.9891 9.54273 13.0566 9.56753C13.1232 9.59105 13.196 9.6016 13.2748 9.59917C13.3536 9.59674 13.4369 9.58442 13.5247 9.56221C13.6128 9.53781 13.7021 9.5097 13.7926 9.47786C13.9329 9.42974 14.074 9.39353 14.2159 9.36921C14.3569 9.34362 14.4929 9.33791 14.6238 9.35209C14.7538 9.36499 14.8755 9.40113 14.9887 9.46051C15.102 9.51988 15.2012 9.60939 15.2864 9.72903C15.3743 9.85249 15.4257 9.97989 15.4406 10.1112C15.4555 10.2426 15.4417 10.3713 15.3992 10.4975C15.3567 10.6237 15.2893 10.7446 15.1971 10.8601C15.1039 10.9744 14.9943 11.0764 14.8683 11.1662C14.783 11.2269 14.6925 11.2789 14.5967 11.3222C14.5009 11.3655 14.4025 11.3982 14.3012 11.4204C14.2013 11.4417 14.101 11.4517 14.0004 11.4505C13.8989 11.448 13.8006 11.4326 13.7057 11.4043C13.6111 11.3738 13.5217 11.3291 13.4375 11.2701C13.3524 11.2099 13.2752 11.1325 13.206 11.0379L13.6661 10.7103C13.7323 10.7897 13.8028 10.8498 13.8778 10.8904C13.9528 10.931 14.0306 10.9542 14.1115 10.9599C14.1914 10.9644 14.2728 10.9534 14.3556 10.927C14.4389 10.8985 14.5218 10.8547 14.6046 10.7958C14.6733 10.7469 14.7317 10.6928 14.7797 10.6337C14.8278 10.5745 14.8627 10.5132 14.8846 10.4496C14.9056 10.3848 14.912 10.3198 14.904 10.2546C14.895 10.1881 14.8687 10.1243 14.8252 10.0632Z" fill="#0029FF"/>
<path d="M18.7796 7.4938C18.8528 7.68163 18.8991 7.87153 18.9185 8.06351C18.9373 8.25403 18.9245 8.43424 18.88 8.60416C18.8363 8.77205 18.7578 8.92337 18.6442 9.05812C18.5316 9.19084 18.3792 9.29462 18.187 9.36945C17.9962 9.44372 17.8149 9.46903 17.6431 9.44539C17.4712 9.42176 17.3125 9.36284 17.1668 9.26865C17.022 9.17243 16.8922 9.04777 16.7772 8.89466C16.6638 8.74099 16.5704 8.57024 16.4973 8.38241L16.3392 7.97618C16.2904 7.85096 16.253 7.72469 16.2269 7.59736C16.2022 7.46946 16.1899 7.34515 16.1898 7.22445C16.1907 7.10172 16.2044 6.98404 16.231 6.87141C16.2584 6.75676 16.3012 6.65124 16.3592 6.55487C16.4187 6.45792 16.4938 6.37084 16.5845 6.29362C16.6766 6.21584 16.786 6.15228 16.9127 6.10296C17.1049 6.02813 17.2876 6.00225 17.4609 6.02532C17.6357 6.04783 17.7969 6.10662 17.9446 6.2017C18.0917 6.29533 18.223 6.41942 18.3385 6.57398C18.454 6.72854 18.5484 6.89974 18.6215 7.08757L18.7796 7.4938ZM18.0934 7.28813C18.0455 7.16931 17.9884 7.05489 17.9221 6.94489C17.8558 6.83489 17.7807 6.74337 17.697 6.67035C17.6126 6.59587 17.5194 6.54583 17.4172 6.52023C17.3159 6.4926 17.2055 6.50202 17.0861 6.54851C16.9682 6.59443 16.8813 6.66182 16.8253 6.75067C16.7702 6.8375 16.7376 6.93658 16.7272 7.04791C16.7184 7.15867 16.7275 7.2767 16.7544 7.40201C16.7823 7.52529 16.8188 7.64692 16.8638 7.76688L17.0237 8.17748C17.0716 8.29631 17.128 8.41101 17.1929 8.52158C17.2571 8.63069 17.3303 8.72378 17.4123 8.80085C17.4951 8.87589 17.5865 8.92751 17.6863 8.95571C17.7876 8.98334 17.8973 8.97419 18.0152 8.92827C18.1346 8.88179 18.2223 8.81412 18.2782 8.72526C18.3356 8.63584 18.3702 8.53519 18.382 8.42329C18.3937 8.3114 18.3861 8.1928 18.3591 8.06749C18.3336 7.94161 18.2983 7.8187 18.2533 7.69873L18.0934 7.28813Z" fill="#0029FF"/>
<path d="M29.849 5.72998L31.7404 6.46638L31.5712 6.90101L30.8832 6.63315L29.9827 8.94606L30.6707 9.21392L30.5023 9.64636L28.6109 8.90996L28.7793 8.47751L29.452 8.73942L30.3525 6.42651L29.6798 6.16461L29.849 5.72998Z" fill="#0029FF"/>
<path d="M34.0358 10.7838C34.0829 10.7176 34.1102 10.6497 34.1175 10.5801C34.127 10.5102 34.1199 10.438 34.0962 10.3635C34.0738 10.29 34.0375 10.2143 33.9874 10.1365C33.9396 10.0583 33.8835 9.97806 33.8193 9.89587C33.7325 9.7861 33.6524 9.66961 33.579 9.54638C33.5069 9.42406 33.4529 9.29926 33.4169 9.17199C33.3831 9.04434 33.3723 8.91676 33.3845 8.78923C33.3988 8.66134 33.4486 8.53757 33.5338 8.41793C33.619 8.29829 33.7206 8.20951 33.8386 8.15158C33.9587 8.09328 34.0856 8.06186 34.2193 8.05731C34.353 8.05275 34.4898 8.07345 34.6297 8.11938C34.7696 8.16532 34.902 8.23269 35.0267 8.32152C35.1604 8.41668 35.2701 8.52651 35.356 8.65099C35.4441 8.7751 35.5047 8.90552 35.5378 9.04225C35.573 9.1786 35.579 9.31709 35.5555 9.45771C35.533 9.59706 35.4776 9.73019 35.3891 9.8571L34.9309 9.53081C34.9744 9.45628 35.0044 9.38177 35.021 9.30727C35.0398 9.23241 35.0425 9.15857 35.0292 9.08575C35.0171 9.01384 34.9886 8.94468 34.9439 8.87826C34.8991 8.81185 34.8366 8.75009 34.7564 8.69299C34.6877 8.64405 34.6177 8.60764 34.5465 8.58377C34.4752 8.55989 34.4057 8.54973 34.338 8.55328C34.2715 8.55773 34.209 8.57553 34.1504 8.60668C34.0917 8.63782 34.0407 8.68394 33.9972 8.74503C33.9509 8.80994 33.9272 8.87836 33.9258 8.95029C33.9254 9.02095 33.9392 9.09313 33.9673 9.16684C33.9953 9.24054 34.0342 9.31523 34.0839 9.3909C34.1358 9.4662 34.1916 9.54141 34.2513 9.61652C34.3426 9.73337 34.423 9.85486 34.4924 9.981C34.5626 10.1059 34.6125 10.2325 34.6419 10.3609C34.6723 10.488 34.6779 10.6147 34.6588 10.7412C34.6398 10.8676 34.5876 10.9907 34.5024 11.1103C34.4145 11.2338 34.3109 11.324 34.1917 11.381C34.0724 11.4381 33.9462 11.4671 33.8131 11.4682C33.6799 11.4693 33.5437 11.4452 33.4043 11.3958C33.2658 11.3451 33.1336 11.2749 33.0076 11.1852C32.9223 11.1245 32.8435 11.0559 32.7713 10.9796C32.6991 10.9032 32.636 10.8208 32.5819 10.7325C32.5291 10.645 32.4868 10.5535 32.4551 10.458C32.4242 10.3612 32.4067 10.2634 32.4023 10.1644C32.4002 10.065 32.4132 9.96591 32.4414 9.86706C32.4705 9.76694 32.5184 9.66869 32.5851 9.57233L33.0452 9.89998C32.9918 9.98851 32.9581 10.0748 32.9442 10.159C32.9304 10.2431 32.934 10.3243 32.955 10.4025C32.9769 10.4795 33.0138 10.5528 33.0659 10.6225C33.1201 10.6918 33.1886 10.7559 33.2713 10.8148C33.3401 10.8638 33.4102 10.9013 33.4818 10.9273C33.5534 10.9534 33.6228 10.9664 33.69 10.9663C33.7581 10.9649 33.8217 10.9497 33.8807 10.9208C33.9406 10.8905 33.9923 10.8449 34.0358 10.7838Z" fill="#0029FF"/>
<path d="M37.7571 13.6806C37.6035 13.8111 37.4392 13.917 37.2641 13.9981C37.0902 14.0782 36.9157 14.125 36.7406 14.1385C36.5677 14.1522 36.399 14.1274 36.2345 14.0642C36.0723 14.0012 35.9243 13.8911 35.7908 13.7339C35.6582 13.578 35.575 13.4149 35.5411 13.2448C35.5073 13.0747 35.511 12.9054 35.5524 12.7369C35.596 12.5686 35.6713 12.4051 35.7784 12.2464C35.8865 12.0889 36.0174 11.9449 36.1709 11.8144L36.5031 11.5321C36.6055 11.445 36.7126 11.3684 36.8244 11.3021C36.9372 11.2369 37.0506 11.1846 37.1647 11.1451C37.2809 11.1058 37.3966 11.0802 37.5117 11.0685C37.6291 11.057 37.7428 11.0629 37.8528 11.0862C37.9639 11.1107 38.0708 11.1532 38.1734 11.2136C38.277 11.2752 38.3728 11.3578 38.4609 11.4614C38.5945 11.6186 38.6787 11.7828 38.7136 11.9541C38.7494 12.1266 38.7466 12.2982 38.7051 12.4689C38.6647 12.6385 38.5904 12.8032 38.4821 12.9629C38.3738 13.1226 38.2429 13.2677 38.0893 13.3983L37.7571 13.6806ZM37.727 12.9648C37.8237 12.8807 37.9131 12.7893 37.9954 12.6906C38.0776 12.592 38.1396 12.4912 38.1812 12.3881C38.224 12.2841 38.2408 12.1796 38.2316 12.0746C38.2245 11.9699 38.1795 11.8687 38.0966 11.7711C38.0146 11.6746 37.9225 11.6145 37.8202 11.5907C37.7202 11.567 37.6158 11.5686 37.5073 11.5952C37.3997 11.6231 37.2911 11.6702 37.1815 11.7367C37.0741 11.8034 36.9711 11.8776 36.8725 11.9594L36.5367 12.2448C36.4401 12.3289 36.3502 12.4197 36.2669 12.5172C36.1848 12.6136 36.1208 12.7132 36.0747 12.8159C36.0309 12.9187 36.012 13.0219 36.018 13.1255C36.0251 13.2303 36.0695 13.3309 36.1515 13.4273C36.2345 13.5249 36.3271 13.5857 36.4294 13.6095C36.5326 13.6345 36.6391 13.6342 36.7487 13.6088C36.8583 13.5833 36.9678 13.5373 37.0774 13.4708C37.188 13.4055 37.2927 13.332 37.3913 13.2502L37.727 12.9648Z" fill="#0029FF"/>
<path d="M43.0442 23.5644L42.9669 25.5926L42.5008 25.5748L42.5289 24.8371L40.0487 24.7425L40.0206 25.4802L39.5569 25.4626L39.6342 23.4343L40.0979 23.452L40.0704 24.1734L42.5506 24.268L42.5781 23.5466L43.0442 23.5644Z" fill="#0029FF"/>
<path d="M39.6375 29.1736C39.7154 29.1965 39.7885 29.2 39.8567 29.1842C39.9259 29.1703 39.9918 29.14 40.0544 29.0933C40.1165 29.048 40.1762 28.989 40.2334 28.9162C40.2916 28.8454 40.3491 28.7662 40.4057 28.6786C40.4811 28.5607 40.565 28.4469 40.6574 28.3373C40.7494 28.2291 40.8497 28.1372 40.9582 28.0616C41.0678 27.988 41.1848 27.936 41.3093 27.9058C41.4349 27.8775 41.5681 27.8841 41.709 27.9255C41.85 27.9669 41.9671 28.0338 42.0604 28.1264C42.1548 28.2209 42.226 28.3305 42.274 28.4554C42.3221 28.5802 42.3472 28.7163 42.3496 28.8635C42.3519 29.0108 42.3315 29.1578 42.2884 29.3048C42.2422 29.4622 42.1743 29.6018 42.0848 29.7237C41.9963 29.8476 41.8928 29.9475 41.7745 30.0234C41.6571 30.1014 41.5282 30.1522 41.3876 30.1761C41.2486 30.2004 41.1046 30.1915 40.9558 30.1494L41.1143 29.6097C41.1989 29.6264 41.2792 29.6305 41.355 29.6218C41.4319 29.6151 41.5026 29.5935 41.567 29.557C41.631 29.5221 41.6871 29.4726 41.7352 29.4086C41.7833 29.3445 41.8212 29.2653 41.849 29.1708C41.8727 29.0899 41.8843 29.0118 41.8835 28.9367C41.8828 28.8616 41.8697 28.7926 41.8442 28.7297C41.8182 28.6684 41.7809 28.6151 41.7323 28.5699C41.6837 28.5247 41.6234 28.4915 41.5515 28.4703C41.475 28.4479 41.4026 28.4478 41.3342 28.47C41.2672 28.4927 41.2036 28.5294 41.1431 28.58C41.0826 28.6307 41.0247 28.6918 40.9695 28.7636C40.9153 28.8372 40.8625 28.9145 40.811 28.9955C40.7305 29.12 40.6419 29.2357 40.5454 29.3425C40.4504 29.4498 40.3471 29.5383 40.2354 29.6081C40.1252 29.6783 40.0072 29.7251 39.8815 29.7485C39.7558 29.7718 39.6224 29.7628 39.4815 29.7214C39.3361 29.6787 39.2169 29.6103 39.124 29.5162C39.0312 29.4222 38.9624 29.3124 38.9178 29.187C38.8732 29.0615 38.8515 28.9249 38.8526 28.777C38.8552 28.6296 38.8783 28.4816 38.9218 28.3332C38.9513 28.2328 38.9904 28.1359 39.0389 28.0427C39.0875 27.9495 39.1446 27.8629 39.2105 27.7829C39.2759 27.7044 39.3485 27.6345 39.4284 27.5733C39.5097 27.5125 39.5965 27.4639 39.6886 27.4274C39.7818 27.3929 39.8797 27.3728 39.9823 27.3671C40.0865 27.3619 40.195 27.375 40.3079 27.4065L40.1487 27.9485C40.0476 27.9269 39.955 27.9233 39.8709 27.9377C39.7869 27.9522 39.7114 27.9821 39.6443 28.0275C39.5787 28.0734 39.5215 28.1323 39.4727 28.2043C39.4249 28.2782 39.3867 28.3639 39.3581 28.4613C39.3343 28.5423 39.3218 28.6209 39.3206 28.697C39.3194 28.7732 39.3299 28.8431 39.3519 28.9065C39.3755 28.9705 39.4106 29.0256 39.4573 29.0718C39.5055 29.1185 39.5655 29.1525 39.6375 29.1736Z" fill="#0029FF"/>
<path d="M38.1169 33.6378C37.9434 33.5353 37.7896 33.4146 37.6557 33.2757C37.5231 33.1376 37.4218 32.988 37.3518 32.8269C37.2823 32.668 37.2505 32.5005 37.2565 32.3244C37.263 32.1504 37.3186 31.9746 37.4235 31.797C37.5275 31.6207 37.6544 31.4888 37.8041 31.4011C37.9538 31.3135 38.115 31.2617 38.2877 31.2457C38.461 31.2318 38.6401 31.2495 38.8251 31.2989C39.0093 31.3495 39.1882 31.4261 39.3618 31.5285L39.7372 31.7501C39.8529 31.8184 39.9604 31.8945 40.0596 31.9785C40.1581 32.0638 40.2446 32.1538 40.3192 32.2487C40.3944 32.3457 40.4564 32.4467 40.5051 32.5516C40.5544 32.6587 40.586 32.7681 40.6 32.8797C40.6131 32.9927 40.6079 33.1076 40.5844 33.2243C40.5601 33.3424 40.5133 33.46 40.4443 33.5771C40.3394 33.7547 40.2118 33.888 40.0613 33.977C39.91 34.0673 39.7469 34.1208 39.572 34.1373C39.3985 34.1546 39.2186 34.1383 39.0323 34.0882C38.8459 34.0381 38.666 33.9618 38.4924 33.8593L38.1169 33.6378ZM38.7835 33.3753C38.8946 33.4391 39.0103 33.4937 39.1304 33.5392C39.2505 33.5847 39.366 33.6102 39.477 33.6158C39.5893 33.6223 39.6936 33.604 39.7897 33.5609C39.8864 33.52 39.9674 33.4444 40.0325 33.3341C40.0968 33.2251 40.1235 33.1184 40.1126 33.0139C40.1022 32.9116 40.0666 32.8135 40.0059 32.7197C39.9444 32.6271 39.8643 32.5399 39.7657 32.4581C39.6675 32.3784 39.5637 32.3054 39.4542 32.2389L39.0747 32.0149C38.9636 31.9512 38.8483 31.8959 38.729 31.849C38.611 31.803 38.496 31.775 38.3839 31.7651C38.2724 31.7573 38.1687 31.7732 38.0727 31.8128C37.976 31.8537 37.8955 31.9286 37.8312 32.0376C37.7661 32.148 37.739 32.2554 37.7499 32.3598C37.7601 32.4656 37.7951 32.5661 37.855 32.6613C37.9149 32.7565 37.9942 32.8451 38.0929 32.9269C38.1908 33.01 38.2945 33.0849 38.404 33.1513L38.7835 33.3753Z" fill="#0029FF"/>
<path d="M19.3117 40.6997C19.3517 40.5022 19.4155 40.3174 19.5029 40.1454C19.5901 39.975 19.6983 39.8303 19.8277 39.7114C19.9551 39.5938 20.1031 39.509 20.2714 39.457C20.438 39.4063 20.6223 39.4014 20.8244 39.4424C21.025 39.483 21.1912 39.5598 21.323 39.6726C21.4548 39.7854 21.5565 39.9208 21.6281 40.0788C21.6978 40.238 21.7397 40.4131 21.7536 40.604C21.7659 40.7946 21.7521 40.9887 21.7121 41.1863L21.6255 41.6135C21.5988 41.7452 21.562 41.8717 21.5151 41.9929C21.4667 42.1138 21.4098 42.2251 21.3446 42.3266C21.2775 42.4294 21.2024 42.521 21.1191 42.6014C21.034 42.683 20.941 42.7486 20.8401 42.7983C20.7376 42.8477 20.6273 42.8803 20.5093 42.8963C20.3898 42.9119 20.2634 42.9062 20.1302 42.8792C19.928 42.8382 19.7603 42.7612 19.627 42.6481C19.4921 42.5346 19.3883 42.398 19.3155 42.2382C19.2424 42.0799 19.199 41.9045 19.1854 41.712C19.1718 41.5195 19.185 41.3245 19.2251 41.127L19.3117 40.6997ZM19.7777 41.2438C19.7538 41.3696 19.74 41.4968 19.7363 41.6252C19.7326 41.7536 19.7462 41.8711 19.7772 41.9778C19.8079 42.0861 19.8593 42.1786 19.9314 42.2554C20.0017 42.3334 20.0996 42.3851 20.2251 42.4106C20.3492 42.4357 20.4588 42.4261 20.5539 42.3816C20.6471 42.3383 20.7282 42.2726 20.7971 42.1846C20.8644 42.0962 20.9206 41.992 20.9657 41.872C21.0089 41.7532 21.044 41.6312 21.071 41.5059L21.1585 41.0741C21.1824 40.9482 21.197 40.8212 21.2022 40.6931C21.2071 40.5666 21.196 40.4487 21.1687 40.3396C21.1395 40.2316 21.0906 40.1388 21.0218 40.0611C20.9516 39.9831 20.8544 39.9315 20.7304 39.9064C20.6048 39.8809 20.4945 39.8904 20.3993 39.9349C20.3027 39.9791 20.2192 40.0451 20.1488 40.1328C20.0784 40.2206 20.0207 40.3245 19.9756 40.4445C19.929 40.5642 19.8922 40.6867 19.8653 40.8119L19.7777 41.2438Z" fill="#0029FF"/>
</svg>
