<svg width="118" height="61" viewBox="0 0 118 61" fill="none" xmlns="http://www.w3.org/2000/svg">
<g clip-path="url(#clip0)">
<path d="M58.94 60.62C54.31 60.62 49.92 59.58 45.99 57.72L5.11 38.38C2.09 36.95 0 33.87 0 30.31C0 26.75 2.09 23.67 5.11 22.24L45.99 2.9C49.92 1.04 54.31 0 58.94 0C63.57 0 67.96 1.04 71.89 2.9L112.77 22.24C115.79 23.67 117.88 26.75 117.88 30.31C117.88 33.87 115.79 36.95 112.77 38.38L71.89 57.72C67.96 59.58 63.57 60.62 58.94 60.62Z" fill="#0019A5"/>
<path d="M8.92 34.48C11.223 34.48 13.09 32.613 13.09 30.31C13.09 28.007 11.223 26.14 8.92 26.14C6.61697 26.14 4.75 28.007 4.75 30.31C4.75 32.613 6.61697 34.48 8.92 34.48Z" stroke="white" stroke-miterlimit="10" stroke-linecap="round" stroke-linejoin="round"/>
<path d="M108.959 34.48C111.262 34.48 113.129 32.613 113.129 30.31C113.129 28.007 111.262 26.14 108.959 26.14C106.656 26.14 104.789 28.007 104.789 30.31C104.789 32.613 106.656 34.48 108.959 34.48Z" stroke="white" stroke-miterlimit="10" stroke-linecap="round" stroke-linejoin="round"/>
<path d="M58.9402 54.26C72.1674 54.26 82.8902 43.5372 82.8902 30.31C82.8902 17.0828 72.1674 6.35999 58.9402 6.35999C45.713 6.35999 34.9902 17.0828 34.9902 30.31C34.9902 43.5372 45.713 54.26 58.9402 54.26Z" stroke="white" stroke-miterlimit="10" stroke-linecap="round" stroke-linejoin="round"/>
<path d="M58.94 47.25C68.2957 47.25 75.88 39.6657 75.88 30.31C75.88 20.9543 68.2957 13.37 58.94 13.37C49.5843 13.37 42 20.9543 42 30.31C42 39.6657 49.5843 47.25 58.94 47.25Z" stroke="#003CFF" stroke-miterlimit="10" stroke-linecap="round" stroke-linejoin="round"/>
</g>
<defs>
<clipPath id="clip0">
<rect width="117.88" height="60.62" fill="white"/>
</clipPath>
</defs>
</svg>
