<svg width="119" height="64" viewBox="0 0 119 64" fill="none" xmlns="http://www.w3.org/2000/svg">
<g clip-path="url(#clip0)">
<path d="M118.28 63.13H85.33C77.78 58.27 68.79 55.44 59.14 55.44C49.5 55.44 40.5 58.26 32.96 63.13H0C0.84 60.14 1.67 57.13 3.67 50.01H22.93L33.01 18.95C37.39 6.31 48.26 0 59.14 0C70.02 0 80.89 6.31 85.26 18.94L95.34 50H114.6C116.6 57.13 117.44 60.14 118.28 63.13Z" fill="#0019A5"/>
<path d="M59.1406 47.69C70.3244 47.69 79.3906 38.6238 79.3906 27.44C79.3906 16.2562 70.3244 7.19 59.1406 7.19C47.9569 7.19 38.8906 16.2562 38.8906 27.44C38.8906 38.6238 47.9569 47.69 59.1406 47.69Z" stroke="white" stroke-miterlimit="10" stroke-linecap="round" stroke-linejoin="round"/>
<path d="M59.1391 40.71C66.468 40.71 72.4091 34.7688 72.4091 27.44C72.4091 20.1112 66.468 14.17 59.1391 14.17C51.8103 14.17 45.8691 20.1112 45.8691 27.44C45.8691 34.7688 51.8103 40.71 59.1391 40.71Z" stroke="#003CFF" stroke-miterlimit="10" stroke-linecap="round" stroke-linejoin="round"/>
</g>
<defs>
<clipPath id="clip0">
<rect width="118.28" height="63.13" fill="white"/>
</clipPath>
</defs>
</svg>
